<?xml version="1.0" encoding="utf-8"?>
<!-- Generator: Adobe Illustrator 24.2.1, SVG Export Plug-In . SVG Version: 6.00 Build 0)  -->
<svg version="1.1" id="Layer_1" xmlns="http://www.w3.org/2000/svg" xmlns:xlink="http://www.w3.org/1999/xlink" x="0px" y="0px"
	 viewBox="0 0 512 512" style="enable-background:new 0 0 512 512;" xml:space="preserve">
<style type="text/css">
	.st0{fill:#A08BE8;}
	.st1{fill:#D0C5F3;}
	.st2{fill:#8065E0;}
	.st3{fill:url(#SVGID_1_);}
	.st4{fill:url(#SVGID_2_);}
	.st5{fill:url(#SVGID_3_);}
	.st6{fill:url(#SVGID_4_);}
	.st7{fill:url(#SVGID_5_);}
	.st8{fill:url(#SVGID_6_);}
	.st9{fill:url(#SVGID_7_);}
	.st10{fill:url(#SVGID_8_);}
	.st11{fill:url(#SVGID_9_);}
	.st12{fill:url(#SVGID_10_);}
	.st13{fill:url(#SVGID_11_);}
	.st14{fill:url(#SVGID_12_);}
	.st15{fill:url(#SVGID_13_);}
	.st16{fill:#512BD4;}
	.st17{fill:url(#SVGID_14_);}
	.st18{fill:url(#SVGID_15_);}
	.st19{fill:#FFFFFF;}
	.st20{fill:url(#SVGID_16_);}
	.st21{fill:url(#SVGID_17_);}
	.st22{fill:url(#SVGID_18_);}
</style>
<g>
	<path class="st0" d="M271.3,387.8c4.8,22.8,28.8,42.4,30.3,43.3c1.5,0.9-43.4,1.3-43.4,1.3s-13.2-31.5-7.5-45.4
		C251.2,385.7,271.3,387.8,271.3,387.8z"/>
	<path class="st1" d="M260.1,429.4l39.4,0.2c0,0,9.1,6.1,11.6,10.6c1.9,3.4,1.7,11,1.6,14.4c0,0.9-0.8,1.7-1.8,1.7l-38-0.1
		c-1.2,0-2.2-1-2.2-2.2c0-4.2-0.7-13.2-2.3-15.7C266,434.4,260.1,429.4,260.1,429.4z"/>
	<path class="st2" d="M248.1,383.9c-7.3,25.3-4.3,65.5-4,67.6c0.4,2.9,0.8,5,5,5c5.2,0,27.6,0,27.6,0l-11.8-71L248.1,383.9z"/>
	<path class="st0" d="M271.3,387.8c1.8,12.4,14.2,29.9,37.7,48.2c2.8,2.1,4.2,4.4,4.2,7.6v10.2c0,1.5-1.2,2.7-2.7,2.7h-37.7
		c-1.1,0-1.9-0.9-1.9-1.9v-11.8c0-3.7-0.7-5.5-4.5-8.2c-9.4-6.7-15.3-29.5-15.5-45.7C250.5,372.8,271.3,387.8,271.3,387.8z"/>
	<path class="st1" d="M312.8,441.1c0.2,0.8,0.4,1.6,0.4,2.5v10.2c0,1.5-1.2,2.7-2.7,2.7h-37.7c-1.1,0-1.9-0.9-1.9-1.9v-11.7
		c0-0.6,0-1.2-0.1-1.7H312.8z"/>
	<path class="st2" d="M230.4,383.9c7.3,25.3,4.3,65.5,4,67.6c-0.4,2.9-0.8,5-5,5c-5.2,0-27.6,0-27.6,0l11.8-71L230.4,383.9z"/>
	<path class="st0" d="M207.3,387.8c-1.8,12.4-14.2,29.9-37.7,48.2c-2.7,2.1-4.2,4.4-4.2,7.6v10.2c0,1.5,1.2,2.7,2.7,2.7h37.7
		c1.1,0,1.9-0.9,1.9-1.9v-11.8c0-3.7,0.7-5.5,4.5-8.2c9.4-6.7,15.3-29.5,15.5-45.7C228,372.8,207.3,387.8,207.3,387.8z"/>
	<path class="st1" d="M165.8,441.1c-0.2,0.8-0.4,1.6-0.4,2.5v10.2c0,1.5,1.2,2.7,2.7,2.7h37.7c1.1,0,1.9-0.9,1.9-1.9v-11.7
		c0-0.6,0-1.2,0.1-1.7H165.8z"/>
	
		<linearGradient id="SVGID_1_" gradientUnits="userSpaceOnUse" x1="259.0288" y1="208.3663" x2="259.0288" y2="152.839" gradientTransform="matrix(1 0 0 -1 0 513)">
		<stop  offset="0.2368" style="stop-color:#958FE7"/>
		<stop  offset="0.4881" style="stop-color:#BBB7EF"/>
	</linearGradient>
	<path class="st3" d="M249,304.7l0.1,55.5l19.9,0l-0.1-55.5L249,304.7z"/>
	<path class="st0" d="M268.9,335.7h-20v2.6h20V335.7z"/>
	
		<linearGradient id="SVGID_2_" gradientUnits="userSpaceOnUse" x1="218.035" y1="208.3663" x2="218.035" y2="152.839" gradientTransform="matrix(1 0 0 -1 0 513)">
		<stop  offset="0.2368" style="stop-color:#958FE7"/>
		<stop  offset="0.4881" style="stop-color:#BBB7EF"/>
	</linearGradient>
	<path class="st4" d="M208,304.7l0.1,55.5l19.9,0l-0.1-55.5L208,304.7z"/>
	<path class="st0" d="M227.9,335.7h-20v2.6h20V335.7z"/>
	
		<linearGradient id="SVGID_3_" gradientUnits="userSpaceOnUse" x1="145.7869" y1="275.9937" x2="94.1741" y2="186.5612" gradientTransform="matrix(1 0 0 -1 0 513)">
		<stop  offset="0.1197" style="stop-color:#958FE7"/>
		<stop  offset="0.2551" style="stop-color:#BBB7EF"/>
	</linearGradient>
	<path class="st5" d="M122.9,343c-14.4-9.4-31.8-29.8-33.2-56.4c-0.9-16.2,4-40.3,32.3-63.3l12.8,15.7c-17.2,14-25.8,30.1-24.9,46.5
		c1,17.9,12.8,33.2,24,40.6L122.9,343z"/>
	
		<linearGradient id="SVGID_4_" gradientUnits="userSpaceOnUse" x1="350.696" y1="286.8006" x2="388.9916" y2="300.7449" gradientTransform="matrix(1 0 0 -1 0 513)">
		<stop  offset="0.1918" style="stop-color:#958FE7"/>
		<stop  offset="0.4956" style="stop-color:#BBB7EF"/>
	</linearGradient>
	<path class="st6" d="M353.9,234.9l38.3-12.4l-6.4-18.9L347.5,216L353.9,234.9z"/>
	<path class="st0" d="M369.1,209l-2.2,0.7l6.4,18.9l2.2-0.7L369.1,209z"/>
	
		<radialGradient id="SVGID_5_" cx="-233.8175" cy="750.8331" r="1.681" gradientTransform="matrix(21.2351 0 0 -21.2263 5314.3755 16151.0176)" gradientUnits="userSpaceOnUse">
		<stop  offset="0" style="stop-color:#8065E0"/>
		<stop  offset="1" style="stop-color:#512BD4"/>
	</radialGradient>
	<path class="st7" d="M342,245.6c10.3,0,18.7-8.4,18.7-18.7c0-10.3-8.4-18.7-18.7-18.7c-10.3,0-18.7,8.4-18.7,18.7
		C323.3,237.2,331.7,245.6,342,245.6z"/>
	
		<radialGradient id="SVGID_6_" cx="-235.845" cy="748.4425" r="1.681" gradientTransform="matrix(18.7521 0 0 -18.7443 4548.1392 14245.0146)" gradientUnits="userSpaceOnUse">
		<stop  offset="0" style="stop-color:#8065E0"/>
		<stop  offset="1" style="stop-color:#512BD4"/>
	</radialGradient>
	<path class="st8" d="M135.3,245.6c10.3,0,18.7-8.4,18.7-18.7c0-10.3-8.4-18.7-18.7-18.7c-10.3,0-18.7,8.4-18.7,18.7
		C116.6,237.2,125,245.6,135.3,245.6z"/>
	
		<radialGradient id="SVGID_7_" cx="-249.9503" cy="764.2355" r="1.681" gradientTransform="matrix(82.3555 0 0 -82.3213 20850.2324 63067.3594)" gradientUnits="userSpaceOnUse">
		<stop  offset="0.186" style="stop-color:#A08BE8"/>
		<stop  offset="0.7272" style="stop-color:#8065E0"/>
	</radialGradient>
	<path class="st9" d="M239,317.8c56.2,0,101.8-45.5,101.8-101.7c0-56.2-45.6-101.7-101.8-101.7c-56.2,0-101.7,45.5-101.7,101.7
		C137.3,272.2,182.8,317.8,239,317.8z"/>
	
		<radialGradient id="SVGID_8_" cx="-249.5965" cy="763.3032" r="1.681" gradientTransform="matrix(70.1068 0 0 -70.0777 17672.4063 53677.418)" gradientUnits="userSpaceOnUse">
		<stop  offset="9.330000e-02" style="stop-color:#E1DFDD"/>
		<stop  offset="0.6573" style="stop-color:#FFFFFF"/>
	</radialGradient>
	<path class="st10" d="M323.4,216c0,11-2.1,21.5-6,31.2c-0.9,2.3-3.2,3.9-5.7,3.9H166.3c-2.5,0-4.8-1.5-5.7-3.9
		c-3.8-9.6-6-20.2-6-31.2c0-4.5,0.4-8.9,1.1-13.2c0.5-3,3.1-5.1,6.1-5.1h154.6c3,0,5.6,2.2,6.1,5.1
		C323.1,207.1,323.4,211.5,323.4,216z"/>
	
		<radialGradient id="SVGID_9_" cx="-244.9547" cy="757.7195" r="1.681" gradientTransform="matrix(37.1072 0 0 -37.0918 9248.5986 28380.1719)" gradientUnits="userSpaceOnUse">
		<stop  offset="0.4614" style="stop-color:#A08BE8"/>
		<stop  offset="0.5268" style="stop-color:#A793EA"/>
		<stop  offset="0.8352" style="stop-color:#C5B7F0"/>
		<stop  offset="1" style="stop-color:#D0C5F3"/>
	</radialGradient>
	<path class="st11" d="M151.3,267.5h175.5c-3.9,6.7-8.6,12.9-13.9,18.5H165.2C159.9,280.4,155.3,274.2,151.3,267.5z"/>
	
		<radialGradient id="SVGID_10_" cx="-247.1508" cy="760.9302" r="1.681" gradientTransform="matrix(50.5272 0 0 -50.5062 12705.7158 38663.3711)" gradientUnits="userSpaceOnUse">
		<stop  offset="0" style="stop-color:#512BD4"/>
		<stop  offset="0.4098" style="stop-color:#6645D9"/>
		<stop  offset="0.7102" style="stop-color:#7659DD"/>
		<stop  offset="0.9583" style="stop-color:#8065E0"/>
	</radialGradient>
	<path class="st12" d="M155.7,202.8c0.5-3,3.1-5.1,6.1-5.1h7.1c-3,0-5.6,2.2-6.1,5.1c-0.7,4.3-1.1,8.7-1.1,13.2
		c0,8.5,1.3,16.8,3.7,24.5c0.9,2.1,3.2,3.4,5.5,3.4h136.2c2.5,0,5-1.5,5.7-3.9c0.5-1.7,1-3.5,1.4-5.2c1.4-6.1,2.2-12.4,2.2-18.9
		c0-4.5-0.4-8.9-1.1-13.2c-0.5-3-3.1-5.1-6.1-5.1h7.1c3,0,5.6,2.2,6.1,5.1c0.7,4.3,1.1,8.7,1.1,13.2c0,11-2.1,21.5-6,31.2
		c-0.9,2.3-3.2,3.9-5.7,3.9h-7.1H173.4h-7.1h0c-2.5,0-4.8-1.5-5.7-3.9c-3.8-9.6-6-20.2-6-31.2C154.6,211.5,155,207.1,155.7,202.8z"
		/>
	<path class="st0" d="M253.8,244c0,0-10.1-8-12.1-9.5c-2-1.5-3.7-1.6-5.5,0c-1.8,1.6-12,9.5-12,9.5H253.8z"/>
	<path class="st1" d="M405.1,206.1L406,159l-19.9-0.4l-0.9,47.1L405.1,206.1z"/>
	<path class="st0" d="M385.6,180.7l0,2.3l19.9,0.4l0-2.3L385.6,180.7z"/>
	<path class="st1" d="M359.1,141.5l21.7,18.1c3.9,3.2,9.6,2.7,12.8-1.2c3.2-3.9,2.7-9.6-1.2-12.8l-21.7-18.1
		c-3.9-3.2-9.6-2.7-12.8,1.2C354.8,132.6,355.3,138.3,359.1,141.5z"/>
	<path class="st1" d="M413.8,147.9l7.8-17.3c2-4.6,0-10-4.7-12.1s-10,0-12.1,4.7l-8,17.7L413.8,147.9z"/>
	<path class="st1" d="M409.5,138.5l-0.1-26.2c0-5.1-4.2-9.1-9.2-9.1c-5.1,0-9.1,4.2-9.1,9.2l0,19.5L409.5,138.5z"/>
	<path class="st1" d="M398.7,141.3l-6-25.5c-1.2-4.9-6.1-8-11-6.8c-4.9,1.2-8,6.1-6.8,11l6.1,26L398.7,141.3z"/>
	
		<radialGradient id="SVGID_11_" cx="-234.4203" cy="753.4318" r="1.681" gradientTransform="matrix(22.7499 0 0 -22.7404 5727.6318 17267.1074)" gradientUnits="userSpaceOnUse">
		<stop  offset="0" style="stop-color:#A08BE8"/>
		<stop  offset="0.9913" style="stop-color:#8065E0"/>
	</radialGradient>
	<path class="st13" d="M395.3,165.4c10.6,0,19.2-8.6,19.2-19.2s-8.6-19.2-19.2-19.2c-10.6,0-19.2,8.6-19.2,19.2
		S384.7,165.4,395.3,165.4z"/>
	<path class="st0" d="M383.8,204.3l8.4,18.2c0,0,12.4-3.2,12.9-16.3c-12.7-2.3-19.9-3.6-19.9-3.6L383.8,204.3z"/>
	
		<radialGradient id="SVGID_12_" cx="-227.966" cy="739.9906" r="1.681" gradientTransform="matrix(15.3042 0 0 -15.2978 3749.0142 11684.7334)" gradientUnits="userSpaceOnUse">
		<stop  offset="0" style="stop-color:#8065E0"/>
		<stop  offset="0.8778" style="stop-color:#512BD4"/>
	</radialGradient>
	<path class="st14" d="M269.7,359.4h-19.4c-3.2,0-5.9,2.6-5.9,5.9v20.1c0,3.2,2.6,5.9,5.9,5.9h19.4c3.2,0,5.9-2.6,5.9-5.9v-20.1
		C275.6,362.1,272.9,359.4,269.7,359.4z"/>
	<path class="st1" d="M155.8,317.2l-28-3.7c-5-0.7-9.6,2.8-10.2,7.8c-0.7,5,2.8,9.6,7.8,10.2l28,3.7c5,0.7,9.6-2.8,10.2-7.8
		C164.3,322.4,160.8,317.9,155.8,317.2z"/>
	<path class="st1" d="M106.3,341l2.6,18.8c0.7,5,5.4,8.5,10.4,7.7c5-0.7,8.5-5.4,7.7-10.4l-2.7-19.3L106.3,341z"/>
	<path class="st1" d="M114.8,346.6l14,22.1c2.7,4.3,8.4,5.5,12.7,2.8c4.3-2.7,5.5-8.4,2.8-12.6l-10.4-16.5L114.8,346.6z"/>
	<path class="st1" d="M122.5,338.5l18.7,18.3c3.6,3.6,9.4,3.5,13-0.1c3.6-3.6,3.5-9.4-0.1-13l-19-18.7L122.5,338.5z"/>
	
		<radialGradient id="SVGID_13_" cx="-237.2414" cy="747.7625" r="1.681" gradientTransform="matrix(20.1459 0 0 -20.1375 4901.4546 15376.832)" gradientUnits="userSpaceOnUse">
		<stop  offset="8.410000e-02" style="stop-color:#A08BE8"/>
		<stop  offset="1" style="stop-color:#8065E0"/>
	</radialGradient>
	<path class="st15" d="M122.7,351.7c10.6,0,19.2-8.6,19.2-19.2c0-10.6-8.6-19.2-19.2-19.2s-19.2,8.6-19.2,19.2
		C103.5,343.1,112.1,351.7,122.7,351.7z"/>
	<path class="st16" d="M202.9,233.3c4.4-0.1,7.9-6.1,7.8-13.5c-0.1-7.4-3.8-13.3-8.2-13.3c-4.4,0.1-7.9,6.1-7.8,13.5
		C194.8,227.4,198.5,233.3,202.9,233.3z"/>
	<path class="st16" d="M282.5,219.9c0.1-7.4-3.4-13.4-7.8-13.5c-4.4-0.1-8,5.9-8.2,13.3c-0.1,7.4,3.4,13.4,7.8,13.5
		C278.7,233.3,282.4,227.3,282.5,219.9z"/>
	<path class="st2" d="M202.6,213.2c-2.9,2.9-2.9,7.6,0,10.5c2,2,4.8,2.6,7.3,1.9c0.5-1.8,0.7-3.7,0.7-5.8c0-3.4-0.8-6.4-2.1-8.7
		C206.4,210.8,204.2,211.6,202.6,213.2z"/>
	<path class="st2" d="M274.4,212.8c-2.9,2.9-2.9,7.6,0,10.5c2,2,4.8,2.6,7.4,1.9c0.4-1.6,0.7-3.4,0.7-5.2c0.1-3.6-0.8-6.9-2.1-9.3
		C278.3,210.4,276.1,211.1,274.4,212.8z"/>
	<path class="st1" d="M248.7,108.9h-19.7l2.8-20.2H246L248.7,108.9z"/>
	
		<radialGradient id="SVGID_14_" cx="-238.2843" cy="755.5465" r="1.681" gradientTransform="matrix(24.2612 0 0 -24.2511 6021.02 18386.1953)" gradientUnits="userSpaceOnUse">
		<stop  offset="0.1717" style="stop-color:#A08BE8"/>
		<stop  offset="0.9987" style="stop-color:#8065E0"/>
	</radialGradient>
	<path class="st17" d="M239,92.7c10.3,0,18.7-8.4,18.7-18.7c0-10.3-8.4-18.7-18.7-18.7c-10.3,0-18.7,8.4-18.7,18.7
		C220.3,84.4,228.7,92.7,239,92.7z"/>
	
		<radialGradient id="SVGID_15_" cx="-227.423" cy="745.9034" r="1.681" gradientTransform="matrix(14.7038 0 0 -14.6977 3583.8008 11070.8115)" gradientUnits="userSpaceOnUse">
		<stop  offset="0" style="stop-color:#8065E0"/>
		<stop  offset="1" style="stop-color:#512BD4"/>
	</radialGradient>
	<path class="st18" d="M256.3,121.2c0.9,0,1.6-0.8,1.5-1.6c-1-9.3-9-16.6-18.6-16.6c-9.6,0-17.5,7.3-18.6,16.6
		c-0.1,0.9,0.6,1.6,1.5,1.6H256.3z"/>
	<path class="st16" d="M255.6,260.2h-32.8V293h32.8V260.2z"/>
	<path class="st19" d="M228.6,281.1c-0.2,0-0.4-0.1-0.6-0.2s-0.2-0.3-0.2-0.6c0-0.2,0.1-0.4,0.2-0.6c0.2-0.2,0.4-0.2,0.6-0.2
		c0.2,0,0.4,0.1,0.6,0.2c0.2,0.2,0.3,0.3,0.3,0.6c0,0.2-0.1,0.4-0.3,0.6C229,281,228.8,281.1,228.6,281.1z"/>
	<path class="st19" d="M237.9,281h-1.5l-4-6.3c-0.1-0.2-0.2-0.3-0.3-0.5h0c0,0.2,0,0.6,0,1.2v5.6h-1.3v-8.5h1.6l3.8,6.1
		c0.2,0.3,0.3,0.4,0.3,0.5h0c0-0.2-0.1-0.6-0.1-1.1v-5.5h1.3L237.9,281L237.9,281z"/>
	<path class="st19" d="M244.4,281h-4.7v-8.5h4.5v1.2h-3.1v2.4h2.9v1.2h-2.9v2.5h3.3L244.4,281L244.4,281z"/>
	<path class="st19" d="M251,273.7h-2.4v7.3h-1.4v-7.3h-2.4v-1.2h6.2V273.7z"/>
	
		<radialGradient id="SVGID_16_" cx="-230.7036" cy="741.8391" r="1.681" gradientTransform="matrix(16.3049 0 0 -16.2981 3978.3716 12451.1025)" gradientUnits="userSpaceOnUse">
		<stop  offset="0" style="stop-color:#8065E0"/>
		<stop  offset="1" style="stop-color:#512BD4"/>
	</radialGradient>
	<path class="st20" d="M228.5,359.4h-19.4c-3.2,0-5.9,2.6-5.9,5.9v20.1c0,3.2,2.6,5.9,5.9,5.9h19.4c3.2,0,5.9-2.6,5.9-5.9v-20.1
		C234.4,362.1,231.7,359.4,228.5,359.4z"/>
	
		<radialGradient id="SVGID_17_" cx="-272.38" cy="785.0417" r="1.6809" gradientTransform="matrix(-22.9481 -0.9919 -0.9915 22.9386 -5289.2886 -18010.8301)" gradientUnits="userSpaceOnUse">
		<stop  offset="0" style="stop-color:#BDB9F0"/>
		<stop  offset="0.5336" style="stop-color:#C3BCEB;stop-opacity:0.4"/>
		<stop  offset="0.6108" style="stop-color:#CEC3E2;stop-opacity:0.3338"/>
		<stop  offset="0.8606" style="stop-color:#EDD6C9;stop-opacity:0.1195"/>
		<stop  offset="1" style="stop-color:#F9DDBF;stop-opacity:0"/>
	</radialGradient>
	<path class="st21" d="M149.1,228.2c1.9,0.1,3.6,1.4,4,3.4c7,32.4,32.5,58.3,64.8,66c2.3,0.5,3.7,2.9,3.2,5.2
		c-0.5,2.3-2.9,3.7-5.2,3.2c-35.5-8.4-63.5-36.8-71.2-72.5c-0.5-2.3,1-4.6,3.3-5.1C148.4,228.2,148.8,228.2,149.1,228.2z"/>
	
		<radialGradient id="SVGID_18_" cx="-235.7615" cy="753.8856" r="1.6809" gradientTransform="matrix(22.9481 0.9918 0.9914 -22.9386 4955.7471 17689.4805)" gradientUnits="userSpaceOnUse">
		<stop  offset="0" style="stop-color:#BDB9F0"/>
		<stop  offset="0.5266" style="stop-color:#C3BCEB;stop-opacity:0.7"/>
		<stop  offset="0.605" style="stop-color:#CEC3E2;stop-opacity:0.5841"/>
		<stop  offset="0.8586" style="stop-color:#EDD6C9;stop-opacity:0.2092"/>
		<stop  offset="1" style="stop-color:#F9DDBF;stop-opacity:0"/>
	</radialGradient>
	<path class="st22" d="M326.7,201.5c-1.9-0.1-3.6-1.4-4-3.4c-7-32.4-32.5-58.3-64.8-66c-2.3-0.5-3.7-2.9-3.2-5.2
		c0.5-2.3,2.9-3.7,5.2-3.2c35.5,8.4,63.5,36.8,71.2,72.5c0.5,2.3-1,4.6-3.3,5.1C327.4,201.5,327.1,201.5,326.7,201.5z"/>
	<path class="st0" d="M113.5,300.6l-18.4,7.8l0.9,2.1l18.4-7.8L113.5,300.6z"/>
	<path class="st0" d="M103.8,242.6l-1.3,1.9l16.5,11.2l1.3-1.9L103.8,242.6z"/>
</g>
</svg>
