<?xml version="1.0" encoding="utf-8"?>
<!-- Generator: Adobe Illustrator 24.2.1, SVG Export Plug-In . SVG Version: 6.00 Build 0)  -->
<svg version="1.1" id="Layer_1" xmlns="http://www.w3.org/2000/svg" xmlns:xlink="http://www.w3.org/1999/xlink" x="0px" y="0px"
	 viewBox="0 0 500 100" style="enable-background:new 0 0 500 100;" xml:space="preserve">
<style type="text/css">
	.st0{fill:#F50038;}
	.st1{fill:#010101;}
	.st2{fill:#020202;}
	.st3{fill:#F00708;}
	.st4{fill:#FEFDFD;}
	.st5{fill:#F00607;}
	.st6{fill:#F40038;}
</style>
<g>
	<path class="st0" d="M8.8,30.5c0.4,0.1,0.7,0,1-0.2C23,22.8,36.2,15.2,49.4,7.6c0.5-0.3,0.8-0.3,1.3,0C63.1,14.7,75.5,21.8,88,28.9
		c1,0.6,2,1.2,3.1,1.7c0.2,0.1,0.2,0.2,0.2,0.3c0,0.2,0,0.4,0,0.7c0,12.5,0,25,0,37.5c0,0.5-0.2,0.8-0.6,1
		c-13.3,7.4-26.7,14.9-40,22.3c-0.4,0.2-0.7,0.2-1.1,0c-7.9-4.4-15.7-8.8-23.6-13.2c-5.7-3.2-11.4-6.3-17.1-9.5
		C8.8,56.7,8.8,43.6,8.8,30.5z M65.6,48.9c0.2-0.1,0.3-0.1,0.4-0.2c2.6-1,5.1-2.2,7.3-3.9c2.9-2.2,4.9-5,5.9-8.5
		c0.8-2.7,0.8-5.4-0.1-8c-1.4-3.7-4.1-6-7.7-7.4c-2.6-1-5.3-1.3-8-1.3c-3.9,0-7.8,0-11.6,0c-4,0-8.1-0.2-12.1,0.2
		c-2,0.2-4,0.4-5.9,0.9c-1.9,0.5-3.7,1.3-5.3,2.5c-2,1.5-3.6,3.3-4.8,5.5c-0.6,1.1-1.2,2.3-1.6,3.6c-0.2,0.8,0,1.6,0.6,1.8
		c0.6,0.3,1.3,0.1,1.7-0.6c1.1-1.8,2.7-3,4.5-4c2.7-1.5,5.6-2.4,8.6-3.2c2.4-0.6,4.8-1,7.2-1.4c0.2,0,0.5-0.1,0.7,0.1
		c0.1,0.2-0.1,0.4-0.2,0.6c-1,1.9-1.9,3.7-2.8,5.6c-2.1,4.3-4.1,8.7-6.1,13.1c-1.3,3.1-2.7,6.1-4,9.2c-1.6,4-3.2,7.9-4.4,12.1
		c-0.8,2.7-1.5,5.4-1.4,8.2c0.1,3.2,1.6,5.6,4.4,7.1c3.2,1.7,6.7,2.3,10.2,2.4c3.2,0.1,6.3,0,9.4-0.4c3.1-0.4,6.1-1.1,9-2.1
		c4.9-1.8,9.4-4.3,12.9-8.3c1.3-1.5,2.4-3.2,3.1-5.1c0.8-2.3,1.2-4.6,1-7.1c-0.2-1.5-0.5-2.8-1.1-4.1c-1.4-3-3.9-4.9-6.8-6.2
		C67.6,49.6,66.6,49.3,65.6,48.9z"/>
	<path class="st1" d="M140.8,49.1c1.1,0.3,2.1,0.7,2.9,1.2c2.3,1.4,3.9,3.4,4.6,6c0.9,3.4,0.7,6.7-0.7,9.9c-1.6,3.6-4.5,5.7-8.2,6.9
		c-2.6,0.8-5.3,1.1-8,1.1c-6.1,0-12.2,0-18.4,0c-0.5,0-0.6-0.1-0.6-0.6c0-15.9,0-31.7,0-47.6c0-0.5,0.1-0.7,0.6-0.7
		c6,0,11.9,0,17.9,0.1c3,0,6,0.5,8.8,1.6c5.6,2.2,8.1,6.5,7.9,12.3C147.5,43.9,145.1,47.1,140.8,49.1z M122.5,59.5c0,2,0,4,0,6
		c0,0.5,0.1,0.6,0.6,0.6c2.7,0,5.3,0,8,0c0.8,0,1.5,0,2.3-0.2c2.6-0.5,4.5-1.8,5.1-4.5c0.3-1.3,0.3-2.6,0-3.9
		c-0.4-2-1.6-3.4-3.5-4.1c-1-0.4-2.1-0.5-3.1-0.5c-2.9,0-5.9,0-8.8,0c-0.4,0-0.5,0.1-0.5,0.5C122.5,55.5,122.5,57.5,122.5,59.5z
		 M122.5,39.6c0,1.9,0,3.8,0,5.6c0,0.4,0.1,0.6,0.6,0.6c2.3,0,4.6,0,6.8,0c1.2,0,2.3-0.1,3.5-0.5c1.8-0.5,3.3-1.5,3.9-3.5
		c0.5-1.6,0.4-3.2-0.1-4.7c-0.4-1.2-1.2-2.1-2.3-2.7c-1.1-0.5-2.2-0.8-3.4-0.9c-2.9-0.2-5.8-0.1-8.7-0.1c-0.4,0-0.4,0.2-0.4,0.5
		C122.5,35.9,122.5,37.8,122.5,39.6z"/>
	<path class="st1" d="M290.2,58.8c1.5,0,3,0,4.5,0c0.5,0,0.6,0.1,0.6,0.6c0.1,3.8,2.1,6.2,5.6,7.1c1.8,0.4,3.6,0.5,5.5,0.4
		c1.1-0.1,2.2-0.4,3.3-0.9c4-1.8,3.4-7.1,0.9-8.9c-1.4-1-3-1.7-4.7-2.3c-2.9-1.1-6-2-8.8-3.3c-2.7-1.2-5.2-2.6-7.1-4.8
		c-5.2-5.8-4.2-14.3,2.3-18.6c2.8-1.8,5.9-2.8,9.2-3.2c3.7-0.4,7.4-0.2,11,1.1c4.4,1.6,7.7,4.4,9.4,8.9c0.5,1.5,0.8,3,0.8,4.5
		c0,0.4-0.1,0.4-0.4,0.4c-3.1,0-6.1,0-9.2,0c-0.3,0-0.4-0.1-0.4-0.4c0-0.6-0.1-1.1-0.2-1.7c-0.6-2.2-1.9-3.6-4-4.4
		c-2.7-1-5.5-0.9-8.2,0.2c-1.7,0.7-2.9,1.9-3.3,3.8c-0.4,2.2,0.5,3.8,2.3,5c1.8,1.2,3.9,2,6,2.7c2.7,0.9,5.4,1.7,8,3
		c3,1.5,5.7,3.3,7.6,6.2c4.2,6.5,1.8,15.1-5.1,18.5c-3.3,1.6-6.8,2.1-10.4,2.2c-4.5,0-8.8-0.8-12.7-3.2c-4.6-2.8-7.2-6.9-7.4-12.3
		c0-0.5,0.1-0.6,0.6-0.6C287.2,58.8,288.7,58.8,290.2,58.8z"/>
	<path class="st1" d="M252.1,41.1c0.2-0.2,0.1-0.4,0.1-0.6c0-5.7,0-11.4,0-17.2c0-0.5,0.1-0.7,0.6-0.6c2.9,0,5.7,0,8.6,0
		c0.4,0,0.5,0.1,0.5,0.6c0,16.8,0,33.6,0,50.4c0,0.4-0.1,0.6-0.6,0.6c-2.6,0-5.1,0-7.7,0c-0.5,0-0.6-0.2-0.6-0.6
		c-0.1-1-0.2-2.1-0.4-3.1c-0.1,0-0.2,0-0.2,0.1c-4.7,6-14.6,5.6-19.3-0.6c-1.9-2.6-3-5.5-3.5-8.6c-0.7-4.1-0.7-8.2,0.3-12.3
		c0.8-3.4,2.3-6.3,4.8-8.7c4-3.7,11.8-4.4,16.3-0.3C251.4,40.4,251.7,40.7,252.1,41.1z M252.2,56.1c0-2.2,0-4.4,0-6.6
		c0-0.4-0.1-0.8-0.3-1.1c-1.5-2.6-3.8-3.4-6.7-3.2c-2.5,0.2-4.2,1.6-5.1,3.9c-1,2.3-1.2,4.7-1.2,7.1c0,2.3,0.1,4.6,1.1,6.8
		c1.8,4.3,7.2,5.5,10.7,2.4c1-0.9,1.7-1.9,1.6-3.4C252.1,60,252.2,58,252.2,56.1z"/>
	<path class="st1" d="M374.2,41.8c0.9-1,1.8-1.8,2.8-2.5c3.3-2.2,6.9-2.5,10.6-1.7c3.5,0.8,5.9,3,7.1,6.3c0.6,1.7,1,3.4,1.1,5.2
		c0.1,0.9,0.1,1.9,0.1,2.8c0,7.2,0,14.4,0,21.6c0,0.5-0.1,0.7-0.6,0.7c-2.9,0-5.7,0-8.6,0c-0.5,0-0.5-0.1-0.5-0.6
		c0-7.4,0-14.8,0-22.3c0-0.9-0.1-1.7-0.3-2.5c-0.4-1.9-1.5-3.1-3.5-3.5c-1.9-0.4-3.8-0.3-5.6,0.5c-1,0.5-1.7,1.2-2.3,2
		c-0.2,0.3-0.3,0.6-0.3,1c0,8.2,0,16.4,0,24.6c0,0.5-0.1,0.7-0.6,0.7c-2.9,0-5.7,0-8.6,0c-0.4,0-0.5-0.1-0.5-0.5
		c0-16.8,0-33.7,0-50.5c0-0.4,0.1-0.5,0.5-0.5c2.9,0,5.7,0,8.6,0c0.5,0,0.6,0.1,0.6,0.6c0,6,0,11.9,0,17.9
		C374.2,41.3,374.2,41.5,374.2,41.8z"/>
	<path class="st1" d="M436.1,55.4c0.1,3.8-0.3,7.2-1.9,10.4c-2.7,5.4-7,8.4-13,9c-3.3,0.3-6.6,0.1-9.7-1.3c-4.6-2-7.5-5.5-8.9-10.3
		c-1.4-5-1.4-10.1,0.3-15c2.3-6.5,7.1-10.1,13.9-10.8c3.7-0.4,7.3,0.1,10.6,1.9c4.5,2.5,7.1,6.5,8.1,11.4
		C435.9,52.4,436.1,54,436.1,55.4z M411.4,55.8c0,2.9,0.3,4.9,0.9,6.5c1.6,4.2,5.2,5.3,8.7,4.4c2.5-0.7,3.9-2.5,4.6-4.8
		c0.9-2.8,0.9-5.6,0.7-8.5c-0.1-1.6-0.5-3.1-1.2-4.6c-1.3-2.5-3.4-3.8-6.2-3.8c-2.8,0-4.9,1.3-6.1,3.9
		C411.6,51.3,411.5,53.7,411.4,55.8z"/>
	<path class="st1" d="M440.6,56.1c0-3.8,0.6-7.3,2.3-10.5c2.8-5.1,7.2-7.7,12.9-8.2c3.4-0.3,6.8,0,9.9,1.6c4.1,2,6.9,5.3,8.2,9.7
		c1.6,5.2,1.7,10.6-0.3,15.7c-2.3,6.2-7,9.7-13.6,10.4c-3,0.3-6.1,0.1-8.9-1c-5-1.9-8.1-5.6-9.6-10.7
		C440.8,60.7,440.5,58.4,440.6,56.1z M465.3,56.2c0-2.3-0.2-4.3-0.9-6.3c-1.1-3.1-3.5-4.8-6.5-4.8c-3.1,0-5.5,1.5-6.6,4.7
		c-1.4,4.1-1.4,8.2-0.2,12.3c0.4,1.3,1.1,2.5,2.1,3.4c3.6,3.1,9.4,1.6,11.1-2.9C465.1,60.4,465.2,58.2,465.3,56.2z"/>
	<path class="st2" d="M177.5,70.5c-1.4,1.6-2.9,2.8-4.7,3.4c-3.8,1.3-7.6,1.4-11.3-0.4c-3.2-1.5-4.8-4.3-5.5-7.7
		c-0.3-1.5-0.4-2.9-0.4-4.4c0-7.7,0-15.3,0-23c0-0.5,0.1-0.6,0.6-0.6c2.8,0,5.7,0,8.5,0c0.6,0,0.6,0.2,0.6,0.7c0,7.6,0,15.1,0,22.7
		c0,0.9,0.1,1.8,0.3,2.6c0.5,1.7,1.7,2.8,3.5,3c1.9,0.3,3.8,0.1,5.6-0.8c0.7-0.3,1.2-0.8,1.7-1.4c0.5-0.6,0.8-1.2,0.7-2
		c0-8.1,0-16.1,0-24.2c0-0.5,0.1-0.6,0.6-0.6c2.9,0,5.7,0,8.6,0c0.4,0,0.6,0.1,0.6,0.6c0,11.7,0,23.5,0,35.2c0,0.4-0.1,0.5-0.5,0.5
		c-2.7,0-5.4,0-8.1,0c-0.4,0-0.5-0.1-0.6-0.5C177.6,72.7,177.5,71.7,177.5,70.5z"/>
	<path class="st1" d="M354.6,51.4c-1.3,0-2.7,0-4,0c-0.4,0-0.6-0.1-0.6-0.6c-0.2-2.4-1.2-4.3-3.5-5.3c-2.4-1-4.7-0.8-6.8,0.9
		c-1,0.9-1.7,2-2,3.3c-1,4.4-1.1,8.7,0.2,13c0.7,2.3,2.3,3.7,4.7,4c2.4,0.4,4.7,0,6.4-2.1c0.7-0.8,1-1.8,1-2.8
		c0-0.3,0.1-0.4,0.5-0.4c2.8,0,5.5,0,8.3,0c0.5,0,0.4,0.2,0.4,0.5c-0.3,4.1-2.1,7.3-5.3,9.7c-5.5,4.1-14.7,4-20.1-0.2
		c-3.1-2.4-4.9-5.5-5.7-9.3c-1.1-4.9-1.1-9.8,0.5-14.5c2.1-6.2,7.2-10.1,13.8-10.6c3.4-0.2,6.8,0.1,9.8,1.8
		c4.1,2.3,6.3,5.8,6.9,10.4c0.1,0.5,0.1,1,0.1,1.5c0,0.4-0.1,0.5-0.4,0.5C357.4,51.4,356,51.4,354.6,51.4z"/>
	<path class="st1" d="M481.4,48.5c0-8.4,0-16.8,0-25.2c0-0.5,0.1-0.6,0.6-0.6c2.9,0,5.7,0,8.6,0c0.5,0,0.6,0.1,0.6,0.6
		c0,16.8,0,33.5,0,50.3c0,0.5-0.1,0.6-0.6,0.6c-2.9,0-5.7,0-8.6,0c-0.5,0-0.6-0.2-0.6-0.6C481.5,65.2,481.4,56.8,481.4,48.5z"/>
	<path class="st1" d="M222.7,48.4c0,8.4,0,16.7,0,25.1c0,0.5-0.1,0.7-0.6,0.6c-2.9,0-5.7,0-8.6,0c-0.4,0-0.6-0.1-0.6-0.5
		c0-16.8,0-33.6,0-50.4c0-0.4,0.1-0.6,0.6-0.5c2.9,0,5.7,0,8.6,0c0.5,0,0.7,0.1,0.7,0.6C222.7,31.7,222.7,40.1,222.7,48.4z"/>
	<path class="st2" d="M194.7,56c0-5.8,0-11.7,0-17.5c0-0.5,0.1-0.6,0.6-0.6c2.9,0,5.7,0,8.6,0c0.5,0,0.6,0.1,0.6,0.6
		c0,11.7,0,23.4,0,35.1c0,0.5-0.1,0.6-0.6,0.6c-2.9,0-5.7,0-8.6,0c-0.5,0-0.6-0.1-0.6-0.6C194.7,67.7,194.7,61.9,194.7,56z"/>
	<path class="st2" d="M199.5,33.6c-2.2-0.1-4.1-0.8-5-2.9c-1.2-2.9,0-6.7,4.4-7.1c1.9-0.2,3.7,0.2,5,1.8c1.3,1.6,1.4,3.3,0.7,5.2
		c-0.7,1.8-2.2,2.7-4.1,3C200.1,33.5,199.8,33.5,199.5,33.6z"/>
	<path class="st3" d="M65.6,48.9c1,0.4,2,0.7,2.9,1.1c3,1.3,5.4,3.2,6.8,6.2c0.6,1.3,0.9,2.7,1.1,4.1c0.3,2.5-0.1,4.8-1,7.1
		c-0.7,1.9-1.8,3.6-3.1,5.1c-3.5,4-8,6.5-12.9,8.3c-2.9,1.1-5.9,1.7-9,2.1c-3.1,0.4-6.3,0.6-9.4,0.4c-3.5-0.2-7-0.7-10.2-2.4
		c-2.8-1.5-4.3-3.9-4.4-7.1c-0.1-2.8,0.6-5.6,1.4-8.2c1.2-4.1,2.7-8.1,4.4-12.1c1.3-3.1,2.6-6.1,4-9.2c1.9-4.4,4-8.8,6.1-13.1
		c0.9-1.9,1.8-3.7,2.8-5.6c0.1-0.2,0.3-0.4,0.2-0.6c-0.1-0.2-0.4-0.1-0.7-0.1c-2.4,0.4-4.9,0.8-7.2,1.4c-3,0.8-5.9,1.7-8.6,3.2
		c-1.8,1-3.4,2.2-4.5,4c-0.4,0.6-1.1,0.8-1.7,0.6c-0.5-0.3-0.8-1.1-0.6-1.8c0.4-1.3,1-2.4,1.6-3.6c1.2-2.2,2.8-4,4.8-5.5
		c1.6-1.2,3.4-2,5.3-2.5c1.9-0.5,3.9-0.8,5.9-0.9c4-0.4,8.1-0.2,12.1-0.2c3.9,0,7.8,0,11.6,0c2.7,0,5.4,0.3,8,1.3
		c3.6,1.4,6.3,3.7,7.7,7.4c1,2.6,0.9,5.3,0.1,8c-1,3.5-3.1,6.3-5.9,8.5c-2.2,1.7-4.7,3-7.3,3.9C65.8,48.8,65.8,48.8,65.6,48.9z
		 M46.9,23.9c-0.3,0.6-0.6,1.1-0.9,1.6c-3.4,6.6-6.6,13.3-9.5,20.2C33.8,52,31,58.3,28.9,64.9c-0.8,2.6-1.5,5.2-1.7,7.9
		c-0.2,3.5,1.3,6.2,4.4,7.7c2.1,1,4.4,1.6,6.7,1.8c6.8,0.7,13.5,0.1,20-2c4.5-1.5,8.5-3.7,12-6.9c3.6-3.3,5.5-7.4,5.3-12.4
		c-0.2-3.7-1.8-6.7-4.8-8.8c-2-1.4-4.2-2.2-6.5-2.8c-0.6-0.2-1.3-0.3-2.1-0.5c0.2-0.1,0.3-0.1,0.4-0.1c3.1-0.7,5.9-1.8,8.6-3.5
		c3.4-2.2,6-5,7.2-9c1.6-5.5,0-10.5-5.2-13.6c-2.5-1.5-5.4-2.1-8.3-2.2c-6-0.2-12,0-17.9-0.1c-2.7,0-5.3,0-7.9,0.3
		c-2.4,0.2-4.7,0.6-6.9,1.5c-4.1,1.7-6.9,4.7-8.7,8.7c-0.3,0.6-0.6,1.2-0.7,2c0,0.2,0,0.5,0.2,0.5c0.3,0.1,0.4-0.1,0.6-0.3
		c1.1-1.8,2.7-3.1,4.5-4.1c2.7-1.5,5.6-2.5,8.6-3.3C40,24.8,43.4,24.3,46.9,23.9z"/>
	<path class="st4" d="M46.9,23.9c-3.5,0.4-6.9,0.9-10.2,1.9c-3,0.8-5.9,1.8-8.6,3.3c-1.8,1-3.4,2.3-4.5,4.1
		c-0.1,0.2-0.3,0.4-0.6,0.3c-0.3-0.1-0.2-0.3-0.2-0.5c0-0.7,0.4-1.3,0.7-2c1.8-4,4.5-7,8.7-8.7c2.2-0.9,4.5-1.3,6.9-1.5
		c2.6-0.3,5.3-0.3,7.9-0.3c6,0,12-0.1,17.9,0.1c2.9,0.1,5.8,0.7,8.3,2.2c5.2,3.1,6.7,8.2,5.2,13.6c-1.1,4-3.7,6.9-7.2,9
		c-2.6,1.7-5.5,2.8-8.6,3.5c-0.1,0-0.1,0-0.4,0.1c0.8,0.2,1.5,0.3,2.1,0.5c2.3,0.6,4.5,1.4,6.5,2.8c3.1,2.1,4.7,5.1,4.8,8.8
		c0.2,5-1.7,9-5.3,12.4c-3.4,3.2-7.5,5.5-12,6.9c-6.5,2.1-13.2,2.7-20,2c-2.3-0.2-4.6-0.8-6.7-1.8c-3.2-1.5-4.7-4.2-4.4-7.7
		c0.2-2.7,0.9-5.3,1.7-7.9c2-6.6,4.8-12.9,7.6-19.2c3-6.8,6.1-13.5,9.5-20.2C46.3,25,46.6,24.5,46.9,23.9z M44.8,79.2
		c4.6,0,8.5-0.9,12.3-3C64,72.5,67.3,64.4,64.9,57c-1.1-3.5-3.4-6-7.2-6.7c-0.3-0.1-0.6,0-0.9,0c-3.4,0.9-6.8,1.4-10.3,1.4
		c-1.3,0-1.6-0.6-1-1.7c0.2-0.4,0.5-0.7,0.8-0.9c0.4-0.3,0.9-0.5,1.4-0.6c3.2-1,6.4-1,9.7-0.5c0.3,0,0.5,0,0.8,0
		c7.6-2.3,11.9-9.9,11.7-16c-0.1-3.1-1.4-5.4-4.1-7c-2.3-1.3-4.9-1.7-7.5-1.9c-0.4,0-0.7,0.1-0.9,0.4c-2.6,3.6-4.6,7.5-6.6,11.4
		c-2.9,5.7-5.5,11.6-8,17.5c-2.3,5.3-4.4,10.7-5.5,16.4c-0.4,2-0.8,3.9-0.7,5.9c0.1,2.5,1.2,3.7,3.6,4.2
		C41.7,79.1,43.2,79.2,44.8,79.2z"/>
	<path class="st5" d="M44.8,79.2c-1.5,0-3.1-0.1-4.6-0.4c-2.4-0.5-3.4-1.7-3.6-4.2c-0.1-2,0.3-4,0.7-5.9c1.2-5.7,3.3-11.1,5.5-16.4
		c2.5-5.9,5.1-11.7,8-17.5c2-3.9,4-7.8,6.6-11.4c0.3-0.4,0.5-0.5,0.9-0.4c2.6,0.2,5.2,0.6,7.5,1.9c2.7,1.5,4,3.9,4.1,7
		c0.2,6.1-4.1,13.7-11.7,16c-0.3,0.1-0.5,0.1-0.8,0c-3.3-0.4-6.5-0.5-9.7,0.5c-0.5,0.2-1,0.3-1.4,0.6c-0.4,0.2-0.6,0.5-0.8,0.9
		c-0.6,1.2-0.3,1.7,1,1.7c3.5,0.1,6.9-0.5,10.3-1.4c0.3-0.1,0.6-0.1,0.9,0c3.9,0.7,6.1,3.1,7.2,6.7c2.4,7.5-0.9,15.5-7.8,19.3
		C53.3,78.3,49.4,79.2,44.8,79.2z M45.3,48.8c0.7-0.5,1.4-0.9,2.2-1.1c3-0.9,6-1.1,9.1-0.7c0.5,0.1,1.1,0.2,1.7,0
		c2.1-0.8,4.1-1.8,5.8-3.4c1.7-1.6,2.9-3.5,3.9-5.6c1-2.2,1.4-4.6,1.1-7.1c-0.3-2.8-1.9-4.6-4.4-5.7c-1.7-0.8-3.5-1.1-5.4-1.3
		c-0.7-0.1-1.2,0.1-1.7,0.8c-1.7,2.5-3.2,5.1-4.6,7.8c-2.4,4.6-4.6,9.3-6.7,14.1C45.9,47.3,45.4,48,45.3,48.8
		C45.3,48.8,45.2,48.8,45.3,48.8C45.2,48.9,45.2,48.9,45.3,48.8C45.2,48.9,45.3,48.8,45.3,48.8z M44.4,50.6c-0.5,1.3-1,2.4-1.5,3.5
		c-1.7,3.9-3.2,7.9-4.2,12c-0.7,2.8-1.4,5.7-1.2,8.6c0.1,1.5,0.8,2.7,2.3,3.1c1,0.2,1.9,0.3,2.9,0.4c2.1,0.2,4.2,0.1,6.3-0.2
		c3.8-0.6,7.3-1.9,10.4-4.3c2.1-1.6,3.5-3.6,4.4-6.1c0.8-2.3,1.1-4.7,1-7.1c-0.1-2-0.5-3.8-1.5-5.5c-1-1.6-2.2-2.9-4.1-3.6
		c-0.9-0.3-1.8-0.5-2.8-0.2c-3.3,0.8-6.6,1.3-9.9,1.2C45,52.5,44.5,52,44.4,50.6z"/>
	<path class="st0" d="M44.4,50.6c0.1,1.5,0.6,1.9,2,2c3.4,0.1,6.7-0.4,9.9-1.2c1-0.3,1.9-0.1,2.8,0.2c1.8,0.6,3.1,1.9,4.1,3.6
		c1,1.7,1.4,3.6,1.5,5.5c0.1,2.4-0.1,4.8-1,7.1c-0.9,2.5-2.3,4.5-4.4,6.1c-3.1,2.4-6.6,3.7-10.4,4.3c-2.1,0.3-4.2,0.4-6.3,0.2
		c-1-0.1-1.9-0.2-2.9-0.4c-1.6-0.4-2.2-1.6-2.3-3.1c-0.2-3,0.5-5.8,1.2-8.6c1.1-4.1,2.6-8.1,4.2-12C43.4,53,43.9,51.9,44.4,50.6z"/>
	<path class="st0" d="M45.3,48.8c0.2-0.8,0.6-1.5,0.9-2.3c2.1-4.8,4.3-9.5,6.7-14.1c1.4-2.7,2.9-5.3,4.6-7.8
		c0.4-0.7,0.9-0.9,1.7-0.8c1.8,0.2,3.7,0.5,5.4,1.3c2.5,1.1,4.2,3,4.4,5.7c0.3,2.4-0.1,4.8-1.1,7.1c-1,2.1-2.2,4-3.9,5.6
		c-1.7,1.6-3.6,2.6-5.8,3.4c-0.6,0.2-1.1,0.1-1.7,0c-3.1-0.4-6.1-0.2-9.1,0.7C46.7,47.9,45.9,48.3,45.3,48.8L45.3,48.8z"/>
	<path class="st6" d="M45.3,48.8C45.3,48.8,45.2,48.9,45.3,48.8C45.2,48.9,45.2,48.9,45.3,48.8C45.2,48.8,45.3,48.8,45.3,48.8
		C45.3,48.8,45.3,48.8,45.3,48.8z"/>
</g>
</svg>
