<svg id="圖層_1" data-name="圖層 1" xmlns="http://www.w3.org/2000/svg" viewBox="0 0 340.16 113.39"><defs><style>.cls-1{fill:#1687c3;}</style></defs><polygon class="cls-1" points="32.73 47 26.53 86.17 45.55 86.17 51.76 47 32.73 47"/><polygon class="cls-1" points="36.29 26.33 55.31 26.33 52.34 42.88 33.31 42.88 36.29 26.33"/><polygon class="cls-1" points="60.04 26.36 102.52 26.36 99.66 44.43 88.61 43.91 81.93 85.88 61.72 85.88 68.4 43.91 57.18 44.43 60.04 26.36"/><path class="cls-1" d="M107.61,26.36h19L124,42.88l-2.6,10.83h.3c4.2-4.19,8.35-7.59,13.81-7.59,9.73,0,12,7.38,10.66,16l-3.8,24.05H123.8L127,66c.33-2.06.44-4.65-2.29-4.65-2.94,0-4,2.22-4.34,4.65l-3.2,20.21h-19Z"/><path class="cls-1" d="M166.41,66.77a4.38,4.38,0,0,0,4.45,5.39A6.41,6.41,0,0,0,177,66.77c.5-3.17-1.23-5.75-4.4-5.75a6.54,6.54,0,0,0-6.22,5.75m29,.3c-2,13-14.67,20-26.91,20s-22.63-7-20.58-20c2.17-13.72,14.16-20.95,27.06-20.95s22.61,7.23,20.43,20.95"/><path class="cls-1" d="M217.92,53.94h.59a14.36,14.36,0,0,1,12.6-7.82c5.6,0,9,3,9.89,8.34h.44c3.08-5.46,7.15-8.34,13.19-8.34,9.37,0,12.35,7.23,11,15.71l-3.85,24.34H243.35l3.07-19.4c.36-2.28.83-5.24-2-5.24s-3.2,3-3.56,5.24l-3.07,19.4H219.38l3.07-19.4c.36-2.28.83-5.24-2-5.24s-3.19,3-3.56,5.24l-3.07,19.4H195.41L201.62,47h18Z"/><path class="cls-1" d="M295.53,61.68c.42-2.65-1.11-5.09-3.84-5.09S287,59,286.61,61.68Zm-10.21,8.11c-.5,3.18-.54,6.72,3.44,6.72a4.74,4.74,0,0,0,4.35-3.25h18.51c-4,9.44-15.24,13.79-24.24,13.79-12.31,0-22.59-6.34-20.46-19.84,2.06-13,13.38-21.09,25.84-21.09,13.94,0,23.5,9,20.22,23.67Z"/></svg>