<?xml version="1.0" encoding="UTF-8" standalone="no"?><!DOCTYPE svg PUBLIC "-//W3C//DTD SVG 1.1//EN" "http://www.w3.org/Graphics/SVG/1.1/DTD/svg11.dtd"><svg width="100%" height="100%" viewBox="0 0 500 140" version="1.1" xmlns="http://www.w3.org/2000/svg" xmlns:xlink="http://www.w3.org/1999/xlink" xml:space="preserve" xmlns:serif="http://www.serif.com/" style="fill-rule:evenodd;clip-rule:evenodd;stroke-linejoin:round;stroke-miterlimit:2;"><rect id="画板1" x="0" y="0" width="500" height="140" style="fill:none;"/><clipPath id="_clip1"><rect id="画板11" serif:id="画板1" x="0" y="0" width="500" height="140"/></clipPath><g clip-path="url(#_clip1)"><rect x="-2.072" y="-4.595" width="505.525" height="146.879" style="fill:#fff;"/><path d="M210.509,39.113l0,58.9l-10.2,-0l0,-46.1l-0.2,-0l-18.3,46.1l-6.8,-0l-18.7,-46.1l0,46.1l-9.4,-0l0,-58.9l14.7,-0l16.9,43.6l0.2,-0l17.9,-43.6l13.9,-0Zm8.6,4.5c0,-1.6 0.6,-3.1 1.8,-4.1c1.1,-1.1 2.7,-1.7 4.3,-1.7c1.6,-0 3.2,0.6 4.4,1.7c1.1,1.1 1.7,2.5 1.7,4.1c0,1.5 -0.6,3 -1.8,4.1c-1.2,1.1 -2.7,1.7 -4.3,1.6c-1.6,-0 -3.1,-0.6 -4.3,-1.7c-1.2,-1 -1.9,-2.5 -1.8,-4Zm11,12.1l0,42.2l-9.9,-0l0,-42.2l9.9,-0Zm30.1,35c1.7,-0 3.3,-0.4 4.9,-1c1.8,-0.7 3.4,-1.6 4.9,-2.7l0,9.2c-1.7,0.9 -3.5,1.6 -5.4,2.1c-2.2,0.5 -4.4,0.7 -6.6,0.7c-6.2,-0 -11.3,-2 -15.1,-5.9c-3.9,-3.9 -5.8,-8.9 -5.8,-15c0,-6.8 2,-12.4 5.9,-16.8c4,-4.4 9.6,-6.6 16.9,-6.6c1.9,-0 3.8,0.2 5.6,0.7c1.6,0.4 3.1,0.9 4.5,1.7l0,9.5c-1.4,-1.1 -3,-1.9 -4.7,-2.6c-1.6,-0.6 -3.2,-0.9 -4.9,-0.9c-3.6,-0.1 -7,1.2 -9.5,3.8c-2.4,2.5 -3.6,6 -3.6,10.3c0,4.3 1.1,7.7 3.5,10c2.3,2.4 5.4,3.5 9.4,3.5Zm38.1,-35.6c0.7,-0 1.4,-0 2.1,0.2c0.5,0.1 1.1,0.2 1.6,0.4l0,10.1c-0.7,-0.5 -1.5,-0.8 -2.3,-1.1c-1.2,-0.4 -2.4,-0.5 -3.6,-0.5c-2.4,-0 -4.7,1.1 -6.2,3.1c-1.7,2.1 -2.5,5.2 -2.5,9.5l0,21.3l-9.9,-0l0,-42.2l9.9,-0l0,6.6l0.2,-0c0.8,-2.2 2.2,-4 4.1,-5.4c1.9,-1.4 4.2,-2.1 6.6,-2Zm4.2,22.4c0,-7 2,-12.5 5.9,-16.6c3.9,-4.1 9.4,-6.1 16.4,-6.1c6.6,-0 11.7,2 15.5,5.9c3.7,3.9 5.6,9.2 5.6,15.9c0,6.8 -2,12.3 -5.9,16.3c-3.9,4 -9.3,6.1 -16.1,6.1c-6.5,-0 -11.7,-1.9 -15.6,-5.8c-3.9,-3.9 -5.8,-9 -5.8,-15.7Zm10.3,-0.3c0,4.4 1,7.8 3,10.1c2,2.3 4.9,3.5 8.6,3.5c3.6,-0 6.4,-1.2 8.2,-3.5c1.9,-2.3 2.8,-5.8 2.8,-10.3c0,-4.5 -1,-8 -2.9,-10.3c-2.1,-2.4 -5.1,-3.6 -8.2,-3.5c-3.2,-0.2 -6.4,1.2 -8.5,3.6c-1.9,2.4 -3,5.8 -3,10.4Zm47.8,-10.3c-0.1,1.3 0.4,2.5 1.4,3.3c1.8,1.3 3.9,2.3 6,3.1c4,1.6 6.8,3.4 8.4,5.4c1.6,2 2.5,4.6 2.4,7.2c0.1,3.7 -1.6,7.3 -4.6,9.6c-3,2.4 -7.2,3.6 -12.4,3.6c-1.9,-0 -3.9,-0.2 -5.8,-0.6c-1.9,-0.3 -3.7,-0.9 -5.4,-1.6l0,-9.8c1.8,1.3 3.8,2.3 5.8,3c1.8,0.7 3.7,1.1 5.7,1.1c1.7,0.1 3.4,-0.2 5,-0.9c1.1,-0.7 1.7,-1.9 1.6,-3.2c0,-1.4 -0.6,-2.6 -1.7,-3.5c-1.9,-1.4 -4.1,-2.5 -6.3,-3.3c-3.7,-1.5 -6.3,-3.3 -7.8,-5.2c-1.6,-2.1 -2.4,-4.7 -2.3,-7.3c-0.1,-3.7 1.6,-7.1 4.5,-9.4c3,-2.5 6.9,-3.7 11.8,-3.7c1.7,-0 3.4,0.2 5,0.5c1.6,0.3 3.1,0.7 4.6,1.3l0,9.4c-1.4,-0.9 -3,-1.7 -4.6,-2.3c-1.7,-0.6 -3.4,-0.9 -5.2,-0.9c-1.6,-0.1 -3.1,0.3 -4.4,1.1c-1.1,0.7 -1.7,1.8 -1.7,3.1Zm22.4,10.6c0,-7 2,-12.5 5.9,-16.6c3.9,-4.1 9.4,-6.1 16.4,-6.2c6.6,-0 11.7,2 15.5,5.9c3.7,3.9 5.6,9.2 5.5,15.9c0,6.8 -2,12.3 -5.9,16.3c-3.9,4 -9.3,6.1 -16.1,6.1c-6.5,-0 -11.7,-1.9 -15.6,-5.8c-3.8,-3.7 -5.7,-9 -5.7,-15.6Zm10.3,-0.3c0,4.4 1,7.8 3,10.1c2,2.3 4.9,3.5 8.6,3.5c3.6,-0 6.4,-1.2 8.3,-3.5c1.9,-2.3 2.8,-5.8 2.8,-10.3c0,-4.5 -1,-8 -2.9,-10.3c-2.1,-2.4 -5.1,-3.6 -8.2,-3.5c-3.2,-0.2 -6.4,1.2 -8.5,3.6c-2.1,2.4 -3.1,5.8 -3.1,10.4Zm66,-13.3l-14.8,-0l0,34.1l-10.1,-0l0,-34.1l-7.1,-0l0,-8.1l7.1,-0l0,-5.9c-0.1,-4.1 1.4,-8 4.3,-10.9c3,-2.9 7,-4.4 11.1,-4.3c1.1,-0 2.1,0.1 3.2,0.2c0.8,0.1 1.7,0.3 2.5,0.6l0,8.6c-0.6,-0.3 -1.1,-0.5 -1.7,-0.7c-0.9,-0.3 -1.9,-0.4 -2.8,-0.4c-1.8,-0.1 -3.6,0.6 -4.8,1.9c-1.2,1.7 -1.8,3.7 -1.7,5.8l0,5.1l14.8,-0l0,-9.5l10,-3l0,12.5l10,-0l0,8.1l-10.1,-0l0,19.7c0,2.6 0.5,4.4 1.4,5.5c1.2,1.2 2.8,1.7 4.5,1.6c0.7,-0 1.4,-0.2 2.1,-0.4c0.7,-0.2 1.4,-0.6 2.1,-1l0,8.2c-1,0.5 -2.1,0.8 -3.1,1c-1.4,0.3 -2.9,0.4 -4.3,0.4c-4.2,-0 -7.3,-1.1 -9.4,-3.3c-2.1,-2.2 -3.1,-5.6 -3.1,-10.1l-0.1,-21.6Z" style="fill:#737373;fill-rule:nonzero;"/><rect x="19.309" y="19.513" width="46.6" height="46.6" style="fill:#f25022;"/><rect x="70.809" y="19.513" width="46.6" height="46.6" style="fill:#7fba00;"/><rect x="19.309" y="70.913" width="46.6" height="46.6" style="fill:#00a4ef;"/><rect x="70.809" y="70.913" width="46.6" height="46.6" style="fill:#ffb900;"/></g></svg>