<?xml version="1.0" encoding="utf-8"?>
<!-- Generator: Adobe Illustrator 24.2.1, SVG Export Plug-In . SVG Version: 6.00 Build 0)  -->
<svg version="1.1" id="Layer_1" xmlns="http://www.w3.org/2000/svg" xmlns:xlink="http://www.w3.org/1999/xlink" x="0px" y="0px"
	 viewBox="0 0 455 203" style="enable-background:new 0 0 455 203;" xml:space="preserve">
<style type="text/css">
	.st0{fill:#231F20;}
</style>
<g>
	<path class="st0" d="M86.7,100.4c-4,9.4-13.2,15.5-23.5,15.5H38.1v-13.4h25.1c3.2,0.1,6.3-1.2,8.5-3.5c4.6-4.7,4.6-12.3,0-17.1
		c-2.2-2.3-5.3-3.5-8.5-3.5h-3.9c-3.5,0-6.9-0.5-10.2-1.6c-3.1-1-6-2.5-8.6-4.5c-5.3-4.2-8.4-10.7-8.2-17.4c-0.1-4,0.7-7.9,2.4-11.5
		c1.5-3.1,3.7-5.7,6.5-7.7c2.9-2,6.1-3.5,9.6-4.4c3.8-0.9,7.6-1.4,11.5-1.4c2,0,4.1,0.1,6.2,0.2c2.1,0.2,4.1,0.4,6.1,0.6
		c1.9,0.2,3.8,0.5,5.5,0.9c1.5,0.3,2.9,0.7,4.4,1.1l-4.4,12.6c-0.9-0.3-1.9-0.5-2.8-0.7c-1.2-0.2-2.7-0.5-4.3-0.7s-3.3-0.4-5.1-0.5
		s-3.7-0.2-5.5-0.2c-2,0-4.1,0.1-6.1,0.4c-1.9,0.3-3.7,0.8-5.3,1.7c-1.5,0.8-2.8,2-3.7,3.5c-1,1.8-1.5,3.9-1.4,6
		c0,1.7,0.4,3.3,1.2,4.7c0.8,1.3,1.8,2.3,3.1,3.1c1.3,0.8,2.8,1.4,4.3,1.8c1.6,0.4,3.3,0.6,4.9,0.6h3.9c14-0.1,25.3,11.1,25.4,25.1
		c0,0.1,0,0.2,0,0.3C88.7,93.9,88,97.3,86.7,100.4z"/>
	<path class="st0" d="M123,45.1v71h-13.5v-71H84.1V31.7H148v13.4H123z"/>
	<path class="st0" d="M212.2,97c-3.4,8.1-9.9,14.5-17.9,17.9c-8.4,3.6-17.9,3.6-26.3,0c-8-3.4-14.5-9.9-17.9-17.9
		c-1.8-4.2-2.7-8.7-2.7-13.2V31.7h13.5v52.2c0,2.7,0.5,5.4,1.6,7.9c2.1,4.9,5.9,8.7,10.8,10.8c2.5,1.1,5.2,1.6,7.9,1.6
		c2.7,0,5.4-0.5,7.8-1.6c2.4-1,4.6-2.5,6.4-4.4c1.9-1.9,3.3-4.1,4.4-6.5c1.1-2.5,1.6-5.2,1.6-7.9V45.1h-10.3V31.7h23.8v52.1
		C214.9,88.3,214,92.8,212.2,97z"/>
	<path class="st0" d="M286.3,91.5c-4.4,10.3-12.5,18.4-22.8,22.8c-5.3,2.3-10.9,3.4-16.7,3.4c-3.7,0.1-7.4-0.4-11-1.5
		c-3.1-1-6.5-2.3-10.3-3.9V45.1h-10.4V31.7h31.7c5.7,0,11.4,1.1,16.7,3.4c10.3,4.4,18.4,12.6,22.8,22.8
		C290.9,68.6,290.9,80.8,286.3,91.5L286.3,91.5z M273.8,63.2c-1.5-3.5-3.6-6.7-6.3-9.4c-2.7-2.7-5.8-4.9-9.3-6.4
		c-3.6-1.6-7.5-2.4-11.5-2.3H239v58.2c2.5,0.7,5.1,1.1,7.8,1.1c3.9,0,7.9-0.8,11.5-2.3c3.5-1.5,6.6-3.7,9.3-6.4
		c2.7-2.7,4.8-5.9,6.3-9.4C276.9,78.9,276.9,70.6,273.8,63.2L273.8,63.2z"/>
	<path class="st0" d="M317.3,116h-14.9l10.8-22.9l-28.7-61.3h14.9l21.3,45.3l21.1-45.3h14.9L317.3,116z"/>
	<path class="st0" d="M406,102.2v13.7h-13.5v-13.7h-50.4L406,28.5v60.3h16.7v13.4L406,102.2z M392.5,63.9L370,88.8h22.5V63.9z"/>
	<path class="st0" d="M34.7,171.1l-0.9-0.9c3.5-4.8,6.4-10.1,8.4-15.7h-7.4v-1.1h7.7c0.7-1.7,1.2-3.5,1.6-5.3l1.2,0.2
		c-0.4,1.7-0.9,3.4-1.5,5.1h10l-1.3,4.9h4.6l-1.2,5h3.6c-0.1,2.6-0.4,5.1-0.7,7.4s-1.2,3.5-2.6,3.5c-1.1-0.1-2.3-0.3-3.4-0.6
		l-0.2-1.3c1.1,0.4,2.3,0.6,3.5,0.7c0.6,0,1.1-0.4,1.2-1c0.3-1.1,0.4-2.2,0.6-3.3c0.2-1.5,0.3-2.9,0.4-4.2H39.1
		C37.8,166.7,36.3,169,34.7,171.1z M37.7,148.5c1.2,1.3,2.4,2.6,3.4,4.1l-0.9,0.8c-1-1.5-2.1-3-3.4-4.3L37.7,148.5z M42,166.6
		c-0.8,2.3-2,4.4-3.4,6.4l-1-0.7c1.4-1.9,2.5-3.9,3.3-6.1L42,166.6z M39.7,163.2h15l0.9-3.9h-14c-0.3,0.6-0.6,1.2-0.9,1.9
		C40.4,161.9,40,162.6,39.7,163.2L39.7,163.2z M52.3,154.5h-8.8c-0.2,0.6-0.4,1.2-0.7,1.9l-0.7,1.9h9.3L52.3,154.5z M45.6,166.4
		c0,0.9,0.1,1.8,0.1,2.7s0,1.9-0.1,3l-1.3-0.1c0.2-1.3,0.2-2.6,0.3-3.9c0-0.6,0-1.2-0.1-1.7L45.6,166.4z M49.2,166.1
		c0.7,1.5,1.3,3.1,1.8,4.7l-1.2,0.5c-0.5-1.6-1-3.2-1.7-4.8L49.2,166.1z M53,165.5c1.1,1.3,2,2.6,2.9,4l-1,0.8
		c-0.8-1.5-1.8-2.9-2.8-4.2L53,165.5z"/>
	<path class="st0" d="M143.5,164.2h-13.9V163h16.2v1.1c-2.5,1.3-5.2,2.4-7.9,3.1l0.3,0.7h12.2v1.1h-12c0.2,0.9,0.3,1.8,0.3,2.7
		c0,1.8-0.8,2.6-2.4,2.6c-1,0-2-0.2-2.9-0.5l-0.1-1.3c1,0.4,2,0.6,3,0.7c0.8,0,1.2-0.5,1.2-1.4c0-1-0.1-1.9-0.3-2.8h-12.6v-1.1h12.3
		c-0.2-0.6-0.5-1.1-0.9-1.6l1-0.6l0.4,0.6C139.5,165.8,141.6,165.1,143.5,164.2z M127.2,150.4c2.1-0.2,4.2-0.8,6.1-1.7l0.6,1
		c-1.7,0.8-3.5,1.4-5.4,1.6l0.1,1.7h5.4v1.1h-5.4l0.1,2.3h5.4v1.1h-5.4l0.1,2.5h17.7l0.1-2.5h-5.1v-1.1h5.2l0.1-2.2h-4.8V153h4.9
		l0.1-2.3h-4.8v-1.1h6.1l-0.5,10.4h1.8v4h-1.2V161h-21.5v2.9h-1.2v-4h2L127.2,150.4z M141,158.6l-0.8,0.8c-1.2-1.3-1.9-1.9-2.2-1.9
		c-0.9,0.8-2,1.5-3.1,2.1l-0.6-1c1-0.5,2-1.1,2.9-1.9c-0.7-0.6-1.5-1.1-2.2-1.6l0.6-0.9c0.9,0.5,1.7,1.1,2.4,1.7
		c0.7-0.6,1.4-1.3,2-2.1l0.9,0.7c-0.6,0.8-1.3,1.5-2,2.1C139.7,157.3,140.3,158,141,158.6L141,158.6z M141,153l-0.8,0.8
		c-1.1-1.3-1.8-1.9-2-1.9c-1,0.8-2,1.5-3.1,2.1l-0.6-1c1-0.5,2-1.1,2.9-1.9c-1-0.8-1.8-1.4-2.4-1.8l0.7-0.9c0.7,0.5,1.6,1.1,2.6,1.9
		c0.8-0.7,1.5-1.5,2.2-2.3l0.9,0.7c-0.6,0.9-1.4,1.7-2.2,2.4C140,152.1,140.6,152.7,141,153L141,153z"/>
	<path class="st0" d="M224.6,157c-2.5,1.5-5.2,2.6-8,3.5l-0.5-1.2c2.8-0.8,5.5-1.9,8.1-3.3L224.6,157z M216.4,149.4H227v10.7h-1.2
		v-9.6h-9.4L216.4,149.4z M218.3,151.7c1.8,0.7,3.6,1.6,5.3,2.5l-0.6,1.1c-1.7-1-3.5-1.8-5.3-2.6L218.3,151.7z M236.9,162.7v11.8
		h-1.2v-1.7H221v1.7h-1.2v-11.8h5.3c1.2-0.8,2.3-1.7,3.2-2.8l1.1,0.7c-0.7,0.8-1.5,1.6-2.3,2.2L236.9,162.7z M235.6,163.8H221v3.4
		h14.7V163.8z M221,171.8h14.7v-3.5H221V171.8z M228.4,149.4h10.7v11.2h-1.2v-10.1h-9.5L228.4,149.4z M236.9,156.9
		c-2.4,1.2-4.9,2.2-7.6,2.9l-0.5-1.2c2.7-0.6,5.2-1.6,7.7-2.8L236.9,156.9z M230.4,151.7c1.8,0.7,3.6,1.6,5.3,2.5l-0.6,1.1
		c-1.7-0.9-3.4-1.8-5.2-2.6L230.4,151.7z"/>
	<path class="st0" d="M317.1,156.2h12v15.6c0,1.6-0.8,2.3-2.4,2.3c-0.9,0-1.8-0.2-2.6-0.4l-0.2-1.3c0.9,0.3,1.9,0.4,2.9,0.5
		c0.7,0,1.1-0.4,1.1-1.1v-14.3h-5.3v14h-1.3v-14h-5.3v15.2h-1.3v-15.2h-5.3v17.1H308v-18.3h7.5c0.9-1.5,1.6-3.2,2-4.9h-12v-1.2h26
		v1.2H319C318.6,153,318,154.7,317.1,156.2z"/>
	<path class="st0" d="M400.8,155.9c-1.2,2.4-2.7,4.6-4.4,6.5l-1.1-0.8c1.5-1.7,2.7-3.5,3.7-5.5c1.2-2.1,2.2-4.4,2.8-6.8l1.4,0.4
		c-0.5,1.7-1.1,3.3-1.8,4.9h6.8v-6.5h1.5v6.5h9.8v1.3h-9.8v6.6h8.1v1.3h-8.1v7.8h11.6v1.3h-26.1v-1.3h13v-7.8h-8.6v-1.3h8.6v-6.6
		H400.8z"/>
</g>
</svg>
