<?xml version="1.0" encoding="utf-8"?>
<!-- Generator: Adobe Illustrator 25.1.0, SVG Export Plug-In . SVG Version: 6.00 Build 0)  -->
<svg version="1.1" id="Layer_1" xmlns:serif="http://www.serif.com/"
	 xmlns="http://www.w3.org/2000/svg" xmlns:xlink="http://www.w3.org/1999/xlink" x="0px" y="0px" viewBox="0 0 1920 1080"
	 style="enable-background:new 0 0 1920 1080;" xml:space="preserve">
<style type="text/css">
	.st0{fill-rule:evenodd;clip-rule:evenodd;fill:url(#SVGID_1_);}
	.st1{fill:#FFFFFF;}
</style>
<linearGradient id="SVGID_1_" gradientUnits="userSpaceOnUse" x1="-2723.1597" y1="2295.8906" x2="-2722.1597" y2="2295.8906" gradientTransform="matrix(1705.7111 691.0618 -691.0618 1705.7111 6231705.5 -2034030.375)">
	<stop  offset="0" style="stop-color:#9999FF"/>
	<stop  offset="0.59" style="stop-color:#5050B6"/>
	<stop  offset="0.84" style="stop-color:#3B3BA1"/>
	<stop  offset="1" style="stop-color:#333399"/>
</linearGradient>
<rect x="150" y="0" class="st0" width="1620" height="1080"/>
<g>
	<g>
		<path class="st1" d="M318,641.3c-19.2,0-33.3,14.7-33.3,34.8s13.8,34.8,32.8,34.8c19.7,0,33.3-14.3,33.3-34.8
			S337.5,641.3,318,641.3z"/>
		<path class="st1" d="M589.6,518c0,36.9,0.4,69.8,2.8,103.9c-13-25.5-27.9-51.6-45.4-79.3L444.8,381.5h-52.5v324.4h49V566.4
			c0-42.6-0.6-75.2-2.2-106.9c12.5,24.6,28.5,52.1,48.8,84.7L589,706h49.5V381h-49v137H589.6z"/>
		<path class="st1" d="M749.8,558.6h122v-44.3h-122v-88.1h129V381H698.6v324.9h187.1v-45.1H749.8V558.6z"/>
		<path class="st1" d="M899.1,381v45.4h95.5v279.5h51.8V426.4h95.9V381H899.1z"/>
	</g>
	<g>
		<path class="st1" d="M1326.6,517.1c-6.7,3.5-20.3,6.7-37.6,6.7c-40.2,0-70.4-25.5-70.4-72.1c0-44.7,30.2-75,74.5-75
			c17.7,0,28.9,3.9,33.9,6.3l-4.5,15.1c-6.9-3.5-16.8-5.8-28.7-5.8c-33.5,0-55.7,21.4-55.7,58.8c0,35,20.1,57.5,54.9,57.5
			c11.2,0,22.7-2.4,30-5.8L1326.6,517.1z"/>
		<path class="st1" d="M1439.3,469.6c0,37.8-26.4,54.4-51,54.4c-27.6,0-49-20.3-49-52.7c0-34.3,22.5-54.4,50.8-54.4
			C1419.4,417.1,1439.3,438.3,1439.3,469.6z M1358.1,470.7c0,22.5,13,39.3,31.1,39.3c17.7,0,31.1-16.6,31.1-39.7
			c0-17.3-8.6-39.3-30.7-39.3C1367.6,431.1,1358.1,451.2,1358.1,470.7z"/>
		<path class="st1" d="M1462.8,446.9c0-10.6-0.2-19.2-0.9-27.6h16.4l1.1,16.8h0.4c5.2-9.7,16.8-19.2,33.9-19.2
			c14.3,0,36.3,8.4,36.3,43.6v61.1h-18.6v-59c0-16.4-6-30.2-23.8-30.2c-12.3,0-21.8,8.6-25.1,19c-0.9,2.4-1.3,5.4-1.3,8.6v61.6
			h-18.6v-74.7H1462.8z"/>
		<path class="st1" d="M1582.3,521.9v-88.1h-14.5v-14.3h14.5v-5c0-14.5,3.2-27.4,11.9-35.9c6.9-6.7,16.2-9.5,25.1-9.5
			c6.5,0,12.3,1.5,16,3l-2.6,14.5c-2.8-1.3-6.5-2.4-11.9-2.4c-16,0-19.9,14-19.9,29.6v5.4h24.8v14.3h-24.8v88.3L1582.3,521.9
			L1582.3,521.9z"/>
	</g>
</g>
<g>
	<path class="st1" d="M1256.9,676.3c27.6-27.8,47.1-49.6,47.1-77c0-21.1-13.2-42.4-42.6-42.4c-14.5,0-28.4,5.2-39.1,14.7l-0.6,0.5
		l6.7,15.6l1-0.9c6.2-5.4,16.1-11.8,28.2-11.8c22.6,0,25.9,16.7,25.9,26.7c-0.2,21.4-16.2,39.7-50.2,73.5l-14.7,15v13.3h88.7v-18.1
		h-59.9L1256.9,676.3z"/>
	<path class="st1" d="M1372.1,556.9c-29.8,0-48.2,28.7-48.2,74.9c0.2,22.9,4.6,41.8,12.8,54.7c8,12.7,19.5,19.4,33.1,19.4
		c15.4,0,27.4-6.7,35.7-19.8c8.3-13.1,12.5-32,12.5-56.2C1418,583.5,1401.3,556.9,1372.1,556.9z M1397.6,630.7
		c0,37.5-9.5,58.2-26.8,58.2c-16.4,0-26.6-21.8-26.6-56.8c0-35.9,10.3-58.2,26.8-58.2C1388.2,573.9,1397.6,594.1,1397.6,630.7z"/>
	<path class="st1" d="M1471.2,676.3c27.6-27.8,47.1-49.6,47.1-77c0-21.1-13.2-42.4-42.6-42.4c-14.5,0-28.4,5.2-39.1,14.7l-0.6,0.5
		l6.7,15.6l1-0.9c5-4.4,15.4-11.8,28.2-11.8c22.6,0,25.9,16.7,25.9,26.7c-0.2,21.4-16.2,39.7-50.2,73.5l-14.7,15v13.3h88.7v-18.1
		h-59.9L1471.2,676.3z"/>
	<path class="st1" d="M1616.3,647.6v-88.3h-21.4l-61.1,91.4v14.1h63.1v38.7h19.4v-38.7h19v-17.2H1616.3z M1555.1,647.6l32.4-47.1
		c3.7-6.4,6.6-11.8,9.8-18.1c-0.3,6.3-0.4,12.6-0.4,18.9v46.4H1555.1z"/>
</g>
</svg>
