<?xml version="1.0" encoding="utf-8"?>
<!-- Generator: Adobe Illustrator 24.2.1, SVG Export Plug-In . SVG Version: 6.00 Build 0)  -->
<svg version="1.1" id="Layer_1" xmlns="http://www.w3.org/2000/svg" xmlns:xlink="http://www.w3.org/1999/xlink" x="0px" y="0px"
	 viewBox="0 0 512 512" style="enable-background:new 0 0 512 512;" xml:space="preserve">
<style type="text/css">
	.st0{fill:#F3EAE6;}
	.st1{fill:#A7EEDC;}
	.st2{fill:#86E8D0;}
	.st3{fill:#5DE1C4;}
</style>
<g id="_x30_22---Surgical-Mask">
	<path id="Shape" class="st0" d="M102.2,324.3c-22-0.2-43.4-7.3-61.3-20.2c-24.9-16.4-40.2-43.9-41-73.7v-42.7
		c0-18.9,15.3-34.1,34.1-34.1h51.2c4.7,0,8.5,3.8,8.5,8.5c0,4.7-3.8,8.5-8.5,8.5H34.1c-9.4,0-17.1,7.6-17.1,17.1v42.7
		c0.8,24.3,13.5,46.6,33.8,59.8c21.7,16.3,49.9,21.1,75.7,13c2.9-1.1,6.2-0.6,8.6,1.5c2.4,2,3.5,5.2,2.9,8.2
		c-0.6,3.1-2.8,5.5-5.8,6.5C122.6,322.7,112.4,324.4,102.2,324.3z"/>
	<path id="Shape_1_" class="st0" d="M409.8,324.4c-16.1,0.1-31.9-4.2-45.7-12.3c-4.1-2.4-5.4-7.6-3-11.7c2.4-4.1,7.6-5.4,11.7-3
		c25.2,13.9,56,13.1,80.5-2.1c24.4-12.7,40.3-37.4,41.7-64.8v-42.7c0-9.4-7.6-17.1-17.1-17.1h-51.2c-4.7,0-8.5-3.8-8.5-8.5
		c0-4.7,3.8-8.5,8.5-8.5h51.2c18.9,0,34.1,15.3,34.1,34.1v42.7c-1.4,33.6-20.5,64-50.3,79.7C445.9,319.3,428,324.2,409.8,324.4
		L409.8,324.4z"/>
	<path id="Shape_2_" class="st1" d="M426.7,162.1V256c0.7,90.9-67.1,167.8-157.4,178.4c-8.8,1-17.7,1-26.5,0
		C152.5,423.8,84.6,346.9,85.3,256v-93.9l34.1-0.1c43.2-0.9,83.7-21.4,110.1-55.6c6.4-8,16.1-12.6,26.4-12.6
		c10.3,0,20,4.6,26.4,12.5c26.4,34.2,66.9,54.7,110.2,55.6L426.7,162.1z"/>
	<path id="Shape_3_" class="st2" d="M426.7,162.1v17.1l-34.1-0.1c-43.2-1-83.7-21.4-110.2-55.6c-6.5-8-16.2-12.6-26.4-12.5
		c-10.3,0-19.9,4.7-26.4,12.6c-26.4,34.2-66.9,54.6-110.1,55.6l-34.1,0.1v-17.1c0-9.4,7.7-17,17.1-17.1h12.9
		c34.3-0.4,66.5-16.2,87.8-43.1C216,86,235.5,76.8,256,76.8c20.5,0,40,9.2,52.9,25.2c21.3,26.9,53.5,42.7,87.8,43.1h12.9
		C419,145.1,426.6,152.7,426.7,162.1L426.7,162.1z"/>
	<g>
		<path id="Shape_4_" class="st3" d="M256,298.6c-38.5,0-76.8-5.9-113.5-17.3c-2.9-0.9-5.1-3.3-5.8-6.3c-0.7-3,0.3-6.1,2.5-8.1
			c2.2-2.1,5.4-2.8,8.3-1.9c70.6,22.1,146.2,22.1,216.8,0c2.9-0.9,6.1-0.2,8.3,1.9c2.2,2.1,3.2,5.2,2.5,8.1c-0.7,3-2.9,5.4-5.8,6.3
			C332.7,292.7,294.5,298.5,256,298.6L256,298.6z"/>
		<path id="Shape_5_" class="st3" d="M256,238.9c-37.6,0-75.1-2.8-112.2-8.6c-4.6-0.8-7.7-5.1-7-9.7s5-7.8,9.6-7.1
			c72.7,11.2,146.6,11.2,219.2,0c3-0.5,6.1,0.7,8,3c1.9,2.4,2.4,5.6,1.3,8.5c-1.1,2.9-3.7,4.9-6.7,5.3
			C331.1,236,293.6,238.9,256,238.9z"/>
		<path id="Shape_6_" class="st3" d="M256,367c-39.7-0.1-78.9-9.2-114.6-26.5c-3-1.2-5-3.9-5.3-7.1c-0.3-3.2,1.2-6.2,3.8-8
			c2.7-1.7,6.1-1.9,8.8-0.3c67.7,33.1,146.8,33.1,214.5,0c2.8-1.6,6.2-1.4,8.8,0.3c2.7,1.7,4.1,4.8,3.8,8c-0.3,3.2-2.4,5.9-5.3,7.1
			C334.9,357.8,295.7,366.9,256,367L256,367z"/>
	</g>
</g>
</svg>
