<?xml version="1.0" encoding="utf-8"?>
<!-- Generator: Adobe Illustrator 25.1.0, SVG Export Plug-In . SVG Version: 6.00 Build 0)  -->
<svg version="1.1" id="Layer_1" xmlns="http://www.w3.org/2000/svg" xmlns:xlink="http://www.w3.org/1999/xlink" x="0px" y="0px"
	 viewBox="0 0 744 293" style="enable-background:new 0 0 744 293;" xml:space="preserve">
<style type="text/css">
	.st0{fill:url(#SVGID_1_);}
	.st1{fill:#FFFFFF;}
</style>
<linearGradient id="SVGID_1_" gradientUnits="userSpaceOnUse" x1="44.8587" y1="5389.2515" x2="760.0419" y2="5679.0049" gradientTransform="matrix(1 0 0 1 0 -5375.2915)">
	<stop  offset="0" style="stop-color:#9999FF"/>
	<stop  offset="0.2824" style="stop-color:#7373D9"/>
	<stop  offset="0.5862" style="stop-color:#5050B6"/>
	<stop  offset="0.8364" style="stop-color:#3B3BA1"/>
	<stop  offset="1" style="stop-color:#333399"/>
</linearGradient>
<rect y="0" class="st0" width="744" height="293"/>
<g>
	<g>
		<path class="st1" d="M73.6,194.7c-8.9,0-15.4,6.8-15.4,16.1s6.4,16.1,15.2,16.1c9.1,0,15.4-6.6,15.4-16.1S82.6,194.7,73.6,194.7z"
			/>
		<path class="st1" d="M199.3,137.5c0,17.1,0.2,32.3,1.3,48.1c-6-11.8-12.9-23.9-21-36.7l-47.3-74.6H108v150.2h22.7v-64.6
			c0-19.7-0.3-34.8-1-49.5c5.8,11.4,13.2,24.1,22.6,39.2l46.8,74.9H222V74.2h-22.7V137.5z"/>
		<polygon class="st1" points="273.5,156.4 330,156.4 330,135.9 273.5,135.9 273.5,95 333.2,95 333.2,74.2 249.8,74.2 249.8,224.5 
			336.4,224.5 336.4,203.7 273.5,203.7 		"/>
		<polygon class="st1" points="342.6,74.2 342.6,95.2 386.8,95.2 386.8,224.5 410.8,224.5 410.8,95.2 455.2,95.2 455.2,74.2 		"/>
	</g>
	<g>
		<path class="st1" d="M540.5,137.2c-3.1,1.6-9.4,3.1-17.4,3.1c-18.6,0-32.6-11.8-32.6-33.4c0-20.7,14-34.7,34.5-34.7
			c8.2,0,13.4,1.8,15.7,2.9l-2.1,7c-3.2-1.6-7.8-2.7-13.3-2.7c-15.5,0-25.8,9.9-25.8,27.2c0,16.2,9.3,26.6,25.4,26.6
			c5.2,0,10.5-1.1,13.9-2.7L540.5,137.2z"/>
		<path class="st1" d="M592.7,115.2c0,17.5-12.2,25.2-23.6,25.2c-12.8,0-22.7-9.4-22.7-24.4c0-15.9,10.4-25.2,23.5-25.2
			C583.5,90.8,592.7,100.7,592.7,115.2z M555.1,115.7c0,10.4,6,18.2,14.4,18.2c8.2,0,14.4-7.7,14.4-18.4c0-8-4-18.2-14.2-18.2
			C559.5,97.3,555.1,106.7,555.1,115.7z"/>
		<path class="st1" d="M603.6,104.7c0-4.9-0.1-8.9-0.4-12.8h7.6l0.5,7.8h0.2c2.4-4.5,7.8-8.9,15.7-8.9c6.6,0,16.8,3.9,16.8,20.2
			v28.3h-8.6V112c0-7.6-2.8-14-11-14c-5.7,0-10.1,4-11.6,8.8c-0.4,1.1-0.6,2.5-0.6,4v28.5h-8.6L603.6,104.7L603.6,104.7z"/>
		<path class="st1" d="M658.9,139.3V98.5h-6.7v-6.6h6.7v-2.3c0-6.7,1.5-12.7,5.5-16.6c3.2-3.1,7.5-4.4,11.6-4.4c3,0,5.7,0.7,7.4,1.4
			l-1.2,6.7c-1.3-0.6-3-1.1-5.5-1.1c-7.4,0-9.2,6.5-9.2,13.7v2.5H679v6.6h-11.5v40.9L658.9,139.3L658.9,139.3z"/>
	</g>
</g>
<g>
	<path class="st1" d="M509.7,214c12.6-12.7,21.5-22.6,21.5-35.1c0-9.6-6-19.3-19.4-19.3c-6.6,0-12.9,2.4-17.8,6.7l-0.3,0.2l3.1,7.1
		l0.5-0.4c2.8-2.4,7.3-5.4,12.9-5.4c10.3,0,11.8,7.6,11.8,12.2c-0.1,9.8-7.4,18.1-22.9,33.6l-6.7,6.8v6.1h40.5v-8.3h-27.3L509.7,214
		z"/>
	<path class="st1" d="M562.2,159.5c-13.6,0-22,13.1-22,34.2c0.1,10.4,2.1,19.1,5.9,25c3.7,5.8,8.9,8.8,15.1,8.8c7,0,12.5-3,16.3-9.1
		c3.8-6,5.7-14.6,5.7-25.6C583.2,171.6,575.6,159.5,562.2,159.5z M573.9,193.2c0,17.1-4.3,26.5-12.2,26.5c-7.5,0-12.1-9.9-12.1-25.9
		c0-16.4,4.7-26.5,12.2-26.5C569.6,167.3,573.9,176.5,573.9,193.2z"/>
	<path class="st1" d="M607.4,214c12.6-12.7,21.5-22.6,21.5-35.1c0-9.6-6-19.3-19.4-19.3c-6.6,0-12.9,2.4-17.8,6.7l-0.3,0.2l3.1,7.1
		l0.5-0.4c2.3-2,7-5.4,12.9-5.4c10.3,0,11.8,7.6,11.8,12.2c-0.1,9.8-7.4,18.1-22.9,33.6l-6.7,6.8v6.1h40.5v-8.3h-27.3L607.4,214z"/>
	<path class="st1" d="M673.6,200.9v-40.3h-9.8L636,202.3v6.4h28.8v17.6h8.8v-17.6h8.7v-7.9H673.6z M645.7,200.9l14.8-21.5
		c1.7-2.9,3-5.4,4.5-8.3c-0.1,2.9-0.2,5.8-0.2,8.6v21.1H645.7z"/>
</g>
</svg>
