<?xml version="1.0" encoding="utf-8"?>
<!-- Generator: Adobe Illustrator 24.2.1, SVG Export Plug-In . SVG Version: 6.00 Build 0)  -->
<svg version="1.1" id="Layer_1" xmlns="http://www.w3.org/2000/svg" xmlns:xlink="http://www.w3.org/1999/xlink" x="0px" y="0px"
	 viewBox="0 0 580 361.5" style="enable-background:new 0 0 580 361.5;" xml:space="preserve">
<style type="text/css">
	.st0{fill:#797673;}
	.st1{fill:#A5B9D1;}
	.st2{fill:#9078E4;}
	.st3{fill:#A08BE8;}
	.st4{fill:#8065E0;}
	.st5{fill:#512BD4;}
	.st6{fill:#C7E0F4;}
	.st7{fill:url(#SVGID_1_);}
	.st8{fill:url(#SVGID_2_);}
	.st9{fill:url(#SVGID_3_);}
	.st10{fill:#A7CBF6;}
	.st11{fill:#FFD590;}
	.st12{fill:#D0C5F3;}
	.st13{fill:url(#SVGID_4_);}
	.st14{fill:url(#SVGID_5_);}
	.st15{fill:url(#SVGID_6_);}
	.st16{fill:url(#SVGID_7_);}
	.st17{fill:url(#SVGID_8_);}
	.st18{fill:#FFFFFF;}
	.st19{fill:url(#SVGID_9_);}
	.st20{fill:#605D5A;}
	.st21{fill:#FAE969;}
	.st22{fill:#E8D441;}
	.st23{fill:url(#SVGID_10_);}
	.st24{fill:#927BE5;}
	.st25{fill:#737373;}
	.st26{fill:url(#SVGID_11_);}
	.st27{fill:#B7B5B4;}
	.st28{fill:url(#SVGID_12_);}
	.st29{fill:url(#SVGID_13_);}
	.st30{fill:#F7B548;}
	.st31{fill:#E64C3C;}
	.st32{fill:#84B5CB;}
	.st33{fill:#3B97D3;}
	.st34{fill:#2980BA;}
</style>
<path class="st0" d="M306.6,218.2h-5.9v54.3h5.9V218.2z"/>
<path class="st1" d="M268.5,359.9l26.8-127.8l-4.1-0.9l-27,128.7H268.5z"/>
<path class="st1" d="M337.8,359.9L311,232.1l4.1-0.9l27,128.7H337.8z"/>
<path class="st1" d="M321.4,359.9l-19.8-127.8l4.1-0.9l20,128.7H321.4z"/>
<path class="st0" d="M316.6,235.5h-26.6l1.9-9.1h22.9L316.6,235.5z"/>
<path class="st2" d="M431.4,129.5l-7.1,2.4l33.6,100.4l7.1-2.4L431.4,129.5z"/>
<path class="st0" d="M439,301.7c0.1-3.6-0.3-12.7-5.9-20.9c-6.3-9.2-16.6-14.1-30.8-14.4l-0.2,7.2c11.7,0.3,20.1,4.1,25,11.3
	c4.4,6.5,4.7,13.8,4.6,16.7L439,301.7z"/>
<path class="st3" d="M417.3,304.7c-0.7,0-1.4,0.4-1.8,1l-6.8,11c-0.6,1-0.3,2.3,0.7,2.9c1,0.6,2.3,0.3,2.9-0.7l6.8-11
	c0.6-1,0.3-2.3-0.7-2.9C418,304.8,417.6,304.7,417.3,304.7z"/>
<path class="st3" d="M431.2,311c3.3,3.7,3.3,12.4,2.9,13.8c-0.5,1.4,1.5,3.8,5.1-0.5c2.8-3.3,5.9-10.3-1.3-15.9
	C435.2,306.4,431.2,311,431.2,311z"/>
<path class="st4" d="M440.4,310h-9.3c-2,0-3.6-1.6-3.6-3.6v-10.3c0-2,1.6-3.6,3.6-3.6h9.3c2,0,3.6,1.6,3.6,3.6v10.3
	C444,308.4,442.4,310,440.4,310z"/>
<path class="st0" d="M314.7,249.3c0.8,3.5,3.4,12.3,10.8,18.9c8.3,7.4,19.6,9.6,33.4,6.4l-1.6-7c-11.4,2.6-20.5,1-27-4.8
	c-5.8-5.2-8-12.3-8.6-15.1L314.7,249.3z"/>
<path class="st3" d="M320,238.4c-4.1-2.8-6.3-11.2-6.2-12.7c0.1-1.5-2.4-3.3-4.9,1.7c-1.9,3.9-3.2,11.4,5.2,15.1
	C317.2,243.9,320,238.4,320,238.4z"/>
<path class="st5" d="M408.6,103.8c-0.5,0.5-0.8,1.3-0.5,1.9l3,7.9c0,0.1,0.1,0.2,0.2,0.3l6.6,9.3c0.5,0.7,1.5,0.8,2.3,0.2
	c0.8-0.6,1-1.6,0.5-2.3l-6.5-9.2l-3-7.7c-0.3-0.8-1.3-1.2-2.2-0.7C408.9,103.6,408.8,103.7,408.6,103.8z"/>
<path class="st5" d="M414.9,101.5c-0.5,0.4-0.7,1.1-0.6,1.7l2.4,9.6c0,0.1,0.1,0.2,0.1,0.3l4.5,9c0.4,0.8,1.4,1,2.2,0.5
	c0.8-0.5,1.2-1.5,0.8-2.3l-4.4-8.8l-2.3-9.4c-0.2-0.9-1.1-1.3-2-1C415.3,101.2,415,101.4,414.9,101.5z"/>
<path class="st1" d="M319.1,236.5c-0.7,0-1.5-0.4-1.8-1.1l-8.7-15.9c-0.6-1-0.2-2.3,0.8-2.9c1-0.6,2.3-0.2,2.9,0.8l8.7,15.9
	c0.6,1,0.2,2.3-0.8,2.9C319.8,236.5,319.4,236.5,319.1,236.5z"/>
<path class="st3" d="M317.3,245.5c0.7-0.2,1.3-0.7,1.5-1.4l3.9-12.3c0.3-1.1-0.3-2.3-1.4-2.6c-1.1-0.3-2.3,0.3-2.6,1.4l-3.9,12.3
	c-0.3,1.1,0.3,2.3,1.4,2.6C316.6,245.6,316.9,245.6,317.3,245.5z"/>
<path class="st4" d="M311.3,241.6l9-2.3c1.9-0.5,3.9,0.7,4.4,2.6l2.5,10c0.5,1.9-0.7,3.9-2.6,4.4l-9,2.3c-1.9,0.5-3.9-0.7-4.4-2.6
	l-2.5-10C308.2,244.1,309.4,242.1,311.3,241.6z"/>
<path class="st0" d="M335.4,348.6l2.4,11.2h4.3l-2.4-11.2H335.4z"/>
<path class="st0" d="M319.7,348.6l1.7,11.2h4.3l-1.8-11.2H319.7z"/>
<path class="st0" d="M266.6,348.6l-2.4,11.2h4.3l2.4-11.2H266.6z"/>
<path class="st1" d="M335.1,206.4h-7.8v-2.2c0-1.1-0.7-2-1.7-2.4l-8.2-3.1c-0.3-0.1-0.6-0.2-0.9-0.2h-3.4l-1.5-2.8h9.9
	c1.2,0,2.2-1,2.2-2.2v-0.6c0-1.2-1-2.2-2.2-2.2h-38.9c-1.2,0-2.2,1-2.2,2.2v0.6c0,1.2,1,2.2,2.2,2.2h9.9l-1.5,2.8h-5
	c-1.4,0-2.5,1.1-2.5,2.6v3.7h-5.6v8.4h5.6v4.3c0,1.4,1.1,2.6,2.5,2.6h38.8c1.4,0,2.5-1.1,2.5-2.6v-2.7h7.8c1.3,0,2.3-1,2.3-2.3v-3.7
	C337.4,207.5,336.4,206.4,335.1,206.4z"/>
<path class="st0" d="M266.2,215.7H278c1.1,0,2-0.9,2-2v-8.9c0-1.1-0.9-2-2-2h-11.9c-1.1,0-2,0.9-2,2v8.9
	C264.1,214.8,265,215.7,266.2,215.7z"/>
<path class="st6" d="M317.8,208.6h-16.5v4.7h16.5V208.6z"/>
<path class="st2" d="M504.6,295.8h-11v44.4h7.5L504.6,295.8z"/>
<path class="st2" d="M486.9,295.8h-11l3.5,44.4h7.5V295.8z"/>
<path class="st5" d="M490.7,311.6c16.4,0,29.7-13.3,29.7-29.7s-13.3-29.7-29.7-29.7S461,265.4,461,281.8S474.3,311.6,490.7,311.6z"
	/>
<path class="st4" d="M454.6,263.7h72.2l2.4-21.4h-76.9L454.6,263.7z"/>
<path class="st5" d="M460.8,261.9h15.4v-15.4h-15.4V261.9z"/>
<radialGradient id="SVGID_1_" cx="-298.6074" cy="521.0348" r="1" gradientTransform="matrix(29.7328 0 0 -29.7493 9351.4561 15698.8594)" gradientUnits="userSpaceOnUse">
	<stop  offset="0.3472" style="stop-color:#A08BE8"/>
	<stop  offset="0.684" style="stop-color:#8065E0"/>
	<stop  offset="0.8157" style="stop-color:#8065E0"/>
</radialGradient>
<path class="st7" d="M490.7,234.3c16.4,0,29.7-13.3,29.7-29.7s-13.3-29.8-29.7-29.8S461,188.1,461,204.6S474.3,234.3,490.7,234.3z"
	/>
<radialGradient id="SVGID_2_" cx="-304.7179" cy="524.2761" r="1" gradientTransform="matrix(72.1604 0 0 -72.2004 22542.3516 38084.7031)" gradientUnits="userSpaceOnUse">
	<stop  offset="0.1096" style="stop-color:#BF8F68"/>
	<stop  offset="0.761" style="stop-color:#F7B548"/>
</radialGradient>
<path class="st8" d="M446.8,242.2l-3-26.7c-0.4-3.2,2.1-6,5.3-6h82.3c3.2,0,5.7,2.8,5.3,6l-3,26.7c-0.3,2.7-2.6,4.8-5.3,4.8h-76.2
	C449.4,246.9,447.1,244.9,446.8,242.2z"/>
<radialGradient id="SVGID_3_" cx="-303.9685" cy="523.8786" r="1" gradientTransform="matrix(61.4136 0 0 -61.4476 19214.3496 32482.4297)" gradientUnits="userSpaceOnUse">
	<stop  offset="0.1096" style="stop-color:#BF8F68"/>
	<stop  offset="0.761" style="stop-color:#F7B548"/>
</radialGradient>
<path class="st9" d="M454.9,260.7h70.6c3.2,0,5.7,2.8,5.3,6l-3.1,27.4c-0.8,1.9-2.7,3.1-4.9,3.1h-65.2c-2.3,0-4.3-1.5-5-3.5l-3.1-27
	C449.2,263.5,451.7,260.7,454.9,260.7z"/>
<path class="st5" d="M488.9,187.8h-22.4c-2.4,3.5-4,7.5-4.8,11.8h27.2c2.4,0,4.3-1.9,4.3-4.3v-3.1
	C493.3,189.7,491.3,187.8,488.9,187.8z"/>
<path class="st10" d="M483.7,198.1c2.5,0,4.5-2,4.5-4.5c0-2.5-2-4.5-4.5-4.5c-2.5,0-4.5,2-4.5,4.5
	C479.2,196.1,481.2,198.1,483.7,198.1z"/>
<path class="st10" d="M470.5,198.1c2.5,0,4.5-2,4.5-4.5c0-2.5-2-4.5-4.5-4.5c-2.5,0-4.5,2-4.5,4.5C466,196.1,468,198.1,470.5,198.1z
	"/>
<path class="st5" d="M484.7,360.8h-18c-1.4,0-2.5-1.3-2.2-2.6c1.9-10.2,9.7-18.2,19.7-20.6c1.4-0.3,2.7,0.7,2.7,2.2v18.8
	C486.9,359.8,485.9,360.8,484.7,360.8z"/>
<path class="st5" d="M498.5,337.6c-10,2.4-17.7,10.4-19.7,20.6c-0.3,1.4,0.8,2.6,2.2,2.6h18c1.2,0,2.2-1,2.2-2.2v-18.8
	C501.2,338.3,499.9,337.3,498.5,337.6z"/>
<path class="st5" d="M517.5,229.8c6.1,0,11-4.9,11-11s-4.9-11-11-11c-6.1,0-11,4.9-11,11S511.5,229.8,517.5,229.8z"/>
<path class="st11" d="M466.2,260.7h-11.3c-3.2,0-5.7,2.8-5.3,6l3.1,27c0.7,2.1,2.7,3.5,5,3.5H469L466.2,260.7z"/>
<path class="st11" d="M462.3,209.4h-13.2c-3.2,0-5.7,2.8-5.3,6l3,26.7c0.3,2.7,2.6,4.8,5.3,4.8h13L462.3,209.4z"/>
<path class="st12" d="M102.3,345.1l20.6,0.1c0,0,4.8,3.2,6.1,5.5c1,1.8,0.9,5.8,0.8,7.5c0,0.5-0.4,0.9-0.9,0.9l-19.9,0
	c-0.6,0-1.2-0.5-1.1-1.2c0-2.2-0.4-6.9-1.2-8.2C105.4,347.7,102.3,345.1,102.3,345.1z"/>
<path class="st4" d="M96,321.2c-3.8,13.3-2.2,34.3-2.1,35.5c0.2,1.5,0.4,2.6,2.6,2.6c2.7,0,14.5,0,14.5,0l-6.2-37.2L96,321.2z"/>
<path class="st3" d="M108.1,323.3c0.9,6.5,7.4,15.7,19.7,25.3c1.4,1.1,2.2,2.3,2.2,4v5.3c0,0.8-0.6,1.4-1.4,1.4h-19.8
	c-0.6,0-1-0.5-1-1v-6.2c0-1.9-0.4-2.9-2.4-4.3c-4.9-3.5-8-15.5-8.1-23.9C97.3,315.4,108.1,323.3,108.1,323.3z"/>
<path class="st12" d="M129.9,351.2c0.1,0.4,0.2,0.8,0.2,1.3v5.3c0,0.8-0.6,1.4-1.4,1.4h-19.8c-0.6,0-1-0.5-1-1v-6.2
	c0-0.3,0-0.6,0-0.9L129.9,351.2L129.9,351.2z"/>
<path class="st12" d="M77.8,345.1l20.6,0.1c0,0,4.8,3.2,6.1,5.5c1,1.8,0.9,5.8,0.8,7.5c0,0.5-0.4,0.9-0.9,0.9l-19.9,0
	c-0.6,0-1.2-0.5-1.1-1.2c0-2.2-0.4-6.9-1.2-8.2C81,347.7,77.8,345.1,77.8,345.1z"/>
<path class="st4" d="M71.6,321.2c-3.8,13.3-2.2,34.3-2.1,35.5c0.2,1.5,0.4,2.6,2.6,2.6c2.7,0,14.5,0,14.5,0l-6.2-37.2L71.6,321.2z"
	/>
<path class="st3" d="M83.7,323.3c0.9,6.5,7.4,15.7,19.7,25.3c1.4,1.1,2.2,2.3,2.2,4v5.3c0,0.8-0.6,1.4-1.4,1.4H84.4
	c-0.6,0-1-0.5-1-1v-6.2c0-1.9-0.4-2.9-2.4-4.3c-4.9-3.5-8-15.5-8.1-23.9C72.8,315.4,83.7,323.3,83.7,323.3z"/>
<path class="st12" d="M105.4,351.2c0.1,0.4,0.2,0.8,0.2,1.3v5.3c0,0.8-0.6,1.4-1.4,1.4H84.4c-0.6,0-1-0.5-1-1v-6.2
	c0-0.3,0-0.6,0-0.9L105.4,351.2L105.4,351.2z"/>
<linearGradient id="SVGID_4_" gradientUnits="userSpaceOnUse" x1="102.4552" y1="142.6545" x2="102.4552" y2="113.5465" gradientTransform="matrix(1 0 0 -1 0 423.0951)">
	<stop  offset="0.2368" style="stop-color:#958FE7"/>
	<stop  offset="0.4881" style="stop-color:#BBB7EF"/>
</linearGradient>
<path class="st13" d="M107.7,280.5l0,29.1l-10.4,0l0-29.1L107.7,280.5z"/>
<path class="st3" d="M97.3,298.1h10.5v-1.4H97.3V298.1z"/>
<radialGradient id="SVGID_5_" cx="-282.1072" cy="512.7726" r="1" gradientTransform="matrix(11.8991 0 0 -11.9057 3461.0601 6417.7402)" gradientUnits="userSpaceOnUse">
	<stop  offset="0" style="stop-color:#8065E0"/>
	<stop  offset="1" style="stop-color:#512BD4"/>
</radialGradient>
<path class="st14" d="M97.2,309.2h9.8c1.8,0,3.3,1.5,3.3,3.3v10.2c0,1.8-1.5,3.3-3.3,3.3h-9.8c-1.8,0-3.3-1.5-3.3-3.3v-10.2
	C93.9,310.6,95.4,309.2,97.2,309.2z"/>
<linearGradient id="SVGID_6_" gradientUnits="userSpaceOnUse" x1="77.6246" y1="142.6545" x2="77.6246" y2="113.5465" gradientTransform="matrix(1 0 0 -1 0 423.0951)">
	<stop  offset="0.2368" style="stop-color:#958FE7"/>
	<stop  offset="0.4881" style="stop-color:#BBB7EF"/>
</linearGradient>
<path class="st15" d="M82.9,280.5l0,29.1l-10.4,0l0-29.1L82.9,280.5z"/>
<path class="st3" d="M72.4,298.1h10.5v-1.4H72.4V298.1z"/>
<radialGradient id="SVGID_7_" cx="-280.4395" cy="511.9185" r="1" gradientTransform="matrix(11.2043 0 0 -11.2106 3221.7832 6052.9121)" gradientUnits="userSpaceOnUse">
	<stop  offset="0" style="stop-color:#8065E0"/>
	<stop  offset="1" style="stop-color:#512BD4"/>
</radialGradient>
<path class="st16" d="M72.3,309.2h9.8c1.8,0,3.3,1.5,3.3,3.3v10.2c0,1.8-1.5,3.3-3.3,3.3h-9.8c-1.8,0-3.3-1.5-3.3-3.3v-10.2
	C69.1,310.6,70.5,309.2,72.3,309.2z"/>
<path class="st12" d="M166.1,180.4c4.6,8.2,7.8,22.4,1.8,35.7c-3.7,8-12.1,18.4-31.6,22.4l-2.2-10.8c11.8-2.4,20-8,23.8-16.2
	c4.1-8.9,2.2-19.3-1.3-25.7L166.1,180.4z"/>
<path class="st3" d="M146,223.6l-1.1,0.6l5.1,9.6l1.1-0.6L146,223.6z"/>
<path class="st3" d="M160.2,202.8l-0.1,1.3l10.8,0.9l0.1-1.3L160.2,202.8z"/>
<path class="st3" d="M167,217.9l-11.3-2.7c-0.3,0.4-0.5,0.7-0.8,1.1l7.1,8.6C164.2,222.5,165.8,220.1,167,217.9z"/>
<path class="st12" d="M66.2,175.6l-9.9,4l-2.7-10.8l7.1-2.9L66.2,175.6z"/>
<path class="st5" d="M63.9,194.2c5.6,0,10.2-4.6,10.2-10.2c0-5.6-4.6-10.2-10.2-10.2c-5.6,0-10.2,4.6-10.2,10.2
	C53.8,189.6,58.3,194.2,63.9,194.2z"/>
<radialGradient id="SVGID_8_" cx="-305.6211" cy="524.8168" r="1" gradientTransform="matrix(94.7055 0 0 -94.758 29051.7773 49942.5117)" gradientUnits="userSpaceOnUse">
	<stop  offset="0.3472" style="stop-color:#A08BE8"/>
	<stop  offset="0.684" style="stop-color:#8065E0"/>
	<stop  offset="0.8157" style="stop-color:#8065E0"/>
</radialGradient>
<path class="st17" d="M139.2,246.9c3.7-14.1,1.3-25.3,1.3-25.3h3.3l0.1-0.1c-4.7-25.8-27.3-45.4-54.5-45.4
	C58.8,176.2,34,201,34,231.6c0,30.6,24.8,55.5,55.4,55.5c24.2,0,44.7-15.5,52.3-37C141.9,249.1,141.9,247.5,139.2,246.9z"/>
<path class="st18" d="M107.8,221.6H83.1c0,0-3.6-0.4-3.6,2.9c0,3.3,0.1,12.7,0.1,23c0,2.1,1.7,3.2,3.1,3.2h59c-0.1,0-0.2,0-0.2,0
	s1.5-3-2.2-3.8c3.6-13.9,1.4-25,1.3-25.3L107.8,221.6"/>
<path class="st3" d="M111.6,246.9c0,0,5.5-4.4,6.6-5.2c1.1-0.8,2-0.9,3,0c1,0.9,6.5,5.2,6.5,5.2H111.6z"/>
<path class="st4" d="M141.5,250.7c0,0,1.5-3-2.2-3.8c0,0,0,0,0,0H82.7c-1.3,0-3-0.8-3.2-2.1c0,0.9,0,1.8,0,2.8
	c0,1.9,1.4,2.9,2.7,3.1c0.1,0,0.3,0,0.4,0h3.9h55.2C141.6,250.7,141.5,250.7,141.5,250.7z"/>
<linearGradient id="SVGID_9_" gradientUnits="userSpaceOnUse" x1="41.6445" y1="158.3485" x2="137.219" y2="158.3485" gradientTransform="matrix(1 0 0 -1 0 423.0951)">
	<stop  offset="0.2368" style="stop-color:#958FE7"/>
	<stop  offset="0.8039" style="stop-color:#BDB9F0"/>
</linearGradient>
<path class="st19" d="M137.2,259.7H41.6c2.1,3.6,4.7,7,7.6,10.1h80.4C132.5,266.7,135.1,263.4,137.2,259.7z"/>
<path class="st5" d="M125.6,256.8h-17.9v15.8h17.9V256.8z"/>
<path class="st20" d="M76.3,188.9l-24.1,13.8c-1.3,0.7-2.8,0.1-3.3-1.3l-2.9-9.3L76.3,188.9z"/>
<path class="st21" d="M42.8,189.4c-4.1,1.1-5,7.4,0.9,6.8c10-1.1,46.1-7.5,62.6-15.9c8.4-4.3,9.2-11.4-5.8-9.2
	C85.6,173.3,42.8,189.4,42.8,189.4z"/>
<path class="st22" d="M41.6,189.7c0.2,1.4,1.5,2.3,2.9,2.1c4.7-0.7,16.1-2.7,30.1-6.8c14.6-4.3,22.5-8.6,25.5-10.5
	c0.9-0.5,1.3-1.6,1-2.6c-1.9-6-13.8-29.4-38.9-21.9C36.8,157.5,40.2,181.7,41.6,189.7z"/>
<path class="st21" d="M58.9,151c-4,1.6-7.1,3.6-9.6,5.9c21.8-4.6,33.7,7.9,37.2,12.4c0.7,0.9,1.9,1.3,3,0.9l1.6-0.5
	c1.7-0.5,2.3-2.6,1.2-3.9C87.9,160.1,76.4,148.4,58.9,151z"/>
<path class="st12" d="M30,295.6c-5.7-7.5-10.8-21.1-6.7-35.1c2.5-8.5,9.5-20,28.2-26.6l3.7,10.4c-11.4,4-18.7,10.7-21.3,19.3
	c-2.8,9.3,0.5,19.4,4.9,25.2L30,295.6z"/>
<path class="st3" d="M38.7,240.5l-1,0.8L44,250l1-0.8L38.7,240.5z"/>
<path class="st3" d="M32.8,271.2L22,271.9l0.1,1.3l10.8-0.6L32.8,271.2z"/>
<path class="st3" d="M24,258.6l11.5,1.1c0.2-0.4,0.4-0.8,0.6-1.2l-8.3-7.6C26.1,253.6,24.9,256.2,24,258.6z"/>
<radialGradient id="SVGID_10_" cx="-283.096" cy="513.2791" r="1" gradientTransform="matrix(12.3533 0 0 -12.3601 3556.4299 6579.6304)" gradientUnits="userSpaceOnUse">
	<stop  offset="0" style="stop-color:#8065E0"/>
	<stop  offset="1" style="stop-color:#512BD4"/>
</radialGradient>
<path class="st23" d="M56.8,249c5.6,0,10.2-4.6,10.2-10.2s-4.6-10.2-10.2-10.2s-10.2,4.6-10.2,10.2S51.2,249,56.8,249z"/>
<path class="st5" d="M137.2,233.9c0.1-4-1.8-7.3-4.2-7.4c-2.4,0-4.4,3.2-4.4,7.2c-0.1,4,1.8,7.3,4.2,7.4
	C135.2,241.2,137.2,237.9,137.2,233.9z"/>
<path class="st4" d="M132.9,230c-1.6,1.6-1.6,4.2,0,5.7c1.1,1.1,2.6,1.4,4,1c0.2-0.9,0.4-1.8,0.4-2.8c0-2-0.4-3.8-1.1-5.1
	C134.9,228.7,133.7,229.1,132.9,230z"/>
<path class="st5" d="M98.1,241.2c2.4,0,4.3-3.3,4.2-7.4c-0.1-4-2-7.3-4.4-7.2c-2.4,0-4.3,3.3-4.2,7.4
	C93.7,238,95.7,241.2,98.1,241.2z"/>
<path class="st4" d="M98,230.2c-1.6,1.6-1.6,4.2,0,5.7c1.1,1.1,2.6,1.4,4,1c0.3-1,0.4-2,0.4-3.2c0-1.8-0.5-3.5-1.1-4.8
	C100,229,98.8,229.4,98,230.2z"/>
<path class="st12" d="M163.4,174.9l-4.5-9.3c-1.2-2.5-4.2-3.5-6.7-2.3c-2.5,1.2-3.5,4.2-2.3,6.7l5.6,11.3L163.4,174.9z"/>
<path class="st12" d="M172.8,181.3l4.4-9.4c1.1-2.5,0-5.5-2.5-6.6c-2.5-1.1-5.5,0-6.6,2.5l-4.5,9.6L172.8,181.3z"/>
<path class="st12" d="M166.7,178.4l4.1-9.5c1.1-2.5-0.1-5.5-2.6-6.5c-2.5-1.1-5.5,0.1-6.5,2.6l-4.2,9.7L166.7,178.4z"/>
<path class="st12" d="M174.4,184.9l6.2-8.3c1.6-2.2,1.2-5.3-1.1-7c-2.2-1.6-5.3-1.2-7,1.1l-6.3,8.5L174.4,184.9z"/>
<path class="st24" d="M164.9,193.5c5.8,0,10.4-4.7,10.4-10.5c0-5.8-4.7-10.5-10.4-10.5c-5.8,0-10.4,4.7-10.4,10.5
	C154.4,188.8,159.1,193.5,164.9,193.5z"/>
<path class="st25" d="M24.7,338.1l-13.5-29.7c-0.6-1.3,0-2.8,1.3-3.4l42.4-19.3c1.3-0.6,2.8,0,3.4,1.3l13.5,29.7
	c0.6,1.3,0,2.8-1.3,3.4l-42.4,19.3C26.9,340,25.3,339.4,24.7,338.1z"/>
<path class="st12" d="M36.9,296.7l8.2,6.2c2.2,1.6,5.3,1.2,7-1c1.6-2.2,1.2-5.3-1-7l-10.1-7.5L36.9,296.7z"/>
<path class="st12" d="M25.6,295.3l0.4,10.3c0.1,2.8,2.4,4.9,5.2,4.8c2.8-0.1,4.9-2.4,4.8-5.2l-0.4-10.6L25.6,295.3z"/>
<path class="st12" d="M32.3,295.1l0.6,10.3c0.2,2.8,2.6,4.8,5.3,4.6c2.8-0.2,4.8-2.6,4.6-5.3l-0.7-10.6L32.3,295.1z"/>
<path class="st12" d="M22.5,292.8L20.7,303c-0.4,2.7,1.4,5.3,4.1,5.7c2.7,0.4,5.3-1.4,5.7-4.1l1.8-10.5L22.5,292.8z"/>
<path class="st24" d="M31.9,300.6c5.8,0,10.4-4.7,10.4-10.5s-4.7-10.5-10.4-10.5c-5.8,0-10.4,4.7-10.4,10.5S26.1,300.6,31.9,300.6z"
	/>
<radialGradient id="SVGID_11_" cx="-289.1979" cy="516.4047" r="1" gradientTransform="matrix(16.16 0 0 -16.169 4795.999 8549.9102)" gradientUnits="userSpaceOnUse">
	<stop  offset="0" style="stop-color:#BDB9F0"/>
	<stop  offset="0.2325" style="stop-color:#CEC3E2;stop-opacity:0.7675"/>
	<stop  offset="0.7251" style="stop-color:#EDD6C9;stop-opacity:0.2749"/>
	<stop  offset="1" style="stop-color:#F9DDBF;stop-opacity:0"/>
</radialGradient>
<path class="st26" d="M136.1,216.6c-0.9,0-1.8-0.6-2.2-1.5c-4.5-12.1-13.9-21.9-25.8-26.8c-1.2-0.5-1.8-1.9-1.3-3.1
	c0.5-1.2,1.9-1.8,3.1-1.3c13.1,5.5,23.4,16.2,28.4,29.5c0.5,1.2-0.2,2.6-1.4,3C136.7,216.5,136.4,216.6,136.1,216.6z"/>
<path class="st2" d="M560.8,177.4c1.3,1,2,2.7,1.5,4.3l-7.5,29.4c-0.4,1.5-1.5,2.6-3,3l-33,8.2c-2.2,0.5-4.4-0.8-5-3
	c-0.5-2.2,0.8-4.4,3-5l30.6-7.6l6.9-27c0.6-2.2,2.8-3.5,5-3C559.9,176.9,560.4,177.1,560.8,177.4z"/>
<path class="st5" d="M555.5,181.4l5.4,1.4c0.9,0.2,1.7-0.2,1.9-1.1l0.9-4.2c0-0.1,0.1-0.3,0.2-0.4l5.3-9.2c0.5-0.9-0.1-2.1-1.2-2.4
	l-13.2-3.6c-1.1-0.3-2.1,0.5-1.9,1.6l1.8,11.5c0,0.1,0,0.3,0,0.4l-0.5,4.1C554.1,180.4,554.7,181.2,555.5,181.4z"/>
<path class="st5" d="M558.3,147.7c0.7,0.4,1,1.2,0.8,1.9c-0.4,1.3-2.3,4.3-3.1,5.6l1.6,8.9c0.2,0.9-0.5,1.7-1.4,1.7
	c-0.9,0-1.8-0.6-2-1.5l-1.7-9.5c-0.1-0.4,0-0.7,0.2-1.1c1.1-1.7,2.8-4.6,3.1-5.4c0.3-0.8,1.2-1.2,2.1-0.9
	C558,147.6,558.2,147.6,558.3,147.7z"/>
<path class="st1" d="M577.2,166.3c-0.3,0-0.6,0-0.9-0.1l-260-86.5c-1.5-0.5-2.3-2.1-1.8-3.6c0.5-1.5,2.1-2.3,3.6-1.8l260,86.5
	c1.5,0.5,2.3,2.1,1.8,3.6C579.5,165.6,578.4,166.3,577.2,166.3z"/>
<path class="st3" d="M324.2,70.9l-23,21.6c-2.2,2.1-5.8,2-7.9-0.2l-0.7-0.7c-2.1-2.2-2-5.8,0.2-7.9l23-21.6c2.2-2.1,5.8-2,7.9,0.2
	l0.7,0.7C326.6,65.3,326.5,68.8,324.2,70.9z"/>
<path class="st5" d="M312.7,65.1l-7.1,6.7l8.3,8.9L321,74L312.7,65.1z"/>
<path class="st5" d="M574.4,147.6c0.6,0.4,1,1.1,0.8,1.8l-1.8,8.3c0,0.1-0.1,0.2-0.1,0.3l-5.1,10.2c-0.4,0.8-1.4,1-2.3,0.6
	c-0.8-0.4-1.2-1.5-0.9-2.2l5-10l1.8-8.1c0.2-0.9,1.1-1.3,2-1.1C574,147.4,574.2,147.4,574.4,147.6z"/>
<path class="st5" d="M567.9,146.2c0.5,0.4,0.9,1,0.8,1.6l-0.9,9.8c0,0.1,0,0.2-0.1,0.3l-3.1,9.5c-0.3,0.8-1.2,1.2-2.1,0.9
	c-0.9-0.4-1.4-1.3-1.2-2.1l3-9.4l0.9-9.7c0.1-0.9,0.9-1.5,1.9-1.3C567.4,146,567.7,146.1,567.9,146.2z"/>
<path class="st5" d="M424.6,101.6c-0.6,0.5-0.8,1.4-0.5,2c0.6,1.2,2.9,3.9,3.9,5.1l-0.2,9.1c0,0.9,0.7,1.6,1.6,1.5
	c0.9-0.1,1.7-0.9,1.7-1.8l0.2-9.7c0-0.4-0.1-0.7-0.4-1c-1.4-1.6-3.5-4.1-3.8-4.9c-0.4-0.8-1.4-1-2.2-0.6
	C424.8,101.4,424.7,101.5,424.6,101.6z"/>
<path class="st5" d="M432.2,134.6l-5.2,2.2c-0.8,0.4-1.7,0-2-0.8l-1.5-4c-0.1-0.1-0.1-0.3-0.2-0.4l-6.6-8.3
	c-0.6-0.8-0.2-2.1,0.8-2.5l12.5-5.5c1.1-0.5,2.2,0.2,2.1,1.3l-0.1,11.7c0,0.1,0,0.3,0.1,0.4l1.1,4
	C433.5,133.3,433.1,134.2,432.2,134.6z"/>
<path class="st0" d="M386.6,356.6c-2,0-3.6-1.9-3.6-4.3v-27.7c0-2.4,1.6-4.3,3.6-4.3c2,0,3.6,1.9,3.6,4.3v27.7
	C390.2,354.7,388.6,356.6,386.6,356.6z"/>
<path class="st20" d="M377.3,360.2v-2c0-3.2,2.6-5.7,5.7-5.7h11.7c3.2,0,5.7,2.6,5.7,5.7v2H377.3z"/>
<path class="st0" d="M373.7,356.6c-2,0-3.6-1.9-3.6-4.3v-27.7c0-2.4,1.6-4.3,3.6-4.3c2,0,3.6,1.9,3.6,4.3v27.7
	C377.3,354.7,375.7,356.6,373.7,356.6z"/>
<path class="st20" d="M383,360.2v-2c0-3.2-2.6-5.7-5.7-5.7h-11.7c-3.2,0-5.7,2.6-5.7,5.7v2H383z"/>
<path class="st27" d="M387.6,194.1v-17.4c0-1.9-2.6-2.4-3.3-0.7l-7.3,17.4c-0.5,1.1,0.4,2.4,1.6,2.4h7.3
	C386.8,195.8,387.6,195,387.6,194.1z"/>
<path class="st27" d="M399.7,194.1v-17.4c0-1.9-2.6-2.4-3.3-0.7l-7.3,17.4c-0.5,1.1,0.4,2.4,1.6,2.4h7.3
	C398.9,195.8,399.7,195,399.7,194.1z"/>
<path class="st0" d="M383.4,225.6h-9v48.5h9V225.6z"/>
<radialGradient id="SVGID_12_" cx="-303.7465" cy="523.7608" r="1" gradientTransform="matrix(58.818 0 0 -58.8506 18290.3516 31050.5391)" gradientUnits="userSpaceOnUse">
	<stop  offset="0.2858" style="stop-color:#8065E0"/>
	<stop  offset="0.6908" style="stop-color:#A08BE8"/>
</radialGradient>
<path class="st28" d="M414.4,221.6l-1.5-17.3c-0.6-7.2-6.6-12.7-13.8-12.7h-41c-7.2,0-13.2,5.5-13.8,12.7l-1.5,17.3
	c-0.2,1.9,1.3,3.5,3.2,3.5h23.5c1,4.5,5,7.8,9.8,7.8c4.8,0,8.7-3.3,9.8-7.8h22.2C413.1,225.2,414.6,223.5,414.4,221.6z"/>
<path class="st5" d="M372,205.8h-27.9l-1,11.6H372c2.5,0,4.5-2,4.5-4.5v-2.7C376.5,207.8,374.5,205.8,372,205.8z"/>
<path class="st22" d="M344,215.6c2.4,0,4.4-2,4.4-4.4c0-2.4-2-4.4-4.4-4.4s-4.4,2-4.4,4.4C339.6,213.6,341.6,215.6,344,215.6z"/>
<path class="st22" d="M358.2,215.6c2.4,0,4.4-2,4.4-4.4c0-2.4-2-4.4-4.4-4.4s-4.4,2-4.4,4.4C353.8,213.6,355.8,215.6,358.2,215.6z"
	/>
<radialGradient id="SVGID_13_" cx="-305.4239" cy="524.6506" r="1" gradientTransform="matrix(86.4065 0 0 -86.4544 26814.4922 45646.6953)" gradientUnits="userSpaceOnUse">
	<stop  offset="0.2858" style="stop-color:#8065E0"/>
	<stop  offset="0.6908" style="stop-color:#A08BE8"/>
</radialGradient>
<path class="st29" d="M348.2,324.9h60.7c7.1,0,12.6-6.1,12-13.1l-5.9-67.2c-0.2-2-1.8-3.5-3.8-3.5h-65.5c-1.9,0-3.5,1.4-3.6,3.3
	l-5.9,67.4C335.6,318.8,341.1,324.9,348.2,324.9z"/>
<path class="st12" d="M338.7,282.9h79.7l-0.9-10h-77.9L338.7,282.9z"/>
<path class="st5" d="M359.5,286.6h-12.8c-0.8,0-1.5-0.7-1.5-1.5v-12.8c0-0.8,0.7-1.5,1.5-1.5h12.8c0.8,0,1.5,0.7,1.5,1.5v12.8
	C360.9,285.9,360.3,286.6,359.5,286.6z"/>
<path class="st30" d="M415.7,252.3l-0.7-7.8c-0.2-2-1.8-3.5-3.8-3.5h-65.5c-1.9,0-3.5,1.4-3.6,3.3l-0.7,8L415.7,252.3L415.7,252.3z"
	/>
<path class="st18" d="M350.7,248.7c1.2,0,2.1-0.9,2.1-2.1c0-1.2-0.9-2.1-2.1-2.1s-2.1,0.9-2.1,2.1
	C348.6,247.8,349.5,248.7,350.7,248.7z"/>
<path class="st18" d="M358.4,248.7c1.2,0,2.1-0.9,2.1-2.1c0-1.2-0.9-2.1-2.1-2.1s-2.1,0.9-2.1,2.1
	C356.3,247.8,357.2,248.7,358.4,248.7z"/>
<path class="st18" d="M366.1,248.7c1.2,0,2.1-0.9,2.1-2.1c0-1.2-0.9-2.1-2.1-2.1c-1.2,0-2.1,0.9-2.1,2.1
	C364,247.8,365,248.7,366.1,248.7z"/>
<path class="st18" d="M110.3,267.4c-0.1,0-0.2,0-0.3-0.1c-0.1-0.1-0.1-0.2-0.1-0.3c0-0.1,0-0.2,0.1-0.3c0.1-0.1,0.2-0.1,0.3-0.1
	c0.1,0,0.3,0,0.3,0.1c0.1,0.1,0.1,0.2,0.1,0.3c0,0.1,0,0.2-0.1,0.3C110.5,267.3,110.4,267.4,110.3,267.4z"/>
<path class="st18" d="M115.7,267.2l-0.9,0l-2.4-3.6c-0.1-0.1-0.1-0.2-0.2-0.3h0c0,0.1,0,0.3,0,0.7l0.1,3.2l-0.8,0l-0.1-4.9l0.9,0
	l2.3,3.5c0.1,0.1,0.2,0.2,0.2,0.3h0c0-0.1,0-0.4,0-0.7l0-3.2l0.8,0L115.7,267.2z"/>
<path class="st18" d="M119.4,267.2l-2.7,0l-0.1-4.9l2.6,0l0,0.7l-1.8,0l0,1.4l1.7,0l0,0.7l-1.7,0l0,1.5l1.9,0L119.4,267.2z"/>
<path class="st18" d="M123.2,262.9l-1.4,0l0.1,4.2l-0.8,0l-0.1-4.2l-1.4,0l0-0.7l3.6-0.1L123.2,262.9z"/>
<g>
	<g>
		<path id="Shape" class="st31" d="M52,65.6c3.5,0.7,7.2-0.4,9.7-2.9s3.6-6.2,2.9-9.7c-0.2-0.8,0-1.6,0.5-2.3c0.5-0.6,1.3-1,2.1-1
			H151c5.9,0,10.8,4.8,10.8,10.8v40.4c0,5.9-4.8,10.7-10.8,10.8c-97.3,0-92.9,0.3-95.4-0.8c-4.1-1.7-6.8-5.6-6.8-10V68.2
			c0-0.8,0.4-1.6,1-2.1S51.2,65.4,52,65.6L52,65.6z"/>
		<path id="Shape_7_" class="st32" d="M82.8,30.6c1.2,1.6,3.2,2.3,5.1,2c1.9-0.3,3.6-1.7,4.2-3.5c0.6-1.9,0.2-3.9-1.1-5.4
			C79.3,9.9,60.9,3.8,43.3,7.8S11.8,25.4,7.2,42.9S8.3,78.9,21.8,91c1.4,1.4,3.5,1.9,5.4,1.3c1.9-0.6,3.3-2.2,3.7-4.1
			c0.4-2-0.4-4-1.9-5.2c-10.5-9.4-14.8-23.8-11.3-37.5S32,21.4,45.7,18.3S73.7,19.9,82.8,30.6L82.8,30.6z"/>
		<path id="Shape_8_" class="st33" d="M63.5,41.9c1.6,1.1,3.7,1.2,5.4,0.3c1.7-0.8,2.8-2.4,3-4.3c0.2-1.9-0.6-3.7-2.1-4.8
			C59,25.4,44.3,26.7,35,36.1s-10.4,24.2-2.6,34.8c1.1,1.4,2.8,2.2,4.6,2.1c1.8-0.1,3.4-1.1,4.3-2.7c1.1-1.8,1-4.1-0.2-5.8
			c-4.7-6.4-4-15.3,1.5-20.9S57.1,37.3,63.5,41.9L63.5,41.9z"/>
		<circle id="Oval" class="st34" cx="54.1" cy="55" r="5.4"/>
	</g>
	<g>
		<path id="Shape_1_" class="st18" d="M95.9,100.8c-1.5,0-2.7-1.2-2.7-2.7v-35c0-1.5,1.2-2.7,2.7-2.7c1.5,0,2.7,1.2,2.7,2.7v35
			C98.6,99.6,97.4,100.8,95.9,100.8z"/>
		<path id="Shape_2_" class="st18" d="M117.4,100.8h-2.7c-1.3,0-2.3-0.9-2.6-2.1l-8.1-35c-0.3-1.4,0.6-2.9,2-3.2s2.9,0.6,3.2,2
			l6.8,29.4l6.8-29.4c0.2-0.9,0.9-1.7,1.8-2c0.9-0.3,1.9-0.1,2.6,0.6c0.7,0.7,1,1.6,0.8,2.6l-8.1,35
			C119.8,99.9,118.7,100.8,117.4,100.8z"/>
		<path id="Shape_3_" class="st18" d="M149.7,100.8h-13.5c-1.5,0-2.7-1.2-2.7-2.7v-35c0-1.5,1.2-2.7,2.7-2.7s2.7,1.2,2.7,2.7v32.3
			h10.8c1.5,0,2.7,1.2,2.7,2.7S151.2,100.8,149.7,100.8z"/>
		<path id="Shape_4_" class="st18" d="M85.1,100.8H71.7c-1.5,0-2.7-1.2-2.7-2.7v-35c0-1.5,1.2-2.7,2.7-2.7c1.5,0,2.7,1.2,2.7,2.7
			v32.3h10.8c1.5,0,2.7,1.2,2.7,2.7S86.6,100.8,85.1,100.8z"/>
		<path id="Shape_5_" class="st18" d="M149.7,84.6h-13.5c-1.5,0-2.7-1.2-2.7-2.7s1.2-2.7,2.7-2.7h13.5c1.5,0,2.7,1.2,2.7,2.7
			S151.2,84.6,149.7,84.6z"/>
		<path id="Shape_6_" class="st18" d="M149.7,65.8h-13.5c-1.5,0-2.7-1.2-2.7-2.7c0-1.5,1.2-2.7,2.7-2.7h13.5c1.5,0,2.7,1.2,2.7,2.7
			C152.4,64.6,151.2,65.8,149.7,65.8z"/>
	</g>
</g>
</svg>
