<?xml version="1.0" encoding="utf-8"?>
<!-- Generator: Adobe Illustrator 24.2.1, SVG Export Plug-In . SVG Version: 6.00 Build 0)  -->
<svg version="1.1" id="圖層_1" xmlns="http://www.w3.org/2000/svg" xmlns:xlink="http://www.w3.org/1999/xlink" x="0px" y="0px"
	 viewBox="0 0 500 300" style="enable-background:new 0 0 500 300;" xml:space="preserve">
<style type="text/css">
	.st0{fill:#333333;}
	.st1{fill:#FFFFFF;}
</style>
<rect class="st0" width="500" height="300"/>
<g>
	<path class="st1" d="M183.5,123v27.1c0,1.3-1.1,2.5-2.5,2.5l0,0h-34.5c-1.3,0-2.5-1.1-2.5-2.5l0,0v-41.1c0-1.3,1.1-2.5,2.5-2.5l0,0
		H167v14c0,1.3,1.1,2.5,2.5,2.5l0,0H183.5z M173.6,127.2c0-0.5-0.4-0.8-0.8-0.8c0,0,0,0,0,0h-18.1c-0.5,0-0.8,0.4-0.8,0.8
		c0,0,0,0,0,0v1.6c0,0.5,0.4,0.8,0.8,0.8h0h18.1c0.5,0,0.8-0.4,0.8-0.8v0V127.2z M173.6,133.7c0-0.5-0.4-0.8-0.8-0.8c0,0,0,0,0,0
		h-18.1c-0.5,0-0.8,0.4-0.8,0.8c0,0,0,0,0,0v1.6c0,0.5,0.4,0.8,0.8,0.8h0h18.1c0.5,0,0.8-0.4,0.8-0.8v0V133.7z M173.6,140.3
		c0-0.5-0.4-0.8-0.8-0.8c0,0,0,0,0,0h-18.1c-0.5,0-0.8,0.4-0.8,0.8c0,0,0,0,0,0v1.6c0,0.5,0.4,0.8,0.8,0.8h0h18.1
		c0.5,0,0.8-0.4,0.8-0.8v0V140.3z M182.5,119.8h-12.1v-12.1c0.3,0.2,0.7,0.5,0.9,0.7l10.5,10.5C182,119.1,182.3,119.4,182.5,119.8z"
		/>
	<path class="st1" d="M198.8,115.9h5.3V128h12.2v-12.1h5.3v30.1h-5.3v-13.4h-12.2v13.4h-5.4L198.8,115.9L198.8,115.9z"/>
	<path class="st1" d="M227.7,140c0-4.8,4-7.4,13.3-8.4c-0.1-2.4-1.1-4.4-4.1-4.4c-2.2,0-4.4,1-6.3,2.2l-1.9-3.6c2.5-1.6,5.7-3,9.3-3
		c5.7,0,8.5,3.5,8.5,9.8v13.4H242l-0.4-2.5h-0.2c-2,1.7-4.3,3.1-7,3.1C230.4,146.6,227.7,143.9,227.7,140z M241,140v-5.1
		c-6.1,0.8-8.2,2.4-8.2,4.7c0,2,1.3,2.9,3.3,2.9C237.9,142.5,239.3,141.5,241,140L241,140z"/>
	<path class="st1" d="M251.2,134.8c0-7.5,5.3-11.9,11.3-11.9c2.4,0,4.8,0.9,6.6,2.5l-2.6,3.5c-1.2-1.1-2.3-1.6-3.7-1.6
		c-3.7,0-6.2,3-6.2,7.6s2.5,7.5,6,7.5c1.8,0,3.4-0.9,4.7-1.9l2.2,3.5c-2,1.8-4.7,2.8-7.4,2.8C255.9,146.6,251.2,142.3,251.2,134.8z"
		/>
	<path class="st1" d="M273.9,113.5h5.2v20.3h0.1l8.4-10.4h5.8l-7.8,9.2l8.5,13.4h-5.8l-5.8-9.8l-3.6,4.1v5.8h-5.2L273.9,113.5z"/>
	<path class="st1" d="M298.4,115.9h6.1l5.3,14.7c0.7,1.9,1.3,3.9,1.9,5.9h0.2c0.7-2,1.2-4,1.9-5.9l5.2-14.7h6.1v30.1h-4.9v-13.8
		c0-2.8,0.4-6.8,0.7-9.6h-0.2l-2.4,7l-4.9,13.5h-3.2l-5-13.5l-2.4-7h-0.2c0.3,2.8,0.7,6.8,0.7,9.6v13.8h-4.8L298.4,115.9z"/>
	<path class="st1" d="M332.7,115.9h8c9.2,0,14.7,5,14.7,14.9s-5.5,15.2-14.4,15.2h-8.3L332.7,115.9L332.7,115.9z M340.4,141.7
		c6.1,0,9.5-3.5,9.5-10.9c0-7.4-3.5-10.6-9.5-10.6H338v21.4L340.4,141.7L340.4,141.7z"/>
	<g>
		<path class="st1" d="M24.4,180.8c0-4.9,2.9-7.9,6.9-7.9c2.1,0,3.5,1,4.3,1.9l-1.1,1.2c-0.8-0.8-1.7-1.4-3.3-1.4
			c-3.1,0-5,2.3-5,6.1c0,3.8,1.8,6.2,5,6.2c1.1,0,2.1-0.3,2.7-0.9v-3.9H31v-1.6h5v6.3c-1,1-2.6,1.7-4.7,1.7
			C27.3,188.6,24.4,185.7,24.4,180.8z"/>
		<path class="st1" d="M38.5,182.7c0-3.7,2.5-5.9,5-5.9c2.9,0,4.5,2,4.5,5.3c0,0.4,0,0.8-0.1,1.1h-7.5c0.1,2.4,1.6,3.9,3.7,3.9
			c1.1,0,1.9-0.4,2.8-0.9l0.7,1.2c-1,0.7-2.2,1.2-3.7,1.2C40.9,188.6,38.5,186.4,38.5,182.7z M46.3,181.8c0-2.2-1-3.5-2.8-3.5
			c-1.6,0-3,1.2-3.2,3.5H46.3z"/>
		<path class="st1" d="M50.8,184.8v-6.2h-1.7v-1.4l1.7-0.1l0.2-3.1h1.6v3.1h3v1.5h-3v6.2c0,1.4,0.4,2.2,1.7,2.2
			c0.4,0,0.9-0.2,1.3-0.3l0.4,1.4c-0.6,0.2-1.4,0.4-2.1,0.4C51.6,188.6,50.8,187.1,50.8,184.8z"/>
		<path class="st1" d="M62,182.7c0-3.7,2.5-5.9,5-5.9c2.9,0,4.5,2,4.5,5.3c0,0.4,0,0.8-0.1,1.1h-7.5c0.1,2.4,1.6,3.9,3.7,3.9
			c1.1,0,1.9-0.4,2.8-0.9l0.7,1.2c-1,0.7-2.2,1.2-3.7,1.2C64.4,188.6,62,186.4,62,182.7z M69.9,181.8c0-2.2-1-3.5-2.8-3.5
			c-1.6,0-3,1.2-3.2,3.5H69.9z"/>
		<path class="st1" d="M72.8,177.1h1.9l2.1,6.3c0.3,1.1,0.7,2.2,1,3.3H78c0.3-1.1,0.7-2.2,1-3.3l2.1-6.3h1.8L79,188.3h-2.2
			L72.8,177.1z"/>
		<path class="st1" d="M84.2,182.7c0-3.7,2.5-5.9,5-5.9c2.9,0,4.5,2,4.5,5.3c0,0.4,0,0.8-0.1,1.1h-7.5c0.1,2.4,1.6,3.9,3.7,3.9
			c1.1,0,1.9-0.4,2.8-0.9l0.7,1.2c-1,0.7-2.2,1.2-3.7,1.2C86.6,188.6,84.2,186.4,84.2,182.7z M92,181.8c0-2.2-1-3.5-2.8-3.5
			c-1.6,0-3,1.2-3.2,3.5H92z"/>
		<path class="st1" d="M96.5,177.1h1.6l0.2,2h0.1c0.8-1.4,1.9-2.3,3.2-2.3c0.5,0,0.9,0.1,1.2,0.2l-0.4,1.7c-0.4-0.1-0.6-0.2-1.1-0.2
			c-1,0-2.1,0.7-2.8,2.6v7.2h-1.9L96.5,177.1L96.5,177.1z"/>
		<path class="st1" d="M103.9,192.9l0.4-1.5c0.2,0.1,0.6,0.2,0.9,0.2c1.2,0,2.1-1,2.5-2.4l0.3-0.8l-4.5-11.2h1.9l2.3,6.2
			c0.4,1,0.7,2.1,1.1,3.2h0.1c0.3-1,0.6-2.2,1-3.2l2-6.2h1.8l-4.2,12.1c-0.8,2.2-1.9,3.9-4.2,3.9C104.7,193.1,104.3,193,103.9,192.9
			z"/>
		<path class="st1" d="M114.9,182.7c0-3.7,2.4-5.9,5.2-5.9s5.2,2.1,5.2,5.9c0,3.7-2.4,5.9-5.2,5.9S114.9,186.4,114.9,182.7z
			 M123.3,182.7c0-2.6-1.3-4.3-3.2-4.3s-3.2,1.7-3.2,4.3s1.3,4.3,3.2,4.3S123.3,185.3,123.3,182.7z"/>
		<path class="st1" d="M128.2,177.1h1.6l0.2,1.6h0.1c1.1-1.1,2.2-1.9,3.7-1.9c2.4,0,3.4,1.5,3.4,4.4v7.1h-1.9v-6.8
			c0-2.1-0.6-3-2.1-3c-1.2,0-1.9,0.6-3.1,1.7v8.1h-1.9L128.2,177.1L128.2,177.1z"/>
		<path class="st1" d="M140,182.7c0-3.7,2.5-5.9,5-5.9c2.9,0,4.5,2,4.5,5.3c0,0.4,0,0.8-0.1,1.1h-7.5c0.1,2.4,1.6,3.9,3.7,3.9
			c1.1,0,1.9-0.4,2.8-0.9l0.7,1.2c-1,0.7-2.2,1.2-3.7,1.2C142.3,188.6,140,186.4,140,182.7z M147.8,181.8c0-2.2-1-3.5-2.8-3.5
			c-1.6,0-3,1.2-3.2,3.5H147.8z"/>
		<path class="st1" d="M156,182.7c0-3.7,2.4-5.9,5.2-5.9c2.7,0,5.2,2.1,5.2,5.9c0,3.7-2.4,5.9-5.2,5.9S156,186.4,156,182.7z
			 M164.4,182.7c0-2.6-1.3-4.3-3.2-4.3c-1.9,0-3.2,1.7-3.2,4.3s1.3,4.3,3.2,4.3C163.1,187,164.4,185.3,164.4,182.7z"/>
		<path class="st1" d="M169.3,177.1h1.6l0.2,1.6h0.1c1.1-1.1,2.2-1.9,3.7-1.9c2.4,0,3.4,1.5,3.4,4.4v7.1h-1.9v-6.8
			c0-2.1-0.6-3-2.1-3c-1.2,0-1.9,0.6-3.1,1.7v8.1h-1.9L169.3,177.1L169.3,177.1z"/>
		<path class="st1" d="M186.8,184.8v-6.2h-1.7v-1.4l1.7-0.1l0.2-3.1h1.6v3.1h3v1.5h-3v6.2c0,1.4,0.4,2.2,1.7,2.2
			c0.4,0,0.9-0.2,1.3-0.3l0.4,1.4c-0.6,0.2-1.4,0.4-2.1,0.4C187.6,188.6,186.8,187.1,186.8,184.8z"/>
		<path class="st1" d="M194.2,171.9h1.9v4.5l-0.1,2.3c1.1-1,2.2-1.8,3.7-1.8c2.4,0,3.4,1.5,3.4,4.4v7.1h-1.9v-6.8c0-2.1-0.6-3-2.1-3
			c-1.2,0-1.9,0.6-3.1,1.7v8.1h-1.9V171.9z"/>
		<path class="st1" d="M205.9,182.7c0-3.7,2.5-5.9,5-5.9c2.9,0,4.5,2,4.5,5.3c0,0.4,0,0.8-0.1,1.1h-7.5c0.1,2.4,1.6,3.9,3.7,3.9
			c1.1,0,1.9-0.4,2.8-0.9l0.7,1.2c-1,0.7-2.2,1.2-3.7,1.2C208.3,188.6,205.9,186.4,205.9,182.7z M213.7,181.8c0-2.2-1-3.5-2.8-3.5
			c-1.6,0-3,1.2-3.2,3.5H213.7z"/>
		<path class="st1" d="M221.5,187l0.9-1.2c1,0.8,2,1.3,3.3,1.3c1.5,0,2.2-0.8,2.2-1.7c0-1.2-1.3-1.6-2.6-2.1
			c-1.6-0.6-3.3-1.3-3.3-3.2c0-1.8,1.4-3.2,3.8-3.2c1.4,0,2.6,0.6,3.5,1.2l-0.9,1.2c-0.8-0.6-1.5-1-2.6-1c-1.4,0-2.1,0.8-2.1,1.6
			c0,1.1,1.2,1.5,2.5,1.9c1.6,0.6,3.4,1.2,3.4,3.4c0,1.8-1.4,3.3-4.1,3.3C224.1,188.6,222.6,187.9,221.5,187z"/>
		<path class="st1" d="M231.7,185.4c0-2.4,2.1-3.7,6.9-4.2c0-1.4-0.5-2.8-2.3-2.8c-1.3,0-2.5,0.6-3.3,1.2l-0.8-1.3
			c1-0.7,2.6-1.4,4.4-1.4c2.7,0,3.9,1.8,3.9,4.6v6.9h-1.6l-0.2-1.3h-0.1c-1.1,0.9-2.3,1.6-3.7,1.6
			C233.1,188.6,231.7,187.4,231.7,185.4z M238.6,185.6v-3.1c-3.7,0.5-5,1.4-5,2.8c0,1.3,0.9,1.8,2,1.8
			C236.6,187,237.5,186.5,238.6,185.6z"/>
		<path class="st1" d="M244,177.1h1.6l0.2,1.6h0.1c1-1.1,2.1-1.9,3.5-1.9c1.7,0,2.6,0.8,3.1,2.1c1.2-1.2,2.3-2.1,3.7-2.1
			c2.3,0,3.4,1.5,3.4,4.4v7.1h-1.9v-6.8c0-2.1-0.7-3-2.1-3c-0.9,0-1.8,0.6-2.8,1.7v8.1h-1.9v-6.8c0-2.1-0.7-3-2.1-3
			c-0.8,0-1.8,0.6-2.8,1.7v8.1h-1.9L244,177.1L244,177.1z"/>
		<path class="st1" d="M262.3,182.7c0-3.7,2.5-5.9,5-5.9c2.9,0,4.5,2,4.5,5.3c0,0.4,0,0.8-0.1,1.1h-7.5c0.1,2.4,1.6,3.9,3.7,3.9
			c1.1,0,1.9-0.4,2.8-0.9l0.7,1.2c-1,0.7-2.2,1.2-3.7,1.2C264.7,188.6,262.3,186.4,262.3,182.7z M270.1,181.8c0-2.2-1-3.5-2.8-3.5
			c-1.6,0-3,1.2-3.2,3.5H270.1z"/>
		<path class="st1" d="M279.1,177.1h1.6l0.2,1.3h0.1c1-0.9,2.3-1.6,3.6-1.6c2.9,0,4.4,2.2,4.4,5.7c0,3.8-2.3,6.1-4.8,6.1
			c-1,0-2.1-0.5-3.1-1.3l0.1,1.9v3.8h-1.9L279.1,177.1L279.1,177.1z M286.9,182.5c0-2.5-0.9-4.1-3-4.1c-1,0-1.9,0.5-3,1.5v5.9
			c1,0.9,2,1.2,2.7,1.2C285.6,187,286.9,185.3,286.9,182.5z"/>
		<path class="st1" d="M290.9,185.4c0-2.4,2.1-3.7,6.9-4.2c0-1.4-0.5-2.8-2.3-2.8c-1.3,0-2.5,0.6-3.3,1.2l-0.8-1.3
			c1-0.7,2.6-1.4,4.4-1.4c2.7,0,3.9,1.8,3.9,4.6v6.9h-1.6l-0.2-1.3h-0.1c-1.1,0.9-2.3,1.6-3.7,1.6
			C292.3,188.6,290.9,187.4,290.9,185.4z M297.8,185.6v-3.1c-3.7,0.5-5,1.4-5,2.8c0,1.3,0.9,1.8,2,1.8
			C295.8,187,296.7,186.5,297.8,185.6z"/>
		<path class="st1" d="M302.3,190.4c0-1,0.6-1.9,1.6-2.5v-0.1c-0.6-0.4-1-1-1-1.8c0-0.9,0.7-1.7,1.2-2.1v-0.1
			c-0.8-0.6-1.4-1.7-1.4-3c0-2.4,1.9-4,4.2-4c0.6,0,1.2,0.1,1.6,0.3h3.9v1.4h-2.3c0.5,0.5,0.9,1.3,0.9,2.3c0,2.4-1.8,3.9-4.1,3.9
			c-0.6,0-1.2-0.1-1.7-0.4c-0.4,0.3-0.7,0.7-0.7,1.3c0,0.7,0.5,1.2,2,1.2h2.2c2.6,0,3.9,0.8,3.9,2.7c0,2.1-2.2,3.9-5.7,3.9
			C304.2,193.5,302.3,192.4,302.3,190.4z M310.8,189.9c0-1-0.8-1.4-2.3-1.4h-1.9c-0.4,0-1,0-1.4-0.2c-0.8,0.6-1.2,1.2-1.2,1.9
			c0,1.2,1.2,2,3.3,2C309.4,192.1,310.8,191,310.8,189.9z M309.3,180.8c0-1.6-1.1-2.6-2.4-2.6s-2.4,1-2.4,2.6c0,1.6,1.1,2.7,2.4,2.7
			S309.3,182.4,309.3,180.8z"/>
		<path class="st1" d="M313.6,182.7c0-3.7,2.5-5.9,5-5.9c2.9,0,4.5,2,4.5,5.3c0,0.4,0,0.8-0.1,1.1h-7.5c0.1,2.4,1.6,3.9,3.7,3.9
			c1.1,0,1.9-0.4,2.8-0.9l0.7,1.2c-1,0.7-2.2,1.2-3.7,1.2C316,188.6,313.6,186.4,313.6,182.7z M321.5,181.8c0-2.2-1-3.5-2.8-3.5
			c-1.6,0-3,1.2-3.2,3.5H321.5z"/>
		<path class="st1" d="M329.1,177.1h1.9l1.6,6.5c0.2,1.1,0.5,2.1,0.7,3.1h0.1c0.2-1.1,0.5-2.1,0.8-3.1l1.7-6.5h1.8l1.7,6.5
			c0.3,1.1,0.5,2.1,0.8,3.1h0.1c0.2-1.1,0.5-2.1,0.7-3.1l1.6-6.5h1.8l-3,11.2h-2.3l-1.6-6c-0.3-1.1-0.5-2.1-0.8-3.2h-0.1
			c-0.2,1.2-0.5,2.2-0.8,3.3l-1.6,6h-2.2L329.1,177.1z"/>
		<path class="st1" d="M346.7,173.6c0-0.8,0.6-1.2,1.3-1.2c0.8,0,1.3,0.5,1.3,1.2c0,0.7-0.6,1.2-1.3,1.2
			C347.2,174.8,346.7,174.3,346.7,173.6z M347,177.1h1.9v11.2H347V177.1z"/>
		<path class="st1" d="M353,184.8v-6.2h-1.7v-1.4l1.7-0.1l0.2-3.1h1.6v3.1h3v1.5h-3v6.2c0,1.4,0.4,2.2,1.7,2.2
			c0.4,0,0.9-0.2,1.3-0.3l0.4,1.4c-0.6,0.2-1.4,0.4-2.1,0.4C353.8,188.6,353,187.1,353,184.8z"/>
		<path class="st1" d="M360.5,171.9h1.9v4.5l-0.1,2.3c1.1-1,2.2-1.8,3.7-1.8c2.4,0,3.4,1.5,3.4,4.4v7.1h-1.9v-6.8c0-2.1-0.6-3-2.1-3
			c-1.2,0-1.9,0.6-3.1,1.7v8.1h-1.9V171.9z"/>
		<path class="st1" d="M377.8,173.2h2.3l2.9,8.1c0.4,1,0.7,2.1,1.1,3.2h0.1c0.4-1.1,0.7-2.1,1.1-3.2l2.9-8.1h2.3v15.1h-1.8V180
			c0-1.3,0.1-3.1,0.2-4.5h-0.1l-1.2,3.5l-2.9,7.8h-1.3l-2.9-7.8l-1.2-3.5h-0.1c0.1,1.3,0.2,3.2,0.2,4.5v8.3h-1.7L377.8,173.2
			L377.8,173.2z"/>
		<path class="st1" d="M393.6,185.4c0-2.4,2.1-3.7,6.9-4.2c0-1.4-0.5-2.8-2.3-2.8c-1.3,0-2.5,0.6-3.3,1.2l-0.8-1.3
			c1-0.7,2.6-1.4,4.4-1.4c2.7,0,3.9,1.8,3.9,4.6v6.9h-1.6l-0.2-1.3h-0.1c-1.1,0.9-2.3,1.6-3.7,1.6
			C395,188.6,393.6,187.4,393.6,185.4z M400.5,185.6v-3.1c-3.7,0.5-5,1.4-5,2.8c0,1.3,0.9,1.8,2,1.8
			C398.5,187,399.4,186.5,400.5,185.6z"/>
		<path class="st1" d="M405.9,177.1h1.6l0.2,2h0.1c0.8-1.4,1.9-2.3,3.2-2.3c0.5,0,0.9,0.1,1.2,0.2l-0.4,1.7
			c-0.4-0.1-0.6-0.2-1.1-0.2c-1,0-2.1,0.7-2.8,2.6v7.2h-1.9L405.9,177.1L405.9,177.1z"/>
		<path class="st1" d="M413.9,171.9h1.9V183h0.1l4.8-5.9h2.1l-3.7,4.5l4.2,6.7h-2.1l-3.3-5.4l-2.1,2.4v2.9h-1.9L413.9,171.9
			L413.9,171.9z"/>
		<path class="st1" d="M424.1,182.7c0-3.6,2.3-5.9,4.8-5.9c1.3,0,2.2,0.5,3.1,1.3l-0.1-1.9v-4.3h1.9v16.4h-1.6l-0.2-1.3h-0.1
			c-0.9,0.9-2.1,1.6-3.4,1.6C425.9,188.6,424.1,186.5,424.1,182.7z M432,185.5v-5.9c-1-0.9-1.8-1.2-2.7-1.2c-1.8,0-3.2,1.7-3.2,4.3
			c0,2.7,1.1,4.3,3.1,4.3C430.2,187,431.1,186.5,432,185.5z"/>
		<path class="st1" d="M436.8,182.7c0-3.7,2.4-5.9,5.2-5.9c2.8,0,5.2,2.1,5.2,5.9c0,3.7-2.4,5.9-5.2,5.9
			C439.3,188.6,436.8,186.4,436.8,182.7z M445.3,182.7c0-2.6-1.3-4.3-3.2-4.3s-3.2,1.7-3.2,4.3s1.3,4.3,3.2,4.3
			S445.3,185.3,445.3,182.7z"/>
		<path class="st1" d="M448.7,177.1h1.9l1.6,6.5c0.2,1.1,0.5,2.1,0.7,3.1h0.1c0.2-1.1,0.5-2.1,0.8-3.1l1.7-6.5h1.8l1.7,6.5
			c0.3,1.1,0.5,2.1,0.8,3.1h0.1c0.2-1.1,0.5-2.1,0.7-3.1l1.6-6.5h1.8l-3,11.2h-2.3l-1.6-6c-0.3-1.1-0.5-2.1-0.8-3.2h-0.1
			c-0.2,1.2-0.5,2.2-0.8,3.3l-1.6,6h-2.2L448.7,177.1z"/>
		<path class="st1" d="M466.6,177.1h1.6l0.2,1.6h0.1c1.1-1.1,2.2-1.9,3.7-1.9c2.4,0,3.4,1.5,3.4,4.4v7.1h-1.9v-6.8
			c0-2.1-0.6-3-2.1-3c-1.2,0-1.9,0.6-3.1,1.7v8.1h-1.9L466.6,177.1L466.6,177.1z"/>
	</g>
</g>
</svg>
