<?xml version="1.0" encoding="utf-8"?>
<!-- Generator: Adobe Illustrator 25.1.0, SVG Export Plug-In . SVG Version: 6.00 Build 0)  -->
<svg version="1.1" id="_圖層_1" xmlns="http://www.w3.org/2000/svg" xmlns:xlink="http://www.w3.org/1999/xlink" x="0px" y="0px"
	 viewBox="0 0 500 300" style="enable-background:new 0 0 500 300;" xml:space="preserve">
<style type="text/css">
	.st0{fill:#95C326;}
	.st1{fill:#888988;}
</style>
<g>
	<g>
		<g>
			<path class="st0" d="M156.2,159.3c-0.4-0.3-0.8-0.8-1.2-1.1c-1-0.9-1.9-1.7-2.9-2.6c-1.1-1-2.2-2-3.3-3c-1.1-1-2.6-1.9-2.8-3.6
				c-0.1-1,0.3-2,0.7-3c0.2-0.6,0.4-1.2,0.6-1.8c0.5-1.7,1-3.3,1.5-5c0.7-2.6,1.3-5.2,1.9-7.8c0.7-3.3,1.4-6.7,1.9-10.1
				c0.6-3.9,1.1-7.9,1.5-11.9c0.4-4.4,0.6-8.8,0.6-13.2c0-0.9,0.1-1.7,0.1-2.6c0.1-1.4,0-2.9-1.1-3.8c-1.1-0.9-2.6-1.1-4-1.1H136
				c-1.1,0-3.4,0.5-3.2-1.3c0-0.4,0.1-0.8,0.2-1.2c0.3-2,0.4-4,0.6-6c0.2-2,0.4-4,0.6-6c0,0,1.6-5.6-4-5.8l-7.2-0.2
				c0,0-4.1-0.7-4.5,2.4l-0.8,12.1c0,0,0.2,5.2-4.4,5.8h-1.9c-0.9,0-2.1-0.2-2.9,0.2c-0.7,0.3-1.4,1-1.8,1.6
				c-0.6,0.7-0.9,1.7-0.9,2.6v6.6c0,0,0.8,3.6,4.8,3.6h2.4c0,0,1-0.2,1,3.6c0,0-3.2,22.6-6,29.6c0,0-2,3.8,2,6l13.3,9.1
				c0,0,3,2,1.8,3.6c0,0-7.9,8.4-17.1,13.1c0,0-3.4,1.8-0.6,5.2l6.6,7.9c0,0,2.5,2.9,5.2,0.2c0,0,14.4-9.2,18.9-17.9l7.7,9.4
				c0,0,2.8,3,5-0.2C150.8,173,160.8,162.7,156.2,159.3L156.2,159.3z M132.6,140c0,0-0.4,0.6-1.3-0.2c-0.3-0.2-0.5-0.4-0.8-0.5
				c-1.1-0.7-2.2-1.5-3.4-2.2c-0.5-0.3-1-0.7-1.5-1c-0.4-0.3-0.9-0.5-1.1-1c-0.2-0.4-0.1-0.9,0-1.4c0.1-0.6,0.2-1.3,0.3-1.9
				c0.2-0.9,0.3-1.9,0.6-2.8c0.2-1,0.5-2,0.7-3c0.5-2.6,1-5.1,1.5-7.7c0.4-2.2,0.9-4.5,1.3-6.7c0.2-1,0.4-1.9,0.5-2.9
				c0,0,0.4-5.3,4.5-5.4c1,0,1.9,0,2.9,0c0.8,0,1.6,0.3,2,1c0.3,0.5,0.2,1.1,0.1,1.7c-0.1,1-0.2,2-0.2,3c-0.2,2.7-0.5,5.4-0.9,8.1
				c-0.4,3.1-0.8,6.2-1.4,9.3c-0.5,2.9-1.1,5.8-1.9,8.6C134.1,136.6,133.5,138.4,132.6,140L132.6,140z"/>
			<path class="st0" d="M215.5,118.1h-13.2c-0.9,0-1.8-0.1-2.7-0.3c-3-1.1-3.2-6-0.6-9.7c2.6-3.6,2.3-3.2,3.4-4.7
				c1.5-2.1,2.9-4.1,4.4-6.1c1.3-1.8,2.5-3.5,3.8-5.3c0.5-0.8,1.1-1.5,1.6-2.3c0,0,2.9-4.1,2.9-8.5v-2.5c0,0,0.8-6.6-6.6-6.6h-44.6
				c0,0-5.4-0.5-5.4,4v6.9c0,0-0.6,4.6,5.5,4.6h27.9c0,0,1.2,0.2,0.5,1.3l-7.8,10.6c0,0-4.2,3.8-4.2,10v2.5c0,1.5,0,3.1-0.8,4.4
				c-0.7,1.1-1.8,1.9-3.2,2h-16c0,0-4.7-0.4-4.7,4v7.5c0,0-0.1,3.7,4.7,3.7h15.4c0,0,4.3-0.2,4.3,4v25.9c0,0,0.6,4-4.2,4h-9.4
				c0,0-4.5-0.1-3.5,4.1l1.6,7.4c0,0,0.6,4,7.3,4c0,0,17.4,0.2,20.2-1.7c0,0,4.7-0.5,4.7-10.7v-32.2c0,0,0-4.6,4.3-4.6h15.3
				c0,0,4.4-0.2,4.4-4.1v-6.9C220.9,122.6,221.5,118.1,215.5,118.1L215.5,118.1z"/>
			<path class="st0" d="M333,127.1h-30.5c-0.4,0-3.3,0.1-4.2-0.6c-0.5-0.4-1-0.8-1.1-1.4c-0.2-1-0.2-2.1,0.4-2.9
				c0.7-0.9,2-1.2,3.1-1.2H325c0,0,5.6,0.5,5.6-5.3V96.2c0,0,1.5-6.9-5.6-6.9h-70.4c-0.7,0-1.4-0.2-2.1-0.5c-1-0.5-2.2-1.5-1.8-2.8
				c0.5-1.4,2-1.2,3.2-1.2c1.6,0,3.3-0.1,4.9-0.1c2.2-0.1,4.5-0.1,6.7-0.2c2.7-0.1,5.3-0.2,8-0.3c3-0.1,5.9-0.2,8.9-0.3
				c3.1-0.1,6.2-0.3,9.3-0.4c3.1-0.1,6.2-0.3,9.2-0.5c2.9-0.2,5.8-0.3,8.7-0.5c2.6-0.2,10.6-0.9,12.1-1c1.3-0.1,5.5-1,6.2-1.5
				c0.7-0.5,1.1-0.9,1.5-1.6c0.2-0.3,0.3-0.8,0.4-1.2c0.1-0.8-0.3-1.5-0.6-2.2c-0.3-0.6-1.8-3.5-2.2-4.4c0,0-2.1-3.8-8.4-2.6
				c0,0-64.7,5.3-78.2,4.2c0,0-5.5-0.2-5.5,5c0,0,0.9,48-0.9,55.7c0,0-2.7,22.1-10.1,34.4c0,0-3.6,6.4,3.5,7.5l10.8,0.3
				c0,0,4.5,0,5.9-5.7l5.7-23.7c0,0,1.4-5,5.2-5h12.5c0,0,2.7,0.4,2.7,2.1c-0.2,1.2-1.1,5.3-3.7,10.1c-2.8,4.8-7.7,10.5-16.3,15
				c-0.1,0.1-1,0.5-1,0.5c0,0-4.6,2.1-1.9,4.4l9.6,7.8c0,0,2.6,3,6.4-0.1c0,0,3.2-2.2,7-5.7c3.4-3,7.7-7.6,10.5-13.1
				c0,0,1.8-3,6.2-3h22.1c0,0,6-0.7,6,4c0,0,0.1,5.4-6.2,5.4l-12.8-0.3c0,0-5.5-1.1-4.7,4.4l1.2,6c0,0,0.9,4.4,6.9,4.4
				c0,0,24.6,1.3,28.4-7.4c0,0,2.9-5.6,3.3-11.4l1.2-11c0,0,1.7-6.5-4.5-6.5h-38.3c0,0-4.2-0.5-3.5-3.6c0,0,0.4-2.1,3.3-2.1h43.2
				c0,0,6.5,0.8,6.5-4.5v-4C339,132.4,339.9,127.1,333,127.1L333,127.1z M250.5,126.7c-0.1-0.1-0.2-0.1-0.3-0.2
				c-0.6-0.6-0.9-1.3-0.9-2.1c0-0.9,0.1-1.6,0.7-2.4c1-1.3,2.5-1,3.9-1c1.2,0,23.8-0.2,24.9,0.2c0.9,0.3,1.5,1,1.9,1.9
				c0.4,1.1,0.2,2.6-0.8,3.4c-1,0.9-2,0.8-3.3,0.8c-2.6,0-22.9,0-23.6-0.1C252.2,127,251.3,127.2,250.5,126.7L250.5,126.7z
				 M283.9,108.8c0,0-27,0-29.2,0c-2.1,0-4.5,0.6-5.7-1.6c-0.5-0.8-0.4-1.8-0.4-2.7c0.2-1.8,1.9-3.1,3.6-3.1
				c4.2-0.1,8.4,0.1,12.7,0.1c4.1,0,8.2,0,12.3,0.1c1.9,0,9.8,0,11.8,0c4.2,0,19.8-0.2,23.4-0.1c3.5,0.1,4.2,4.7,2,6.8
				c-0.4,0.4-0.8,0.4-1.3,0.4C311.6,109,285.9,108.8,283.9,108.8L283.9,108.8z"/>
		</g>
		<path class="st0" d="M462.7,168.8c0-0.4,0-0.8,0-1.2V73.8c0-5.8-7.1-5-7.1-5h-57.7c-5,0-5.1,4.8-5.1,4.8v40.5c0,2.4-1,1-1,1
			l-2.2-8.4c-0.7-1.9-2.8-1.1-2.8-1.1l-5.6,1.2c-2.2,0.4-0.1-3.2-0.1-3.2c6.1-10.3,9.6-21.2,9.6-21.2c0.7-1.6-0.7-2.5-0.7-2.5
			l-9.8-2.4c-1.9-0.6-2.7,1.4-2.7,1.4c-0.2,2.1-5.7,15-5.7,15c-0.9,2.5-2.8,0-2.8,0c-1.3-1.3,0.2-3,0.2-3c2.8-4.4,7.8-18.1,7.8-18.1
			c0.6-1.2-0.3-2.3-0.3-2.3l-10.5-4.4c-1.9-0.7-2.2,1.5-2.2,1.5c0.3,0.4-6.3,17.6-6.3,17.6c-2.8-1.2-3.4,1.2-3.4,1.2
			c-1,1.7-2.1,3.3-3.1,5c-0.6,1-1.4,2-1.6,3.2c-0.1,0.5-0.1,1.1,0.3,1.5c0.5,0.8,6.3,4.6,7.5,5.6c1.6,1.3,3.1,2.6,4.7,4
			c2.2,1.9,0.6,5-0.8,6.9c-1.2,1.7-2.7,4.5-5,4.8c-1.2,0.1-2.4,0.1-3.5,0.2c-3.6,0.4-2.4,3-2.4,3c0.6,1.6,2,8.1,2,8.1
			c0.2,3,2.6,2.8,2.6,2.8l7.9-1.2c3,0,2.6,2.2,2.6,2.2l-0.2,3.2c-0.4,3-1.4,2.6-1.4,2.6l-8.7-1.2c-3-0.4-2.6,4.3-2.6,4.3
			c-0.2,3.8-2.2,25.2-2.2,25.2c-1,4.6,3,4.8,3,4.8l4.4,1c4.5,0.8,4.9-2.6,4.9-2.6l1-13.1c0-1.8,0.5-8.3,0.8-8.7
			c0.3-0.5,0.8-0.2,0.9,0.3c0.2,0.8,0.1,5,0.1,6.2v19.9c0,1.3,0.1,3.3,1.4,4.1c0.8,0.5,2.3,0.2,3.3,0.2c1.6,0,3.2-0.1,4.8-0.1
			c1.1-0.1,2.3-0.1,3.3-0.8c0.7-0.5,1.1-1.2,1-2.1v-27.9c0-4.4,1-2.4,1-2.4l2.4,16.6c0.2,1.5,1.2,2.8,2.8,2.9
			c0.8,0.1,1.6-0.2,2.4-0.5c0.8-0.3,1.7-0.3,2.5-0.5c2.4,0,2.4,1.8,2.4,1.8v9.1c0,3.8,3,3.8,3,3.8h7.3c3.8,0,4.2-3,4.2-3v-40.6
			c0-2.8,3-2.6,3-2.6c2.4,0,2.2,2.8,2.2,2.8v14.8c0,6.5,5.1,7.1,5.1,7.1h25.2c2.6,0,2.4-3,2.4-3v-8.1c0-2.4-2.4-2.6-2.4-2.6h-12.3
			c-4.4,0-4-4-4-4v-4c0-3,3.2-2.8,3.2-2.8h14.7c4.4,0,3.8,3.4,3.8,3.4v26.5c-0.2,1.7-3.3,1.9-4.5,2c-2.5,0.3-5,0.3-7.5,0.2
			c-0.9,0-2-0.3-2.9-0.2c-3.1,0.4-3.1,3.2-3.1,5.6v5.5c0,3.4,2.4,4,2.4,4c3.1,1.1,6.5,1.5,9.7,1.9c4.3,0.5,8.5,0.6,12.5-1.1
			c2.5-1.1,4.9-2.7,6.3-5.1C462.5,173.7,462.7,171.1,462.7,168.8L462.7,168.8z M375.6,115.5c-2.7,0.3-2.1-0.6-2.1-0.6l3.4-4.1
			c1.1,1.4,1.1,3.4,1.1,3.4C377.9,115.6,375.6,115.4,375.6,115.5L375.6,115.5z M391.8,145.1l-1-5.5c-0.7-2.6-2.1-1.8-2.1-1.8
			l-7.1,1.8c-2.7,0.8-2.3-2.9-2.3-2.9l-0.3-5.1c-0.1-3.8,1.1-3.3,1.1-3.3c1.8,0,1.8,3,1.8,3c0.4,2.5,8.2,0.7,8.2,0.7
			c2.5-0.6,2.6,2.1,2.6,2.1l0.1,8.1C392.9,148,391.8,145.1,391.8,145.1L391.8,145.1z M419.1,119.9h-10.8c0,0-0.9,0.1-0.9-0.9v-4.5
			c0,0-0.2-1.1,1-1.1h11c0,0,0.9-0.2,0.9,0.9v4.9C420.2,119.3,420.3,119.9,419.1,119.9L419.1,119.9z M432.9,85.7l-4.1,13
			c-0.7,2.2-2.3,1.7-2.3,1.7h-3c-2.3,0-1.5-0.8-1.5-0.8l3.3-1.4c2-0.6,0.9-2.2,0.9-2.2c-0.5-2-4.5-10.3-4.5-10.3c-1-2-3-1-3-1
			l-7.9,3.7c-2.3,0.9-1.3,2.7-1.3,2.7c1.7,2.7,3.6,7.8,3.6,7.8c0.5,1.7-1.1,1.3-1.1,1.3h-2.6c-2.2,0-2-1.5-2-1.5V84.1
			c0-1.7,2.4-1.3,2.4-1.3h36.4c2.1,0,2.1,1.5,2.1,1.5V99c0,1.7-1.3,1.4-1.3,1.4h-2.6c-1.5,0.1-1.1-0.8-1.1-0.8l2.7-9
			c0.7-1.9-0.7-2.5-0.7-2.5l-9.9-3.5C433.4,84,432.9,85.7,432.9,85.7L432.9,85.7z M447.1,119.9h-10.8c0,0-0.9,0.1-0.9-0.9v-4.5
			c0,0-0.2-1.1,1-1.1h11c0,0,0.9-0.2,0.9,0.9v4.9C448.3,119.3,448.4,119.9,447.1,119.9L447.1,119.9z"/>
	</g>
	<g>
		<path class="st1" d="M53,172.5c0,0,2.8,0.1,2.8,2.9v15c0,0-0.3,3.1,3.1,3.1h14.6c0,0,2.5-0.3,2.5-2.7v-15.5c0,0,0.1-2.8,2.8-2.8
			h13c0,0,2.8,0.1,2.8,2.8v54.6c0,0-0.3,2.5-2.8,2.5H81.5c0,0-2.7-0.1-2.7-3.1s0-10.6,0-10.6s0-2.5,2.3-2.9c0,0,2.6,0.1,0.7-1.8
			c-1.9-1.9-13.6-12.4-13.6-12.4s-2.1-2.5-5,0.5C60.3,205,51,213.4,51,213.4s-2.9,2.3,0,2.4c0,0,2,0.1,2.3,2.6v11.1
			c0,0,0.3,2.9-3.4,2.9H40c0,0-2.4,0-2.7-2.6v-54.5c0,0,0.1-2.6,2.7-2.8L53,172.5L53,172.5z"/>
		<path class="st1" d="M157.9,189h10.8c0,0,3-0.2,3,3.1v19c0,0,0.1,5.2,0.7,6.2c0.5,1,1.6,3.3,5.6,3.1c0,0,3.2-0.2,4.7-2.7
			c1.5-2.5,1.5-5.9,1.5-5.9l0.1-20.2c0,0,0.2-2.4,2.5-2.6h11.2c0,0,2.4,0,2.8,2.5v38.2c0,0-0.1,2.3-2.4,2.7H188c0,0-2.6-0.1-2.6-3.2
			c0,0,0.2-2.2-0.5-2.5c0,0-0.5-0.4-1.2,0.6c-0.7,0.9-5.4,5.7-12.1,6c-6.7,0.3-11.1-1.1-14.4-6.4c0,0-1.5-2.4-1.9-6.3
			c-0.4-3.9-0.2-8.9-0.2-8.9v-20.1C155,191.6,155.3,189,157.9,189L157.9,189z"/>
		<path class="st1" d="M366,189h10.8c0,0,3-0.2,3,3.1v19c0,0,0.1,5.2,0.7,6.2c0.5,1,1.6,3.3,5.6,3.1c0,0,3.2-0.2,4.7-2.7
			c1.5-2.5,1.5-5.9,1.5-5.9l0.1-20.2c0,0,0.2-2.4,2.5-2.6h11.3c0,0,2.4,0,2.8,2.5v38.2c0,0-0.1,2.3-2.4,2.7h-10.5
			c0,0-2.6-0.1-2.6-3.2c0,0,0.2-2.2-0.5-2.5c0,0-0.5-0.4-1.2,0.6c-0.7,0.9-5.4,5.7-12.1,6c-6.7,0.3-11.1-1.1-14.4-6.4
			c0,0-1.5-2.4-1.9-6.3c-0.4-3.9-0.2-8.9-0.2-8.9v-20.1C363.2,191.6,363.5,189,366,189L366,189z"/>
		<path class="st1" d="M318.2,185.4H357c0,0,2.2,0.1,2.7,2.4v8c0,0-0.2,2.3-2.9,2.5c-2.7,0.2-21.5,0-21.5,0s-2.5-0.1-2.9,2.6v5.3
			c0,0,0.1,2.6,3.1,2.6h17.4c0,0,2.4,0.1,2.7,2.5v7.2c0,0-0.4,2.4-3.1,2.4h-17c0,0-2.5-0.3-3,2.4v6.3c0,0,0.2,2.9-3.4,2.9h-12.5
			c0,0-2.4,0.2-2.7-3.1v-41C313.9,188.2,313.7,184.9,318.2,185.4L318.2,185.4z"/>
		<path class="st1" d="M419.1,189h10.6c0,0,2.2,0.4,2.4,2.7v1.8c0,0,0.3,2.8,2.6,0c2.3-2.8,7.5-6.7,16.8-5.2c9.3,1.5,10.4,9.7,11,15
			c0.6,5.3,0,26.5,0,26.5s-0.3,2.5-2.9,2.5h-11.4c0,0-2.4-0.1-2.4-3.3l0-20.9c0,0,0.5-7.5-5.7-7.2c-6.2,0.3-6.5,6-6.6,7.4
			c-0.1,1.3-0.2,20.7-0.2,20.7s0.2,3.3-2.7,3.3h-11.4c0,0-2.5-0.2-2.5-2.9v-37.9C416.6,191.6,416.8,189,419.1,189L419.1,189z"/>
		<path class="st1" d="M99.9,210.8c0-6.6,2.2-12.1,6.7-16.4c4.5-4.3,10.5-6.4,18.1-6.4c8.7,0,15.3,2.5,19.7,7.6
			c3.6,4.1,5.3,9.1,5.3,15c0,6.7-2.2,12.1-6.6,16.4c-4.4,4.3-10.5,6.4-18.4,6.4c-7,0-12.6-1.8-16.9-5.3
			C102.6,223.7,99.9,217.9,99.9,210.8L99.9,210.8z M116.6,210.7c0,3.9,0.8,6.7,2.3,8.6c1.6,1.8,3.5,2.8,5.9,2.8
			c2.4,0,4.4-0.9,5.9-2.7c1.5-1.8,2.3-4.7,2.3-8.8c0-3.8-0.8-6.6-2.3-8.4c-1.5-1.8-3.5-2.8-5.8-2.8c-2.4,0-4.4,0.9-6,2.8
			C117.4,204.1,116.6,206.9,116.6,210.7L116.6,210.7z"/>
		<g>
			<path class="st1" d="M71.6,225.4c-1.5,1.2-3.5,1.8-5.6,1.9c-2.1,0-4.1-0.6-5.6-1.8c-1.6-1.2-2.6-2.9-2.7-4.7
				c-0.1-0.3,0.1-0.6,0.3-0.8c0.2-0.3,0.5-0.4,0.8-0.4c0.3,0,0.6,0.1,0.9,0.3c0.3,0.2,0.4,0.5,0.4,0.8c0.1,1.1,0.8,2.2,1.8,3.1
				c1.1,0.9,2.6,1.3,4.1,1.3c1.5,0,3-0.5,4.1-1.4c1.1-0.8,1.7-1.9,1.8-3.1c0-0.3,0.2-0.6,0.4-0.8c0.3-0.2,0.6-0.3,0.9-0.3
				c0.3,0,0.6,0.2,0.8,0.4c0.2,0.2,0.3,0.5,0.3,0.8C74.1,222.5,73.2,224.1,71.6,225.4L71.6,225.4z"/>
			<path class="st1" d="M61.1,211.3c0.9,0,1.6,1,1.9,2.2l-1.5,0.8l1.5,0.8c-0.2,1.5-0.9,2.6-1.8,2.6c-1.1,0-2-1.4-2-3.2
				C59.2,212.7,60.1,211.3,61.1,211.3L61.1,211.3z"/>
			<path class="st1" d="M70.3,211.2c0.9,0,1.6,0.9,1.9,2.2l-1.4,0.8l1.5,0.8c-0.2,1.5-0.9,2.6-1.8,2.6c-1.1,0-1.9-1.4-2-3.2
				C68.4,212.6,69.2,211.2,70.3,211.2L70.3,211.2z"/>
		</g>
		<path class="st1" d="M280,188.4c-26,0-25.5,21.4-25.1,26.8c0.2,3.2,2.1,9.2,7.4,13.5h-0.1c0,0,0.8,0.8,2.5,1.7
			c2.7,1.6,6.2,2.8,10.4,3.2c1.9,0.2,4.1,0.3,6.5,0.2c2.5-0.1,6-0.4,9.6-1.5c0,0,0,0,0.1,0h0c4.6-1.4,9.2-4,11.6-9
			c0,0,1.1-2.4-2.2-2.5c-3-0.1-5.9-0.1-8.9,0c-1,0-2,0-3,0c-0.9,0-1.6,0-2.2,0.7c-0.4,0.5-1.1,0.9-1.6,1.2c-1.5,0.9-3.3,1.4-5,1.4
			c-0.8,0-1.5-0.1-2.2-0.3c-5.8-1.7-7.4-8.6-2.1-8.4h26.8c0,0,2.7,0.2,2.7-2.7C305.1,209.5,306,188.4,280,188.4L280,188.4z
			 M285.7,207.2h-11.5c0,0-2.5-0.2-2.1-2.4c0.3-2.2,2.2-6.6,7.9-6.5c5.7-0.1,7.5,4.3,7.9,6.5C288.2,207,285.8,207.2,285.7,207.2
			L285.7,207.2z"/>
		<path class="st1" d="M205.4,219C205.4,219,205.4,218.9,205.4,219c0.5-0.6,1-0.6,1.6-0.6c1.2-0.1,2.4-0.1,3.6-0.2
			c2.1-0.1,4.1-0.2,6.1-0.3c0.8,0,1.8-0.3,2.5,0.1c0.7,0.3,1,1.4,1.2,2.1c0.3,0.9,0.8,1.7,1.4,2.4c1.6,1.8,4,2.6,7,2.6
			c2.3,0,4-0.5,5.3-1.3c1.2-0.9,1.8-1.9,1.8-3.1s-0.6-2.1-1.8-3s-3.9-1.7-8.2-2.5c-7-1.3-12-3.1-14.9-5.3c-3-2.2-4.5-5-4.5-8.4
			c0-2.2,0.8-4.3,2.3-6.3c1.5-2,3.8-3.5,6.9-4.7c3.1-1.1,7.3-1.7,12.7-1.7c6.6,0,11.6,1,15.1,3.1c1.6,0.9,3,2.2,4,3.8
			c1,1.4,2.3,3.7,1.1,5.4c-0.6,0.9-1.5,0.8-2.4,0.9c-1.4,0.1-2.8,0.1-4.3,0.2c-1.1,0.1-2.3,0.1-3.4,0.2c-0.9,0-2.5,0.4-3.3-0.2
			c-0.7-0.5-0.9-1.3-1.3-2c-0.4-0.7-1-1.4-1.7-1.9c-1.3-0.9-3-1.3-5.3-1.3c-1.8,0-3.2,0.3-4.2,1c-0.9,0.7-1.4,1.5-1.4,2.4
			c0,0.7,0.4,1.3,1.2,1.9c0.7,0.6,2.5,1.1,5.3,1.6c7,1.3,11.9,2.5,15,3.8c3,1.3,5.2,2.9,6.6,4.8c1.4,1.9,2.1,4,2.1,6.4
			c0,2.8-0.9,5.3-2.7,7.7c-1.8,2.3-4.4,4.1-7.7,5.3c-3.3,1.2-7.4,1.8-12.4,1.8c-8.8,0-14.8-1.4-18.2-4.3c-1.6-1.3-3-2.9-3.9-4.8
			c-0.5-0.9-0.9-1.9-1.2-2.9C205.1,220.7,204.7,219.8,205.4,219L205.4,219z"/>
	</g>
</g>
</svg>
