<?xml version="1.0" encoding="utf-8"?>
<!-- Generator: Adobe Illustrator 24.2.1, SVG Export Plug-In . SVG Version: 6.00 Build 0)  -->
<svg version="1.1" id="Layer_1" xmlns="http://www.w3.org/2000/svg" xmlns:xlink="http://www.w3.org/1999/xlink" x="0px" y="0px"
	 viewBox="0 0 500 300" style="enable-background:new 0 0 500 300;" xml:space="preserve">
<style type="text/css">
	.st0{fill:url(#XMLID_2_);}
	.st1{fill:url(#XMLID_3_);}
	.st2{fill:url(#XMLID_4_);}
	.st3{fill:url(#XMLID_5_);}
	.st4{fill:#FFFFFF;}
</style>
<g>
	
		<linearGradient id="XMLID_2_" gradientUnits="userSpaceOnUse" x1="196.9538" y1="1202.1362" x2="344.1324" y2="1113.3065" gradientTransform="matrix(1 0 0 1 0 -948)">
		<stop  offset="0" style="stop-color:#FCEE39"/>
		<stop  offset="1" style="stop-color:#F37B3D"/>
	</linearGradient>
	<path id="XMLID_3041_" class="st0" d="M359.9,162.7c1.7-1.5,2.6-3.5,2.8-6.1c0.2-4.8-3.5-8.9-8.3-9.1c-2.2-0.2-4.6,0.7-6.1,2l0,0
		l-157.2,86.2c-3.5,1.5-6.8,4.1-8.9,7.6c-5.4,8.9-2.4,20.7,6.8,26.1c6.3,3.7,14.2,3.5,20-0.4l0,0l0,0c0.4-0.4,0.9-0.7,1.3-0.9
		l146.3-102.8C357.5,164.9,359.5,163.4,359.9,162.7L359.9,162.7L359.9,162.7z"/>
	
		<linearGradient id="XMLID_3_" gradientUnits="userSpaceOnUse" x1="228.1402" y1="988.8494" x2="362.4746" y2="1106.4552" gradientTransform="matrix(1 0 0 1 0 -948)">
		<stop  offset="0" style="stop-color:#EF5A6B"/>
		<stop  offset="0.57" style="stop-color:#F26F4E"/>
		<stop  offset="1" style="stop-color:#F37B3D"/>
	</linearGradient>
	<path id="XMLID_3049_" class="st1" d="M360.4,150.1L360.4,150.1L240.6,32.5c-2.6-2.6-6.5-4.6-10.9-4.6c-8.1,0-14.4,6.5-14.4,14.4
		l0,0c0,3.9,1.5,7.4,3.9,10l0,0l0,0c0.7,0.7,1.5,1.3,2.2,2L348,162.5l0,0c1.5,1.3,3.5,2.2,5.7,2.4c4.8,0.2,8.9-3.5,9.1-8.3
		C363,154.2,361.9,151.8,360.4,150.1z"/>
	
		<linearGradient id="XMLID_4_" gradientUnits="userSpaceOnUse" x1="236.664" y1="1095.4537" x2="157.0499" y2="1045.7345" gradientTransform="matrix(1 0 0 1 0 -948)">
		<stop  offset="0" style="stop-color:#7C59A4"/>
		<stop  offset="0.3852" style="stop-color:#AF4C92"/>
		<stop  offset="0.7654" style="stop-color:#DC4183"/>
		<stop  offset="0.957" style="stop-color:#ED3D7D"/>
	</linearGradient>
	<path id="XMLID_3042_" class="st2" d="M244.5,139.6c-0.2,0-74-58.1-75.6-59.2l0,0l0,0c-1.1-0.7-2.2-1.1-3.5-1.7
		c-10.9-4.1-22.9,1.5-27,12.4c-3.5,9.6,0.4,20,8.7,25.3l0,0l0,0c1.3,0.7,2.4,1.3,3.7,1.7c0.7,0.4,85.1,35.3,85.1,35.3l0,0
		c3.5,1.5,7.4,0.7,9.6-2.2C248.7,147.5,248,142.5,244.5,139.6z"/>
	
		<linearGradient id="XMLID_5_" gradientUnits="userSpaceOnUse" x1="235.1877" y1="982.8825" x2="157.4619" y2="1047.0771" gradientTransform="matrix(1 0 0 1 0 -948)">
		<stop  offset="0" style="stop-color:#EF5A6B"/>
		<stop  offset="0.364" style="stop-color:#EE4E72"/>
		<stop  offset="1" style="stop-color:#ED3D7D"/>
	</linearGradient>
	<path id="XMLID_3057_" class="st3" d="M229.7,27.9c-3.3,0-6.1,1.1-8.7,2.8l-74.5,50.3c-0.2,0.2-0.4,0.2-0.4,0.4h-0.2l0,0
		c-3.3,2.2-5.9,5.7-7.4,9.6c-3.9,10.9,1.5,23.1,12.4,27c6.8,2.6,14.2,1.3,19.6-2.6l0,0l0,0c1.3-0.9,2.4-2,3.5-3l64.9-58.6l0,0
		c3.5-2.6,5.7-6.8,5.7-11.5l0,0C244.5,34.5,238,27.9,229.7,27.9z"/>
	<g id="XMLID_3008_">
		<rect id="XMLID_3033_" x="202.3" y="98.3" width="95.8" height="95.8"/>
		<rect id="XMLID_3032_" x="210.6" y="176" class="st4" width="35.9" height="6.1"/>
		<g id="XMLID_3009_">
			<path id="XMLID_3030_" class="st4" d="M210.1,123.3l2.8-2.6c0.7,0.9,1.5,1.5,2.4,1.5c1.1,0,1.7-0.7,1.7-2.2v-10h4.4v10
				c0,2-0.7,3.5-1.5,4.4s-2.4,1.5-4.4,1.5C212.7,125.9,211.2,124.8,210.1,123.3z"/>
			<path id="XMLID_3028_" class="st4" d="M222.3,110.2h12.6v3.5h-8.3v2.4h7.4v3.5h-7.4v2.4h8.5v3.7h-12.6L222.3,110.2z"/>
			<path id="XMLID_3026_" class="st4" d="M240.6,113.9h-4.8v-3.7h13.7v3.7h-4.8v11.8h-4.4v-11.8H240.6z"/>
			<path id="XMLID_3022_" class="st4" d="M210.6,129.4h8.1c2,0,3.5,0.7,4.4,1.3c0.7,0.7,0.9,1.5,0.9,2.6l0,0c0,2-0.9,2.8-2.4,3.5
				c2,0.7,3,1.7,3,3.7l0,0c0,2.6-2.2,4.4-5.9,4.4h-8.1C210.6,144.9,210.6,129.4,210.6,129.4z M219.5,134.2c0-0.9-0.7-1.3-2-1.3h-2.8
				v2.8h2.6C218.8,135.5,219.5,135.1,219.5,134.2L219.5,134.2z M218,138.8h-3.5v2.8h3.5c1.3,0,2-0.7,2-1.5l0,0
				C220.1,139.2,219.3,138.8,218,138.8z"/>
			<path id="XMLID_3019_" class="st4" d="M225.1,129.4h7.4c2.4,0,3.9,0.7,5,1.7c0.9,0.9,1.3,2,1.3,3.5l0,0c0,2.4-1.3,3.9-3.3,4.8
				l3.7,5.4h-4.8l-3.3-4.8h-2v4.8h-4.4v-15.5H225.1z M232.3,136.8c1.5,0,2.2-0.7,2.2-2l0,0c0-1.3-0.9-2-2.2-2h-2.8v3.9H232.3z"/>
			<path id="XMLID_3016_" class="st4" d="M243.9,129.4h4.1l6.5,15.7H250l-1.1-2.8h-6.1l-1.1,2.8h-4.6L243.9,129.4z M247.6,138.8
				l-1.7-4.4l-1.7,4.4H247.6z"/>
			<path id="XMLID_3014_" class="st4" d="M255.2,129.4h4.4v15.7h-4.4V129.4z"/>
			<path id="XMLID_3012_" class="st4" d="M260.6,129.4h3.9l6.3,8.3v-8.3h4.4v15.7h-3.7l-6.5-8.5v8.7h-4.4
				C260.6,145.3,260.6,129.4,260.6,129.4z"/>
			<path id="XMLID_3010_" class="st4" d="M275.7,142.7l2.4-2.8c1.5,1.3,3.3,2,5,2c1.1,0,2-0.4,2-1.1l0,0c0-0.7-0.7-0.9-2.6-1.5
				c-3.5-0.7-5.9-1.7-5.9-4.8l0,0c0-2.8,2.2-5,6.1-5c2.6,0,4.8,0.7,6.3,2l-2.2,3c-1.5-0.9-3-1.5-4.4-1.5c-1.1,0-1.5,0.4-1.5,0.9l0,0
				c0,0.7,0.7,0.9,2.6,1.5c3.5,0.7,5.9,2,5.9,4.8l0,0c0,3.3-2.4,5-6.3,5C280.2,145.3,277.4,144.4,275.7,142.7z"/>
		</g>
	</g>
</g>
</svg>
