<?xml version="1.0" encoding="utf-8"?>
<!-- Generator: Adobe Illustrator 25.1.0, SVG Export Plug-In . SVG Version: 6.00 Build 0)  -->
<svg version="1.1" id="Layer_1" xmlns="http://www.w3.org/2000/svg" xmlns:xlink="http://www.w3.org/1999/xlink" x="0px" y="0px"
	 viewBox="0 0 500 300" style="enable-background:new 0 0 500 300;" xml:space="preserve">
<style type="text/css">
	.st0{fill:#5E58A6;}
	.st1{fill:#1A1617;}
	.st2{fill:#B89BC9;}
	.st3{fill:#7E69AF;}
	.st4{fill:none;}
</style>
<g>
	<path class="st0" d="M294.29,191.61c-1.32,1.06-2.98,1.59-5.01,1.59c-1.28,0-2.42-0.22-3.41-0.65c-1-0.43-1.84-1.05-2.53-1.84
		c-0.69-0.79-1.21-1.75-1.57-2.88c-0.36-1.12-0.54-2.37-0.54-3.73c0-1.36,0.19-2.6,0.56-3.71c0.38-1.11,0.92-2.05,1.64-2.84
		c0.71-0.79,1.58-1.39,2.59-1.81c1.01-0.42,2.15-0.62,3.42-0.62c1.94,0,3.56,0.53,4.86,1.59c1.3,1.06,2.13,2.57,2.48,4.52h-2.93
		c-0.27-1.19-0.81-2.09-1.6-2.69c-0.79-0.61-1.76-0.92-2.9-0.92c-0.69,0-1.34,0.14-1.94,0.42c-0.6,0.28-1.13,0.69-1.58,1.24
		c-0.45,0.55-0.8,1.22-1.06,2.02c-0.26,0.8-0.39,1.73-0.39,2.79c0,1.06,0.12,2,0.37,2.82c0.25,0.82,0.6,1.51,1.05,2.07
		c0.45,0.56,0.97,0.99,1.56,1.28c0.59,0.29,1.24,0.43,1.95,0.43c1.19,0,2.18-0.3,2.97-0.9c0.79-0.6,1.33-1.5,1.6-2.71h2.93
		C296.45,189.04,295.61,190.55,294.29,191.61z"/>
	<path class="st0" d="M306.96,180.06c0.76,0.27,1.44,0.69,2.05,1.24c0.6,0.55,1.09,1.26,1.45,2.1c0.37,0.85,0.56,1.86,0.56,3.03
		c0,1.17-0.19,2.18-0.56,3.03c-0.37,0.85-0.85,1.55-1.45,2.11c-0.6,0.55-1.28,0.96-2.05,1.23c-0.76,0.26-1.54,0.4-2.32,0.4
		s-1.56-0.13-2.32-0.4c-0.76-0.27-1.44-0.67-2.04-1.23s-1.09-1.26-1.46-2.11c-0.37-0.85-0.55-1.86-0.55-3.03
		c0-1.17,0.19-2.18,0.55-3.03c0.37-0.85,0.85-1.55,1.46-2.1s1.28-0.97,2.04-1.24c0.76-0.27,1.54-0.41,2.32-0.41
		S306.19,179.78,306.96,180.06z M301.49,188.39c0.18,0.55,0.43,1.01,0.75,1.37c0.31,0.36,0.68,0.63,1.09,0.82
		c0.42,0.18,0.85,0.28,1.3,0.28c0.45,0,0.88-0.09,1.3-0.28c0.42-0.18,0.78-0.46,1.09-0.82c0.31-0.36,0.56-0.82,0.74-1.37
		c0.19-0.55,0.28-1.21,0.28-1.96c0-0.74-0.09-1.39-0.28-1.95c-0.18-0.56-0.43-1.03-0.74-1.4c-0.31-0.37-0.68-0.65-1.09-0.83
		c-0.42-0.18-0.85-0.28-1.3-0.28c-0.45,0-0.88,0.09-1.3,0.28c-0.42,0.18-0.78,0.46-1.09,0.83c-0.31,0.37-0.56,0.83-0.75,1.4
		c-0.18,0.56-0.28,1.21-0.28,1.95C301.22,187.19,301.31,187.84,301.49,188.39z"/>
	<path class="st0" d="M312.88,192.88v-12.95h2.86v1.81c0.37-0.67,0.87-1.19,1.5-1.55c0.63-0.36,1.38-0.54,2.25-0.54
		c1.01,0,1.82,0.2,2.42,0.6c0.6,0.4,1.06,0.96,1.36,1.68c0.56-0.82,1.2-1.4,1.93-1.76c0.72-0.35,1.48-0.53,2.28-0.53
		c0.77,0,1.43,0.12,1.96,0.36c0.54,0.24,0.98,0.59,1.31,1.03c0.34,0.45,0.58,0.99,0.73,1.61c0.15,0.63,0.23,1.32,0.23,2.09v8.13
		h-2.86v-7.44c0-0.43-0.02-0.86-0.06-1.28c-0.04-0.42-0.13-0.79-0.29-1.12c-0.16-0.33-0.38-0.59-0.69-0.78
		c-0.31-0.19-0.72-0.29-1.25-0.29s-0.97,0.1-1.34,0.3c-0.36,0.2-0.65,0.48-0.88,0.83c-0.22,0.35-0.39,0.78-0.48,1.27
		c-0.1,0.5-0.15,1.04-0.15,1.61v6.88h-2.86v-7.44c0-0.43-0.02-0.86-0.06-1.28c-0.04-0.42-0.14-0.79-0.29-1.12
		c-0.15-0.33-0.38-0.59-0.69-0.78c-0.3-0.19-0.72-0.29-1.25-0.29c-0.53,0-0.98,0.1-1.34,0.3c-0.36,0.2-0.65,0.48-0.88,0.83
		c-0.22,0.35-0.39,0.78-0.48,1.27c-0.1,0.5-0.14,1.04-0.14,1.61v6.88H312.88z"/>
	<path class="st0" d="M334.22,192.88v-12.95h2.86v1.81c0.37-0.67,0.87-1.19,1.5-1.55c0.64-0.36,1.38-0.54,2.25-0.54
		c1.01,0,1.82,0.2,2.42,0.6c0.6,0.4,1.06,0.96,1.36,1.68c0.56-0.82,1.21-1.4,1.93-1.76c0.72-0.35,1.48-0.53,2.29-0.53
		c0.77,0,1.42,0.12,1.96,0.36c0.54,0.24,0.98,0.59,1.31,1.03c0.34,0.45,0.58,0.99,0.74,1.61c0.15,0.63,0.23,1.32,0.23,2.09v8.13
		h-2.86v-7.44c0-0.43-0.02-0.86-0.06-1.28c-0.04-0.42-0.13-0.79-0.29-1.12c-0.15-0.33-0.38-0.59-0.69-0.78
		c-0.3-0.19-0.72-0.29-1.25-0.29c-0.53,0-0.97,0.1-1.34,0.3c-0.36,0.2-0.65,0.48-0.88,0.83c-0.22,0.35-0.38,0.78-0.48,1.27
		c-0.1,0.5-0.14,1.04-0.14,1.61v6.88h-2.86v-7.44c0-0.43-0.02-0.86-0.06-1.28c-0.04-0.42-0.14-0.79-0.29-1.12
		c-0.15-0.33-0.38-0.59-0.69-0.78c-0.31-0.19-0.72-0.29-1.25-0.29s-0.97,0.1-1.34,0.3c-0.36,0.2-0.65,0.48-0.88,0.83
		c-0.22,0.35-0.39,0.78-0.48,1.27c-0.1,0.5-0.15,1.04-0.15,1.61v6.88H334.22z"/>
	<path class="st0" d="M362.01,192.65c-0.65,0.36-1.42,0.54-2.3,0.54c-0.77,0-1.43-0.12-1.97-0.36c-0.54-0.24-0.99-0.59-1.35-1.03
		c-0.35-0.45-0.61-0.99-0.77-1.61c-0.16-0.63-0.24-1.32-0.24-2.09v-8.16h2.86v7.46c0,0.43,0.02,0.86,0.07,1.28
		c0.05,0.42,0.15,0.79,0.31,1.12c0.16,0.33,0.4,0.59,0.72,0.78c0.32,0.19,0.75,0.29,1.27,0.29c0.53,0,0.98-0.1,1.36-0.3
		c0.38-0.2,0.68-0.48,0.9-0.83c0.22-0.35,0.39-0.78,0.49-1.27c0.1-0.5,0.16-1.04,0.16-1.61v-6.91h2.86v12.95h-2.86v-1.78
		C363.17,191.77,362.66,192.29,362.01,192.65z"/>
	<path class="st0" d="M373.56,180.19c0.67-0.36,1.45-0.54,2.37-0.54c0.79,0,1.46,0.12,2.01,0.36c0.55,0.24,1.01,0.59,1.36,1.03
		c0.35,0.45,0.61,0.99,0.78,1.61c0.17,0.63,0.25,1.32,0.25,2.09v8.13h-2.86v-7.44c0-0.43-0.02-0.86-0.07-1.28
		c-0.05-0.42-0.16-0.79-0.32-1.12c-0.17-0.33-0.42-0.59-0.75-0.78c-0.33-0.19-0.76-0.29-1.31-0.29c-0.54,0-1.01,0.1-1.39,0.3
		c-0.39,0.2-0.7,0.48-0.94,0.83c-0.24,0.35-0.41,0.78-0.52,1.27c-0.1,0.5-0.16,1.04-0.16,1.61v6.88h-2.86v-12.95H372v1.81
		C372.37,181.07,372.89,180.55,373.56,180.19z"/>
	<path class="st0" d="M385.69,178.32h-2.86v-2.89h2.86V178.32z M385.69,192.88h-2.86v-12.95h2.86V192.88z"/>
	<path class="st0" d="M395.92,179.98c0.65,0.22,1.23,0.54,1.74,0.95c0.51,0.41,0.95,0.9,1.3,1.48c0.35,0.58,0.59,1.23,0.72,1.95
		h-2.79c-0.13-0.69-0.47-1.25-1.01-1.69c-0.55-0.43-1.21-0.65-2-0.65c-0.45,0-0.88,0.08-1.29,0.25c-0.41,0.17-0.77,0.43-1.08,0.79
		c-0.31,0.36-0.56,0.81-0.75,1.36c-0.18,0.55-0.28,1.2-0.28,1.97c0,0.77,0.09,1.43,0.28,1.98c0.19,0.55,0.43,1.01,0.75,1.37
		c0.31,0.36,0.67,0.62,1.07,0.79c0.4,0.17,0.81,0.25,1.23,0.25c0.35,0,0.7-0.04,1.04-0.12c0.33-0.08,0.65-0.22,0.94-0.41
		c0.29-0.19,0.54-0.44,0.75-0.73c0.21-0.3,0.36-0.66,0.46-1.1h2.79c-0.14,0.75-0.41,1.43-0.79,2.02c-0.38,0.59-0.85,1.09-1.4,1.49
		c-0.54,0.4-1.15,0.71-1.8,0.91c-0.66,0.21-1.33,0.31-2.02,0.31c-0.95,0-1.8-0.17-2.57-0.52c-0.76-0.35-1.41-0.82-1.96-1.42
		c-0.54-0.6-0.97-1.32-1.26-2.14c-0.3-0.83-0.45-1.72-0.45-2.68c0-0.96,0.15-1.86,0.45-2.68c0.3-0.83,0.72-1.54,1.27-2.15
		c0.56-0.61,1.22-1.09,2.01-1.43c0.79-0.35,1.66-0.52,2.62-0.52C394.6,179.65,395.27,179.76,395.92,179.98z"/>
	<path class="st0" d="M403.47,192.92c-0.58-0.18-1.09-0.45-1.52-0.78c-0.42-0.34-0.75-0.74-0.99-1.21c-0.23-0.47-0.35-1.01-0.35-1.6
		c0-0.8,0.23-1.47,0.7-2c0.47-0.53,1.09-0.96,1.89-1.3c0.79-0.34,1.72-0.59,2.77-0.77c1.05-0.18,2.17-0.33,3.36-0.46v-0.24
		c0-0.55-0.07-1.01-0.22-1.38c-0.15-0.38-0.34-0.67-0.59-0.89c-0.25-0.22-0.54-0.37-0.87-0.47c-0.33-0.1-0.67-0.14-1.02-0.14
		c-0.72,0-1.33,0.19-1.82,0.58c-0.49,0.39-0.75,0.97-0.78,1.76h-2.82c0.05-0.66,0.22-1.26,0.5-1.8c0.29-0.55,0.67-1.01,1.16-1.41
		c0.48-0.39,1.05-0.7,1.7-0.92c0.65-0.22,1.37-0.32,2.15-0.32c0.77,0,1.49,0.1,2.16,0.29c0.67,0.19,1.26,0.51,1.76,0.94
		c0.5,0.43,0.88,1.01,1.15,1.72c0.27,0.71,0.4,1.58,0.39,2.61c0,0.16,0,0.37-0.01,0.63c-0.01,0.26-0.01,0.54-0.01,0.84
		c0,0.3,0,0.62-0.01,0.95c-0.01,0.33-0.01,0.64-0.01,0.93c0,0.82,0.03,1.62,0.09,2.42c0.07,0.79,0.16,1.46,0.29,2.01h-2.62
		c-0.05-0.27-0.09-0.52-0.13-0.75c-0.04-0.22-0.08-0.56-0.11-1.01c-0.42,0.71-0.99,1.23-1.72,1.56c-0.73,0.34-1.58,0.5-2.54,0.5
		C404.7,193.19,404.06,193.1,403.47,192.92z M406.78,187.13c-0.72,0.13-1.32,0.29-1.78,0.48c-0.46,0.19-0.8,0.42-1.02,0.69
		c-0.22,0.27-0.32,0.58-0.32,0.95c0,0.56,0.22,1,0.65,1.32c0.43,0.32,1.01,0.48,1.73,0.48c1.06,0,1.89-0.27,2.48-0.81
		c0.59-0.54,0.89-1.36,0.89-2.47v-0.99C408.38,186.89,407.5,187,406.78,187.13z"/>
	<path class="st0" d="M417.87,176.52v3.42h2.6v2.07h-2.6v7.05c0,0.66,0.11,1.09,0.31,1.31c0.21,0.22,0.62,0.32,1.23,0.32h1.04v2.19
		h-2.12c-0.69,0-1.25-0.05-1.68-0.16c-0.43-0.1-0.77-0.28-1.01-0.54c-0.24-0.26-0.41-0.61-0.49-1.05c-0.09-0.44-0.13-0.99-0.13-1.65
		v-7.48h-1.92v-2.07H415v-3.42H417.87z"/>
	<path class="st0" d="M425.16,178.32h-2.86v-2.89h2.86V178.32z M425.16,192.88h-2.86v-12.95h2.86V192.88z"/>
	<path class="st0" d="M435.73,180.06c0.76,0.27,1.44,0.69,2.04,1.24c0.6,0.55,1.09,1.26,1.46,2.1c0.37,0.85,0.55,1.86,0.55,3.03
		c0,1.17-0.18,2.18-0.55,3.03c-0.37,0.85-0.86,1.55-1.46,2.11c-0.6,0.55-1.28,0.96-2.04,1.23c-0.76,0.26-1.54,0.4-2.32,0.4
		c-0.78,0-1.56-0.13-2.32-0.4c-0.76-0.27-1.45-0.67-2.05-1.23c-0.6-0.55-1.09-1.26-1.46-2.11c-0.37-0.85-0.55-1.86-0.55-3.03
		c0-1.17,0.18-2.18,0.55-3.03c0.37-0.85,0.86-1.55,1.46-2.1c0.6-0.55,1.28-0.97,2.05-1.24c0.76-0.27,1.54-0.41,2.32-0.41
		C434.19,179.65,434.97,179.78,435.73,180.06z M430.27,188.39c0.18,0.55,0.43,1.01,0.75,1.37c0.31,0.36,0.68,0.63,1.09,0.82
		c0.42,0.18,0.85,0.28,1.3,0.28c0.45,0,0.88-0.09,1.3-0.28c0.42-0.18,0.78-0.46,1.09-0.82c0.31-0.36,0.56-0.82,0.75-1.37
		c0.18-0.55,0.28-1.21,0.28-1.96c0-0.74-0.09-1.39-0.28-1.95c-0.18-0.56-0.43-1.03-0.75-1.4c-0.31-0.37-0.68-0.65-1.09-0.83
		c-0.42-0.18-0.85-0.28-1.3-0.28c-0.45,0-0.88,0.09-1.3,0.28c-0.42,0.18-0.78,0.46-1.09,0.83c-0.31,0.37-0.56,0.83-0.75,1.4
		c-0.19,0.56-0.28,1.21-0.28,1.95C429.99,187.19,430.08,187.84,430.27,188.39z"/>
	<path class="st0" d="M446.07,180.19c0.67-0.36,1.46-0.54,2.37-0.54c0.79,0,1.46,0.12,2.01,0.36c0.56,0.24,1.01,0.59,1.36,1.03
		c0.35,0.45,0.61,0.99,0.78,1.61s0.25,1.32,0.25,2.09v8.13h-2.86v-7.44c0-0.43-0.02-0.86-0.07-1.28c-0.05-0.42-0.16-0.79-0.33-1.12
		c-0.17-0.33-0.42-0.59-0.75-0.78c-0.33-0.19-0.77-0.29-1.31-0.29c-0.55,0-1.01,0.1-1.39,0.3c-0.39,0.2-0.7,0.48-0.94,0.83
		c-0.24,0.35-0.41,0.78-0.52,1.27s-0.16,1.04-0.16,1.61v6.88h-2.86v-12.95h2.86v1.81C444.89,181.07,445.4,180.55,446.07,180.19z"/>
	<path class="st0" d="M461.73,182.21c-0.5-0.25-1.12-0.37-1.84-0.37c-0.62,0-1.18,0.13-1.67,0.38c-0.49,0.26-0.73,0.6-0.73,1.03
		c0,0.43,0.15,0.77,0.45,1.01c0.3,0.24,0.73,0.42,1.29,0.53l1.83,0.36c0.66,0.13,1.27,0.28,1.83,0.46s1.05,0.41,1.47,0.71
		c0.42,0.3,0.74,0.66,0.98,1.09c0.23,0.43,0.35,0.96,0.35,1.59c0,0.67-0.15,1.27-0.45,1.79c-0.29,0.52-0.7,0.96-1.2,1.31
		c-0.51,0.35-1.09,0.62-1.74,0.81c-0.66,0.18-1.36,0.28-2.1,0.28c-0.8,0-1.53-0.11-2.18-0.32c-0.65-0.22-1.21-0.51-1.7-0.89
		c-0.48-0.38-0.87-0.83-1.17-1.35c-0.3-0.52-0.49-1.09-0.56-1.7h2.79c0.13,0.67,0.43,1.19,0.92,1.55c0.48,0.36,1.15,0.54,2,0.54
		c0.75,0,1.37-0.15,1.86-0.45c0.49-0.3,0.74-0.71,0.74-1.24c0-0.53-0.21-0.93-0.64-1.19s-0.96-0.46-1.6-0.59l-1.95-0.39
		c-0.55-0.11-1.05-0.26-1.53-0.45c-0.47-0.18-0.89-0.42-1.24-0.72c-0.35-0.3-0.63-0.66-0.83-1.08c-0.2-0.43-0.3-0.93-0.3-1.53
		c0-0.58,0.14-1.09,0.43-1.55c0.29-0.46,0.67-0.85,1.15-1.18s1.04-0.58,1.67-0.76c0.63-0.18,1.3-0.26,2.01-0.26
		c0.62,0,1.23,0.08,1.83,0.23c0.59,0.15,1.13,0.39,1.61,0.71c0.48,0.32,0.89,0.72,1.23,1.2c0.34,0.48,0.57,1.04,0.7,1.68h-2.69
		C462.56,182.88,462.23,182.46,461.73,182.21z"/>
	<path class="st1" d="M121.1,166.11l13.18-18.38h12.17l-13.77,18.8l19.48,26.97h-11.83l-14.38-19.82l-4.85,5.19v14.63h-10.12v-61.68
		h10.12V166.11z"/>
	<path class="st1" d="M153.37,193.51v-61.68h10.12v61.68H153.37z"/>
	<path class="st1" d="M181.61,142.04h-10.12v-10.21h10.12V142.04z M181.61,193.51h-10.12v-45.77h10.12V193.51z"/>
	<path class="st1" d="M216.46,147.91c2.3,0.8,4.35,1.91,6.17,3.36c1.82,1.45,3.35,3.19,4.59,5.23c1.25,2.04,2.1,4.34,2.55,6.89
		h-9.87c-0.45-2.44-1.64-4.42-3.57-5.96c-1.93-1.53-4.28-2.3-7.06-2.3c-1.59,0-3.11,0.3-4.55,0.89c-1.45,0.6-2.72,1.53-3.83,2.81
		c-1.11,1.28-1.99,2.88-2.64,4.81c-0.65,1.93-0.98,4.25-0.98,6.98s0.33,5.06,0.98,7.02c0.65,1.96,1.53,3.57,2.64,4.85
		c1.1,1.28,2.37,2.21,3.79,2.81c1.42,0.6,2.86,0.89,4.34,0.89c1.25,0,2.47-0.14,3.66-0.43c1.19-0.28,2.3-0.77,3.32-1.45
		c1.02-0.68,1.9-1.55,2.64-2.6c0.74-1.05,1.28-2.34,1.62-3.87h9.87c-0.51,2.67-1.45,5.05-2.81,7.15c-1.36,2.1-3,3.86-4.93,5.27
		c-1.93,1.42-4.06,2.5-6.38,3.23c-2.32,0.74-4.71,1.11-7.15,1.11c-3.35,0-6.37-0.61-9.06-1.83c-2.7-1.22-5.01-2.89-6.93-5.02
		c-1.93-2.13-3.42-4.65-4.47-7.57c-1.05-2.92-1.57-6.08-1.57-9.48c0-3.4,0.53-6.57,1.57-9.49c1.05-2.92,2.55-5.46,4.51-7.61
		c1.96-2.16,4.33-3.84,7.1-5.06c2.78-1.22,5.87-1.83,9.27-1.83C211.76,146.71,214.16,147.11,216.46,147.91z"/>
	<path class="st1" d="M244.7,166.11l14.15-17.77h12.17l-14.75,18.19l19.48,26.97h-11.83l-14.38-19.82l-4.85,5.19v14.63h-10.12
		v-61.68h10.12V166.11z"/>
	<path class="st1" d="M296.89,104.88h10.12v61.68h-10.12v-14.63l-4.85-5.19l-14.38,19.82h-11.83l19.48-26.97l-13.77-18.8h12.17
		l13.18,18.38V104.88z"/>
	<path class="st1" d="M315.53,166.78V105.1h10.12v61.68H315.53z"/>
	<path class="st1" d="M340.73,166.91c-2.07-0.65-3.86-1.58-5.36-2.77c-1.5-1.19-2.67-2.62-3.49-4.3c-0.82-1.67-1.23-3.56-1.23-5.66
		c0-2.84,0.82-5.19,2.47-7.06c1.65-1.87,3.87-3.4,6.68-4.59c2.81-1.19,6.07-2.1,9.79-2.72c3.71-0.62,7.67-1.16,11.87-1.62v-0.85
		c0-1.93-0.26-3.56-0.77-4.89c-0.51-1.33-1.21-2.38-2.08-3.15c-0.88-0.77-1.9-1.32-3.06-1.66c-1.16-0.34-2.37-0.51-3.61-0.51
		c-2.55,0-4.69,0.68-6.42,2.04c-1.73,1.36-2.65,3.43-2.77,6.21h-9.95c0.17-2.32,0.77-4.45,1.79-6.38c1.02-1.93,2.38-3.59,4.08-4.98
		c1.7-1.39,3.7-2.47,6-3.23c2.3-0.77,4.83-1.15,7.61-1.15c2.72,0,5.28,0.34,7.66,1.02c2.38,0.68,4.45,1.79,6.21,3.32
		c1.76,1.53,3.12,3.56,4.08,6.08c0.96,2.52,1.42,5.6,1.36,9.23c0,0.57-0.01,1.3-0.04,2.21c-0.03,0.91-0.04,1.9-0.04,2.98
		c0,1.08-0.01,2.2-0.04,3.36c-0.03,1.16-0.04,2.25-0.04,3.27c0,2.89,0.11,5.74,0.34,8.55c0.23,2.81,0.57,5.18,1.02,7.1h-9.27
		c-0.17-0.96-0.33-1.84-0.47-2.64c-0.14-0.79-0.27-1.98-0.38-3.57c-1.47,2.5-3.5,4.34-6.08,5.53c-2.58,1.19-5.57,1.79-8.98,1.79
		C345.08,167.89,342.8,167.56,340.73,166.91z M352.42,146.45c-2.55,0.45-4.65,1.02-6.3,1.7c-1.65,0.68-2.85,1.49-3.62,2.43
		c-0.77,0.94-1.15,2.06-1.15,3.36c0,1.98,0.77,3.55,2.3,4.68c1.53,1.13,3.57,1.7,6.13,1.7c3.74,0,6.66-0.95,8.76-2.85
		c2.1-1.9,3.15-4.81,3.15-8.72v-3.49C358.07,145.6,354.98,145.99,352.42,146.45z"/>
	<path class="st1" d="M406,121.18c2.3,0.8,4.35,1.91,6.17,3.36c1.82,1.45,3.35,3.19,4.59,5.23c1.25,2.04,2.1,4.34,2.55,6.89h-9.87
		c-0.45-2.44-1.64-4.42-3.57-5.96c-1.93-1.53-4.28-2.3-7.06-2.3c-1.59,0-3.11,0.3-4.55,0.89c-1.45,0.6-2.72,1.53-3.83,2.81
		c-1.11,1.28-1.99,2.88-2.64,4.81c-0.65,1.93-0.98,4.25-0.98,6.98s0.33,5.06,0.98,7.02c0.65,1.96,1.53,3.57,2.64,4.85
		c1.1,1.28,2.37,2.21,3.79,2.81c1.42,0.6,2.86,0.89,4.34,0.89c1.25,0,2.47-0.14,3.66-0.43c1.19-0.28,2.3-0.77,3.32-1.45
		c1.02-0.68,1.9-1.55,2.64-2.6c0.74-1.05,1.28-2.34,1.62-3.87h9.87c-0.51,2.67-1.45,5.05-2.81,7.15c-1.36,2.1-3,3.86-4.93,5.27
		c-1.93,1.42-4.06,2.5-6.38,3.23c-2.32,0.74-4.71,1.11-7.15,1.11c-3.35,0-6.37-0.61-9.06-1.83c-2.7-1.22-5.01-2.89-6.93-5.02
		c-1.93-2.13-3.42-4.65-4.47-7.57c-1.05-2.92-1.57-6.08-1.57-9.48c0-3.4,0.53-6.57,1.57-9.49c1.05-2.92,2.55-5.46,4.51-7.61
		c1.96-2.16,4.33-3.84,7.1-5.06c2.78-1.22,5.87-1.83,9.27-1.83C401.3,119.99,403.7,120.39,406,121.18z"/>
	<path class="st1" d="M434.52,139.39l16.93-18.38h12.17l-17.53,18.8l19.48,26.97h-11.83l-14.38-19.82l-4.85,5.19v14.63H424.4V105.1
		h10.12V139.39z"/>
	<circle class="st2" cx="67.18" cy="162.06" r="32.84"/>
	<circle class="st3" cx="67.18" cy="162.06" r="21.47"/>
	<circle class="st0" cx="67.18" cy="162.06" r="11.06"/>
	<rect x="-27.34" y="43.42" class="st4" width="554.69" height="213.16"/>
</g>
</svg>
