<?xml version="1.0" encoding="utf-8"?>
<!-- Generator: Adobe Illustrator 25.1.0, SVG Export Plug-In . SVG Version: 6.00 Build 0)  -->
<svg version="1.1" id="_圖層_1" xmlns="http://www.w3.org/2000/svg" xmlns:xlink="http://www.w3.org/1999/xlink" x="0px" y="0px"
	 viewBox="0 0 500 300" style="enable-background:new 0 0 500 300;" xml:space="preserve">
<g>
	<g>
		<g>
			<g>
				<path d="M118.7,189.6H56.4c-4.6,0-8.4-3.8-8.4-8.4v-62.3c0-4.6,3.8-8.4,8.4-8.4h62.3c4.6,0,8.4,3.8,8.4,8.4v62.3
					C127.1,185.8,123.3,189.6,118.7,189.6z M56.4,112.8c-3.3,0-6,2.7-6,6v62.3c0,3.3,2.7,6,6,6h62.3c3.3,0,6-2.7,6-6v-62.3
					c0-3.3-2.7-6-6-6H56.4z"/>
				<g>
					<rect x="59.4" y="132.1" width="5.1" height="5.1"/>
					<rect x="59.4" y="121.9" width="5.1" height="5.1"/>
					<rect x="69.6" y="132.1" width="5.1" height="5.1"/>
					<rect x="69.6" y="121.9" width="5.1" height="5.1"/>
					<rect x="79.9" y="173" width="5.1" height="5.1"/>
					<rect x="79.9" y="162.8" width="5.1" height="5.1"/>
					<rect x="79.9" y="152.6" width="5.1" height="5.1"/>
					<rect x="79.9" y="142.3" width="5.1" height="5.1"/>
					<rect x="79.9" y="132.1" width="5.1" height="5.1"/>
					<rect x="79.9" y="121.9" width="5.1" height="5.1"/>
					<rect x="90.1" y="173" width="5.1" height="5.1"/>
					<rect x="90.1" y="162.8" width="5.1" height="5.1"/>
					<rect x="90.1" y="152.6" width="5.1" height="5.1"/>
					<rect x="90.1" y="142.3" width="5.1" height="5.1"/>
					<rect x="90.1" y="132.1" width="5.1" height="5.1"/>
					<rect x="90.1" y="121.9" width="5.1" height="5.1"/>
					<rect x="100.3" y="132.1" width="5.1" height="5.1"/>
					<rect x="100.3" y="121.9" width="5.1" height="5.1"/>
					<rect x="110.6" y="132.1" width="5.1" height="5.1"/>
					<rect x="110.6" y="121.9" width="5.1" height="5.1"/>
				</g>
			</g>
		</g>
		<g>
			<path id="text_66_" d="M225.5,189.1h3.8v-8.5h26.1v8.5h3.8v-28.7h-33.6V189.1z M229.3,166.6h26.1v7.8h-26.1V166.6z M142.9,166.6
				h13.9v22.5h3.8v-22.5h13.9v-6.2h-31.6V166.6z M188.6,166.6h13.9v22.5h3.8v-22.5h13.9v-6.2h-31.6V166.6z M179.5,189.1h3.8v-28.7
				h-3.8V189.1z M303.8,177.9H333v5h-29.2v6.2h32.9v-17.3h-29.2v-5.1h29.2v-6.2h-32.9V177.9z M342.5,189.1h33.6v-28.7h-33.6V189.1z
				 M346.3,166.6h26.1v16.3h-26.1V166.6z M264.4,189.1h3.8v-22.5h26.1v22.5h3.8v-28.7h-33.6V189.1z M420.5,160.4v6.2h13.9v22.5h3.8
				v-22.5H452v-6.2H420.5z M381.7,189.1h3.8v-11.2h29.2v-6.2h-29.2v-5.1h29.2v-6.2h-32.9V189.1z"/>
			<g>
				<path d="M197.2,118.8c0,6-0.2,11.9-0.4,17.6c-0.2,5.7-0.5,9.1-0.8,10c-0.3,0.9-0.8,1.6-1.5,2.1c-0.7,0.5-1.9,0.8-3.5,0.8
					c-0.8,0-1.6,0-2.4-0.1l-0.9-3.7c1,0.1,1.9,0.1,2.5,0.1c1.6,0,2.5-0.5,2.8-1.6c0.3-1,0.5-8.3,0.8-21.7h-5.1
					c-0.4,11.7-2.4,20-6,27.1l-2.9-2.2c3.4-6.4,5.4-14.8,5.5-24.9h-4.6v-3.6h4.6l0-5.8h3.4l0,5.8H197.2z M212.6,149.3h-3.4v-2.9H203
					v2.9h-3.3v-33.1h12.9V149.3z M209.2,142.7v-22.9H203v22.9H209.2z"/>
				<path d="M229.5,127.2h-3.8v10.1c1.2-0.6,2.3-1.2,3.2-1.7l0.1,3.8c-3.2,1.9-6.6,3.6-10.3,5.1l-0.9-3.5c2-0.9,3.5-1.5,4.5-2v-11.9
					h-3.8v-3.6h3.8V113h3.4v10.6h3.8V127.2z M251.4,146.9l-2.1,2.9c-3.3-1.8-5.9-3.7-8-5.7c-2.3,2.2-5,4-8.1,5.5l-2.4-2.9
					c3.6-1.6,6.4-3.3,8.2-5.1c-2.1-2.8-3.8-5.6-4.8-10l0,0c-0.3,7.9-2.3,13.5-6.3,18.2l-2.9-2.2c1.9-2.1,3.3-4.6,4.3-7.3
					c1-2.7,1.5-5.9,1.5-10.9v-12.4h8.5v-3.7h3.3v3.7h8.6c-0.5,3.5-1.2,7-2.9,9.7l-3-1.5c1.6-2.6,1.6-3.3,1.9-4.7h-4.6v7.6h7
					c-0.6,5.8-3,9.9-6,13.5C245.3,143.3,247.9,145.2,251.4,146.9z M239.2,128v-7.6h-5v7.6H239.2z M245.6,131.5h-8.1
					c0.9,3.4,2.2,5.4,3.7,7.4C242.9,136.9,244.7,134.8,245.6,131.5z"/>
				<path d="M319.7,120.1l-1.9,2.9c-1.7-1.9-3.7-3.8-6.1-5.5c-1.3,1.9-2.7,3.6-4.4,5.4h9.7v3.4h-3.9v3.1h5.5v3.4h-5.5v10.4
					c1.4-0.3,3.1-0.8,4.9-1.5l0.3,3.4c-4.7,1.6-9.3,2.9-13.7,3.9l-0.7-3.3c1.7-0.3,3.7-0.8,6-1.5v-11.5h-5.4v-3.4h5.4v-3.1h-3.6
					v-2.5c-0.5,0.5-1,0.9-1.6,1.3l-1.2-3.5c2.8-2.3,5.1-5.2,7.1-8.6l3.4,0.8c-0.2,0.4-0.3,0.7-0.5,1
					C316.2,116.7,318.2,118.5,319.7,120.1z M308.6,142.9l-2.8,0.8c-0.3-2.8-0.8-5.6-1.5-8.3l2.8-0.8
					C307.9,137.8,308.4,140.6,308.6,142.9z M318.3,135.5c-0.4,2.6-1,4.6-1.7,6.2l-2.6-0.9c0.7-2.4,1.2-4.5,1.5-6.3L318.3,135.5z
					 M337.5,147l-2.4,2.9c-4-6.1-6.4-11.6-7.4-16.7c-0.7,2.8-1.6,5.2-2.3,7.1c1.8,1.8,3.5,3.7,5,5.8l-2.4,2.4c-1-1.5-2.3-3.2-3.9-5
					c-1.1,2.1-2.5,4.2-4.2,6.4l-2.4-2.6c4.7-5.9,7.4-12.8,8-20.6h-6.4V123h6.6c0.1-2.7,0.2-6,0.2-9.9h3.3c0,4.8-0.1,8.1-0.1,9.9h7.9
					v3.6h-7.5C330.5,133.9,333.2,140.7,337.5,147z"/>
				<path d="M354.3,140.9c-3.2,1.9-6.9,3.7-11.3,5.6l-1-3.5c1.6-0.6,3.1-1.3,4.6-2v-13.8h-4.1v-3.6h4.1v-10.5h3.4v10.5h4v3.6h-4v12
					c0.9-0.3,2.3-1.1,4.3-2.2V140.9z M376.1,148.3h-22.5v-3.5h22.5V148.3z M374.1,139.7H356V114h18.1V139.7z M370.7,124.9v-7.4
					h-11.2v7.4H370.7z M370.7,136.3v-7.9h-11.2v7.9H370.7z"/>
				<path d="M396.6,115.9c-1.7,0.6-3.6,1.1-5.6,1.5v5.4h4.8v3.5H391v1.2c2,2.3,3.7,4.6,5.1,7.1l-2.4,2.7c-0.9-2-1.8-3.7-2.7-5v17.2
					h-3.3v-16.4c-1.8,3.8-3.5,6.5-5.2,8.3l-1.9-3.3c2.7-2.9,5-6.8,6.9-11.6h-6.5v-3.5h6.7v-4.8c-1.6,0.3-3.3,0.5-5.1,0.6l-1.4-3.4
					c4.8-0.3,9.5-1.1,13.8-2.4L396.6,115.9z M414.1,139.5l-3.5,0.6v9.3h-3.4l-0.2-8.8l-11.9,1.8l-0.1-3.7l12.2-1.9v-23.7h3.4v23.2
					l3.4-0.5L414.1,139.5z M405.5,131.4l-2.3,2.8c-1.6-2.2-4-4.6-7.1-7.1l2.2-2.7C401.4,126.9,403.8,129.2,405.5,131.4z
					 M406.1,121.4l-2.3,2.7c-2.1-2.6-4.4-4.9-6.7-6.8l2.4-2.6C402,116.8,404.2,119,406.1,121.4z"/>
				<path d="M430.7,131.6c-1.4,0.7-2.8,1.3-4,1.8v12.1c0,1.2-0.3,2.1-0.8,2.8c-0.5,0.6-1.4,1-2.7,1c-1.3,0-2.3,0-3.2,0l-1.1-3.6
					c1.3,0.1,2.5,0.1,3.5,0.1c0.2,0,0.5-0.1,0.7-0.4c0.2-0.2,0.3-0.5,0.3-0.8v-9.7c-1.4,0.5-2.8,1-4.4,1.4l-0.9-3.4
					c2.4-0.8,4.1-1.4,5.3-1.9v-7.7h-4.8v-3.5h4.8V113h3.3v6.7h3.5v3.5h-3.5v6.2c1-0.4,2.1-0.9,3.3-1.5L430.7,131.6z M451.9,146.6
					l-2,3.1c-3.6-1.7-6.6-3.6-8.9-5.7c-2.7,2.2-6,4.1-9.8,5.7l-1.9-3.3c3.7-1.4,6.8-3,9.3-4.9c-2.1-2.5-5-6.1-6.5-10.7l0,0v-3.5h7.3
					v-5.4h-8.1v-3.5h8.1v-5.3h3.4v5.3h8v3.5h-8v5.4h7v3.5c-1.8,4.7-3.9,8.3-6.4,10.8C445.7,143.5,448.5,145.1,451.9,146.6z
					 M446.2,130.8h-10.4c0.9,3.1,3.4,5.9,5.4,8.3C443.3,136.8,445,134,446.2,130.8z"/>
				<g>
					<path d="M280.8,135.8h-16.4v9h16.4V135.8z M277.5,141.7h-9.8v-2.7h9.8V141.7z"/>
					<path d="M281.1,120.3h8.1v-3.5h-15v-3.7h-3.3v3.7h-15.1v3.5h8l1.5,3.5h-7.7v25.5h3.3v-22.2h6.3c0,2.8-1.9,4.5-5.6,5.1l1.6,3.1
						c4.8-1.1,7.1-3.8,7.1-8.2h4.4v3.9c0,0.6,0.2,1.2,0.7,1.8c0.5,0.5,1,0.8,1.6,0.8h7.2V145c0,0.4-0.1,0.6-0.4,0.7
						c-0.3,0.1-1.1,0.2-2.6,0.2c-0.5,0-1.1,0-1.8-0.1l1.1,3.4c0.9,0.1,1.7,0.1,2.4,0.1c1.2,0,2.1-0.1,2.6-0.3c0.5-0.2,1-0.6,1.4-1.2
						c0.4-0.6,0.6-1.3,0.6-2.1v-21.9h-7.7l0.6-1.5L281.1,120.3z M284.2,130.6h-5.7c-0.1,0-0.2-0.1-0.4-0.2c-0.1-0.2-0.2-0.3-0.2-0.4
						v-2.7h6.3V130.6z M268.6,123.8l-1.4-3.5h10.5l-1.4,3.5H268.6z"/>
				</g>
				<g>
					<path d="M161,132.1h-7.1v-3.3h6.5v-3.3h-3.6l1.1-5.1h2.2v-3.5H154v-3.7h-3.3v3.7H144v3.5h2.2l1.3,5.1h-3.6v3.3h6.6v3.3h-7v3.4
						l7.2,0v13.9h3.2v-13.9l7.1,0V132.1z M150.6,125.5l-1.2-5.1h5.5l-1.2,5.1H150.6z"/>
					<path d="M166,125.4v-6.1c3.7-0.8,6.9-1.8,9.7-3.1l-2.3-3.1c-2.9,1.4-6.5,2.4-10.7,3.1v13.9c0,7.5-1.2,13.1-3.7,16.7l2.8,2.5
						c2.8-4.1,4.3-11.2,4.4-20.7h3.9v20.7h3.3v-20.7h3.5v-3.2H166z"/>
					<path d="M157.5,136.6l-2.8,1.4c1,1.9,1.8,3.9,2.4,6.1l2.7-1.7C159.4,140.6,158.6,138.7,157.5,136.6z"/>
					<path d="M143,144.4l2.7,2.2c1.2-1.9,2.4-4.6,3.6-8.1l-2.9-1.5C145.4,140,144.3,142.4,143,144.4z"/>
				</g>
			</g>
		</g>
	</g>
</g>
</svg>
