<?xml version="1.0" encoding="utf-8"?>
<!-- Generator: Adobe Illustrator 25.1.0, SVG Export Plug-In . SVG Version: 6.00 Build 0)  -->
<svg version="1.1" id="圖層_1" xmlns="http://www.w3.org/2000/svg" xmlns:xlink="http://www.w3.org/1999/xlink" x="0px" y="0px"
	 viewBox="0 0 500 300" style="enable-background:new 0 0 500 300;" xml:space="preserve">
<style type="text/css">
	.st0{fill:none;stroke:#000000;stroke-width:0.3566;}
	.st1{fill:#FFFFFF;stroke:#000000;stroke-width:0.3604;}
	.st2{stroke:#000000;stroke-width:0.3604;}
	.st3{fill:#FFFFFF;stroke:#000000;stroke-width:0.3502;}
	.st4{fill:#DF3333;}
	.st5{display:none;}
	.st6{display:inline;}
</style>
<g>
	<g>
		<path class="st0" d="M215.8,230.4l38.4,0.3h39.6c32.8-14.8,55.8-47.9,55.8-86.2c0-52-42.5-94.5-94.4-94.5
			c-52,0-94.5,42.5-94.5,94.5C160.6,182.6,183.2,215.5,215.8,230.4z"/>
		<path class="st1" d="M179.8,100.5V87.5c-3.1,4.1-5.8,8.4-8.2,12.9C171.6,100.5,179.8,100.5,179.8,100.5z"/>
		<path class="st1" d="M320.8,76.8V86h8.4C326.6,82.8,323.8,79.7,320.8,76.8z"/>
		<path class="st1" d="M273.8,51.9v5.3h9.2v-2.9C280,53.3,276.9,52.5,273.8,51.9z"/>
		<rect x="189.3" y="85.9" class="st1" width="9.1" height="14.5"/>
		<rect x="189.3" y="100.5" class="st1" width="9.1" height="14.5"/>
		<rect x="189.3" y="114.8" class="st1" width="9.1" height="14.5"/>
		<rect x="189.3" y="129.4" class="st1" width="9.1" height="14.5"/>
		<rect x="189.3" y="143.7" class="st1" width="9.1" height="14.5"/>
		<rect x="189.3" y="158.2" class="st1" width="9.1" height="14.5"/>
		<rect x="189.3" y="172.6" class="st1" width="9.1" height="14.5"/>
		<rect x="189.3" y="187" class="st1" width="9.1" height="14.5"/>
		<rect x="180" y="100.5" class="st1" width="9.1" height="14.5"/>
		<rect x="180" y="114.8" class="st1" width="9.1" height="14.5"/>
		<rect x="180" y="129.4" class="st1" width="9.1" height="14.5"/>
		<rect x="180" y="143.7" class="st1" width="9.1" height="14.5"/>
		<rect x="180" y="158.2" class="st1" width="9.1" height="14.5"/>
		<rect x="180" y="172.6" class="st1" width="9.1" height="14.5"/>
		<rect x="180" y="187" class="st1" width="9.1" height="14.5"/>
		<rect x="170.6" y="114.8" class="st1" width="9.2" height="14.5"/>
		<rect x="170.6" y="129.4" class="st1" width="9.2" height="14.5"/>
		<rect x="170.6" y="143.7" class="st1" width="9.2" height="14.5"/>
		<rect x="170.6" y="158.2" class="st1" width="9.2" height="14.5"/>
		<rect x="198.8" y="71.5" class="st1" width="9.1" height="14.5"/>
		<rect x="198.8" y="85.9" class="st1" width="9.1" height="14.5"/>
		<rect x="198.8" y="100.5" class="st1" width="9.1" height="14.5"/>
		<rect x="198.8" y="114.8" class="st1" width="9.1" height="14.5"/>
		<rect x="198.8" y="129.4" class="st1" width="9.1" height="14.5"/>
		<rect x="198.8" y="143.7" class="st1" width="9.1" height="14.5"/>
		<rect x="198.8" y="158.2" class="st1" width="9.1" height="14.5"/>
		<rect x="198.8" y="172.6" class="st1" width="9.1" height="14.5"/>
		<rect x="198.8" y="187" class="st1" width="9.1" height="14.5"/>
		<rect x="198.8" y="201.5" class="st1" width="9.1" height="14.5"/>
		<rect x="208.2" y="71.5" class="st2" width="9.2" height="14.5"/>
		<rect x="208.2" y="85.9" class="st1" width="9.2" height="14.5"/>
		<rect x="208.2" y="100.5" class="st1" width="9.2" height="14.5"/>
		<rect x="208.2" y="114.8" class="st1" width="9.2" height="14.5"/>
		<rect x="208.2" y="129.4" class="st1" width="9.2" height="14.5"/>
		<rect x="208.2" y="143.7" class="st1" width="9.2" height="14.5"/>
		<rect x="208.2" y="158.2" class="st1" width="9.2" height="14.5"/>
		<rect x="208.2" y="172.6" class="st1" width="9.2" height="14.5"/>
		<rect x="208.2" y="187" class="st1" width="9.2" height="14.5"/>
		<rect x="208.2" y="201.5" class="st2" width="9.2" height="14.5"/>
		<rect x="217.4" y="71.5" class="st1" width="9.1" height="14.5"/>
		<rect x="217.4" y="85.9" class="st2" width="9.1" height="14.5"/>
		<rect x="217.4" y="100.5" class="st1" width="9.1" height="14.5"/>
		<rect x="217.4" y="114.8" class="st1" width="9.1" height="14.5"/>
		<rect x="217.4" y="129.4" class="st1" width="9.1" height="14.5"/>
		<rect x="217.4" y="143.7" class="st1" width="9.1" height="14.5"/>
		<rect x="217.4" y="158.2" class="st1" width="9.1" height="14.5"/>
		<rect x="217.4" y="172.6" class="st1" width="9.1" height="14.5"/>
		<rect x="217.4" y="187" class="st2" width="9.1" height="14.5"/>
		<rect x="217.4" y="201.5" class="st1" width="9.1" height="14.5"/>
		<rect x="217.4" y="215.9" class="st2" width="9.1" height="14.5"/>
		<rect x="226.9" y="71.5" class="st1" width="9.2" height="14.5"/>
		<rect x="226.9" y="57" class="st1" width="9.2" height="14.5"/>
		<rect x="226.9" y="85.9" class="st1" width="9.2" height="14.5"/>
		<rect x="226.9" y="100.5" class="st1" width="9.2" height="14.5"/>
		<rect x="226.9" y="114.8" class="st1" width="9.2" height="14.5"/>
		<rect x="226.9" y="129.4" class="st1" width="9.2" height="14.5"/>
		<rect x="226.9" y="143.7" class="st1" width="9.2" height="14.5"/>
		<rect x="226.9" y="158.2" class="st1" width="9.2" height="14.5"/>
		<rect x="226.9" y="172.6" class="st1" width="9.2" height="14.5"/>
		<rect x="226.9" y="187" class="st1" width="9.2" height="14.5"/>
		<rect x="226.9" y="201.5" class="st2" width="9.2" height="14.5"/>
		<rect x="226.9" y="215.9" class="st1" width="9.2" height="14.5"/>
		<rect x="236.3" y="71.5" class="st1" width="9.1" height="14.5"/>
		<rect x="236.3" y="57" class="st1" width="9.1" height="14.5"/>
		<rect x="236.3" y="85.9" class="st1" width="9.1" height="14.5"/>
		<rect x="236.3" y="100.5" class="st1" width="9.1" height="14.5"/>
		<rect x="236.3" y="114.8" class="st1" width="9.1" height="14.5"/>
		<rect x="236.3" y="129.4" class="st1" width="9.1" height="14.5"/>
		<rect x="236.3" y="143.7" class="st1" width="9.1" height="14.5"/>
		<rect x="236.3" y="158.2" class="st1" width="9.1" height="14.5"/>
		<rect x="236.3" y="172.6" class="st1" width="9.1" height="14.5"/>
		<rect x="236.3" y="187" class="st1" width="9.1" height="14.5"/>
		<rect x="236.3" y="201.5" class="st1" width="9.1" height="14.5"/>
		<rect x="236.3" y="215.9" class="st1" width="9.1" height="14.5"/>
		<rect x="245.7" y="71.5" class="st1" width="9.1" height="14.5"/>
		<rect x="245.7" y="57" class="st2" width="9.1" height="14.5"/>
		<rect x="245.7" y="85.9" class="st1" width="9.1" height="14.5"/>
		<rect x="245.7" y="100.5" class="st1" width="9.1" height="14.5"/>
		<rect x="245.7" y="114.8" class="st1" width="9.1" height="14.5"/>
		<rect x="245.7" y="129.4" class="st1" width="9.1" height="14.5"/>
		<rect x="245.7" y="143.7" class="st1" width="9.1" height="14.5"/>
		<rect x="245.7" y="158.2" class="st1" width="9.1" height="14.5"/>
		<rect x="245.7" y="172.6" class="st1" width="9.1" height="14.5"/>
		<rect x="245.7" y="187" class="st1" width="9.1" height="14.5"/>
		<rect x="245.7" y="201.5" class="st1" width="9.1" height="14.5"/>
		<rect x="245.7" y="215.9" class="st1" width="9.1" height="14.5"/>
		<rect x="255.1" y="71.5" class="st1" width="9.2" height="14.5"/>
		<rect x="255.1" y="57" class="st1" width="9.2" height="14.5"/>
		<rect x="255.1" y="85.9" class="st1" width="9.2" height="14.5"/>
		<rect x="255.1" y="100.5" class="st1" width="9.2" height="14.5"/>
		<rect x="255.1" y="114.8" class="st1" width="9.2" height="14.5"/>
		<rect x="255.1" y="129.4" class="st1" width="9.2" height="14.5"/>
		<rect x="255.1" y="143.7" class="st1" width="9.2" height="14.5"/>
		<rect x="255.1" y="158.2" class="st1" width="9.2" height="14.5"/>
		<rect x="255.1" y="172.6" class="st1" width="9.2" height="14.5"/>
		<rect x="255.1" y="187" class="st2" width="9.2" height="14.5"/>
		<rect x="255.1" y="201.5" class="st1" width="9.2" height="14.5"/>
		<rect x="255.1" y="215.9" class="st1" width="9.2" height="14.5"/>
		<rect x="264.4" y="71.5" class="st1" width="9.1" height="14.5"/>
		<rect x="264.4" y="57" class="st1" width="9.1" height="14.5"/>
		<rect x="264.4" y="85.9" class="st1" width="9.1" height="14.5"/>
		<rect x="264.4" y="100.5" class="st1" width="9.1" height="14.5"/>
		<rect x="264.4" y="114.8" class="st1" width="9.1" height="14.5"/>
		<rect x="264.4" y="129.4" class="st1" width="9.1" height="14.5"/>
		<rect x="264.4" y="143.7" class="st1" width="9.1" height="14.5"/>
		<rect x="264.4" y="158.2" class="st1" width="9.1" height="14.5"/>
		<rect x="264.4" y="172.6" class="st1" width="9.1" height="14.5"/>
		<rect x="264.4" y="187" class="st1" width="9.1" height="14.5"/>
		<rect x="264.4" y="201.5" class="st1" width="9.1" height="14.5"/>
		<rect x="264.4" y="215.9" class="st1" width="9.1" height="14.5"/>
		<rect x="273.8" y="71.5" class="st1" width="9.2" height="14.5"/>
		<rect x="273.8" y="57" class="st1" width="9.2" height="14.5"/>
		<rect x="273.8" y="85.9" class="st1" width="9.2" height="14.5"/>
		<rect x="273.8" y="100.5" class="st1" width="9.2" height="14.5"/>
		<rect x="273.8" y="114.8" class="st1" width="9.2" height="14.5"/>
		<rect x="273.8" y="129.4" class="st1" width="9.2" height="14.5"/>
		<rect x="273.8" y="143.7" class="st1" width="9.2" height="14.5"/>
		<rect x="273.8" y="158.2" class="st1" width="9.2" height="14.5"/>
		<rect x="273.8" y="172.6" class="st1" width="9.2" height="14.5"/>
		<rect x="273.8" y="187" class="st1" width="9.2" height="14.5"/>
		<rect x="273.8" y="201.5" class="st1" width="9.2" height="14.5"/>
		<rect x="273.8" y="215.9" class="st1" width="9.2" height="14.5"/>
		<rect x="283.2" y="71.5" class="st1" width="9.1" height="14.5"/>
		<rect x="283.2" y="85.9" class="st1" width="9.1" height="14.5"/>
		<rect x="283.2" y="100.5" class="st1" width="9.1" height="14.5"/>
		<rect x="283.2" y="114.8" class="st1" width="9.1" height="14.5"/>
		<rect x="283.2" y="129.4" class="st1" width="9.1" height="14.5"/>
		<rect x="283.2" y="143.7" class="st1" width="9.1" height="14.5"/>
		<rect x="283.2" y="158.2" class="st1" width="9.1" height="14.5"/>
		<rect x="283.2" y="172.6" class="st1" width="9.1" height="14.5"/>
		<rect x="283.2" y="187" class="st1" width="9.1" height="14.5"/>
		<rect x="283.2" y="201.5" class="st1" width="9.1" height="14.5"/>
		<rect x="283.2" y="215.9" class="st1" width="9.1" height="14.5"/>
		<rect x="292.7" y="71.5" class="st1" width="9.1" height="14.5"/>
		<rect x="292.7" y="85.9" class="st2" width="9.1" height="14.5"/>
		<rect x="292.7" y="100.5" class="st1" width="9.1" height="14.5"/>
		<rect x="292.7" y="114.8" class="st1" width="9.1" height="14.5"/>
		<rect x="292.7" y="129.4" class="st1" width="9.1" height="14.5"/>
		<rect x="292.7" y="143.7" class="st1" width="9.1" height="14.5"/>
		<rect x="292.7" y="158.2" class="st1" width="9.1" height="14.5"/>
		<rect x="292.7" y="172.6" class="st1" width="9.1" height="14.5"/>
		<rect x="292.7" y="187" class="st1" width="9.1" height="14.5"/>
		<rect x="292.7" y="201.5" class="st2" width="9.1" height="14.5"/>
		<rect x="301.9" y="71.5" class="st1" width="9.2" height="14.5"/>
		<rect x="301.9" y="85.9" class="st1" width="9.2" height="14.5"/>
		<rect x="301.9" y="100.5" class="st1" width="9.2" height="14.5"/>
		<rect x="301.9" y="114.8" class="st1" width="9.2" height="14.5"/>
		<rect x="301.9" y="129.4" class="st1" width="9.2" height="14.5"/>
		<rect x="301.9" y="143.7" class="st1" width="9.2" height="14.5"/>
		<rect x="301.9" y="158.2" class="st1" width="9.2" height="14.5"/>
		<rect x="301.9" y="172.6" class="st1" width="9.2" height="14.5"/>
		<rect x="301.9" y="187" class="st2" width="9.2" height="14.5"/>
		<rect x="301.9" y="201.5" class="st1" width="9.2" height="14.5"/>
		<rect x="311.4" y="85.9" class="st1" width="9.1" height="14.5"/>
		<rect x="311.4" y="100.5" class="st1" width="9.1" height="14.5"/>
		<rect x="311.4" y="114.8" class="st1" width="9.1" height="14.5"/>
		<rect x="311.4" y="129.4" class="st1" width="9.1" height="14.5"/>
		<rect x="311.4" y="143.7" class="st1" width="9.1" height="14.5"/>
		<rect x="311.4" y="158.2" class="st1" width="9.1" height="14.5"/>
		<rect x="311.4" y="172.6" class="st1" width="9.1" height="14.5"/>
		<rect x="311.4" y="187" class="st1" width="9.1" height="14.5"/>
		<rect x="320.8" y="100.5" class="st1" width="9.1" height="14.5"/>
		<rect x="320.8" y="114.8" class="st1" width="9.1" height="14.5"/>
		<rect x="320.8" y="129.4" class="st1" width="9.1" height="14.5"/>
		<rect x="320.8" y="143.7" class="st1" width="9.1" height="14.5"/>
		<rect x="320.8" y="158.2" class="st1" width="9.1" height="14.5"/>
		<rect x="320.8" y="172.6" class="st1" width="9.1" height="14.5"/>
		<rect x="320.8" y="187" class="st1" width="9.1" height="14.5"/>
		<rect x="330.2" y="114.8" class="st1" width="9.1" height="14.5"/>
		<rect x="330.2" y="129.4" class="st1" width="9.1" height="14.5"/>
		<rect x="330.2" y="143.7" class="st1" width="9.1" height="14.5"/>
		<rect x="330.2" y="158.2" class="st1" width="9.1" height="14.5"/>
		<polygon class="st1" points="348.4,158.2 339.4,158.2 339.4,143.7 349.5,143.7 		"/>
		<path class="st1" d="M180,87.4v13.1h9.1V85.9h-8C180.7,86.4,180.3,86.9,180,87.4z"/>
		<path class="st1" d="M179.8,100.5h-8.2c-0.3,0.5-0.6,1.2-0.9,1.7V115h9.2V100.5z"/>
		<path class="st1" d="M339.3,102c-0.2-0.5-0.5-1-0.8-1.5h-8.4V115h9.1V102z"/>
		<path class="st1" d="M329.9,87c-0.3-0.4-0.6-0.7-0.8-1.1h-8.3v14.5h9.1L329.9,87L329.9,87z"/>
		<path class="st1" d="M290.8,57h-7.6v14.5h9.1V57.7C291.8,57.5,291.3,57.3,290.8,57z"/>
		<path class="st1" d="M226.6,54.4c-2.6,0.8-5.1,1.7-7.5,2.8h7.5V54.4z"/>
		<path class="st1" d="M226.9,54.3v2.8h9.2v-5.2C232.9,52.6,229.9,53.4,226.9,54.3z"/>
		<path class="st1" d="M236.3,51.9v5.3h9.1v-6.7C242.4,50.8,239.3,51.3,236.3,51.9z"/>
		<path class="st1" d="M254.8,50c-3.1,0-6.1,0.2-9.1,0.5v6.7h9.1V50z"/>
		<path class="st1" d="M264.3,57.2v-6.7c-3-0.3-6.1-0.5-9.2-0.5v7.2H264.3z"/>
		<path class="st1" d="M264.4,50.5v6.7h9.1v-5.3C270.5,51.2,267.5,50.8,264.4,50.5z"/>
		<path class="st1" d="M283.2,54.3v2.9h7.9C288.5,56.1,285.9,55.1,283.2,54.3z"/>
		<path class="st1" d="M301.8,62.5c-3-1.7-6-3.3-9.1-4.6v13.7h9.1V62.5z"/>
		<path class="st1" d="M301.9,62.5v9h9.2v-3C308.1,66.3,305.1,64.4,301.9,62.5z"/>
		<path class="st1" d="M311.4,68.7v2.8h3.6C313.8,70.6,312.6,69.6,311.4,68.7z"/>
		<path class="st1" d="M315,71.5h-3.6v14.5h9.1v-9.5C318.7,74.8,316.9,73.1,315,71.5z"/>
		<path class="st1" d="M330.2,87.4v13.1h8.4C336.1,95.8,333.3,91.5,330.2,87.4z"/>
		<path class="st1" d="M339.4,102.2V115h5.3C343.3,110.6,341.5,106.3,339.4,102.2z"/>
		<path class="st1" d="M344.7,114.8h-5.3v14.5h8.8C347.5,124.4,346.3,119.5,344.7,114.8z"/>
		<path class="st1" d="M345.2,172.6h-5.8v14.1C341.7,182.2,343.7,177.5,345.2,172.6z"/>
		<path class="st1" d="M330.2,187v14.5h0.1c3.4-4.5,6.4-9.4,9.1-14.5H330.2z"/>
		<path class="st1" d="M320.8,212.2c3.3-3.2,6.3-6.6,9.1-10.2v-0.5h-9.1V212.2z"/>
		<path class="st1" d="M311.4,216h5.3c1.3-1.2,2.6-2.4,3.9-3.6v-10.9h-9.1L311.4,216L311.4,216z"/>
		<path class="st1" d="M311.4,215.9v4.4c1.9-1.4,3.7-2.8,5.4-4.4H311.4z"/>
		<path class="st1" d="M301.9,226.4c3.1-1.8,6.2-3.8,9.2-5.9v-4.6h-9.2V226.4z"/>
		<path class="st1" d="M292.7,230.4h1.6c2.6-1.2,5.1-2.5,7.6-3.9v-10.6h-9.1V230.4z"/>
		<path class="st1" d="M217.3,215.9h-9.2v10.6c2.5,1.4,5,2.8,7.6,3.9h1.6L217.3,215.9L217.3,215.9z"/>
		<path class="st1" d="M198.8,220.3c2.9,2.2,6,4.2,9.1,6v-10.4h-9.1V220.3z"/>
		<path class="st1" d="M198.5,220.1v-4.3h-5.3C194.9,217.4,196.7,218.8,198.5,220.1z"/>
		<path class="st1" d="M189.3,212.3c1.3,1.3,2.7,2.5,4,3.7h5.1v-14.5h-9.1C189.3,201.5,189.3,212.3,189.3,212.3z"/>
		<path class="st1" d="M180,201.8c2.8,3.6,5.9,7.1,9.1,10.3v-10.5H180V201.8z"/>
		<path class="st1" d="M179.8,187h-9c2.6,5.1,5.6,10,9,14.5h0L179.8,187L179.8,187z"/>
		<path class="st1" d="M170.4,158.2h-8.8c0.7,5,1.9,9.8,3.3,14.5h5.5L170.4,158.2L170.4,158.2z"/>
		<path class="st1" d="M170.4,186.3v-13.7h-5.5C166.4,177.4,168.2,181.9,170.4,186.3z"/>
		<path class="st1" d="M170.4,129.4h-8.6c-0.2,1.4-0.4,2.8-0.6,4.3l-0.5,10.3l9.7-0.1L170.4,129.4L170.4,129.4z"/>
		<path class="st1" d="M170.4,129.4v-14.5h-5c-1.6,4.7-2.8,9.5-3.6,14.5H170.4z"/>
		<path class="st1" d="M170.4,115v-12.3c-2,3.9-3.6,8-5,12.3H170.4z"/>
		<path class="st1" d="M189.1,86.1v-9c-2.9,2.8-5.6,5.9-8.1,9H189.1z"/>
		<path class="st1" d="M189.3,86.1h9.1V71.5h-3.4c-2,1.7-3.9,3.4-5.8,5.2V86.1z"/>
		<path class="st1" d="M198.5,68.9c-1.1,0.9-2.3,1.7-3.4,2.6h3.4V68.9z"/>
		<path class="st1" d="M198.8,68.7v2.8h9.1v-8.9C204.7,64.5,201.7,66.5,198.8,68.7z"/>
		<path class="st1" d="M217.3,57.9c-3.2,1.4-6.2,2.9-9.2,4.6v9h9.2V57.9z"/>
		<path class="st1" d="M217.4,71.5h9.1V57h-7.2c-0.6,0.3-1.3,0.5-1.9,0.8L217.4,71.5L217.4,71.5z"/>
		<path class="st3" d="M348.6,131.6c-0.1-0.8-0.2-1.5-0.3-2.2h-8.8v14.5l10,0.1L348.6,131.6z"/>
		<path class="st1" d="M339.4,158.2v14.5h5.7c1.5-4.7,2.6-9.5,3.3-14.5H339.4z"/>
		<path class="st1" d="M339.3,172.6h-9.1v14.5h9c0,0,0.1-0.1,0.1-0.2L339.3,172.6L339.3,172.6z"/>
		<path class="st1" d="M170.8,187.1h9v-14.5h-9.2v14.2C170.7,186.9,170.7,187,170.8,187.1z"/>
		<path class="st1" d="M161.6,158.2h8.8v-14.5l-9.7,0l0.5,11.3C161.3,156.1,161.4,157.2,161.6,158.2z"/>
		<polygon class="st4" points="358.4,246 358.4,242.2 149.7,242.2 149.7,250 358.4,250 		"/>
		<path class="st4" d="M351.7,120.4c-19.4,0-34.1,10.1-34.1,27.6c0,14.8,13.5,25.2,31.5,25.2c13.7,0,25.1-9.9,28.4-16.2
			c0-2-2-2.8-3.8-2.8c-3.2,4.8-12,8.5-15.7,8.4c-21.8-0.8-25.4-9.5-25.7-18.7c-0.4-10,10.3-18.6,19.5-17.9
			c5.3,0.4,7.2,9.1,11.9,12.3c1.5,0.8,4.9,0.7,7.1,0.3c1.7-0.3,6.3-1.3,6.3-5.2c0-3.3-4.1-6.9-8-9.3
			C365.2,122.3,356.4,120.4,351.7,120.4z"/>
		<path class="st4" d="M222.6,158.4c0,8.1-2.1,12.4-8.6,12.8l0.2,1.3c11-0.1,22.1,0,32.8-0.3l0.1-0.7c-4.9,0-8.8-5.2-8.8-11.8V138
			c0-5.4,6.5-8.8,11-8.4c6.9,0.6,10.7,5.1,10.7,9v21.4c0,6.5-2,10.6-7.1,11v1.2H283v-0.9c-4.5-0.5-7.6-4.6-7.6-10.7v-22.5
			c0-4.8,4.2-8.1,11.6-8.2c6.5-0.1,10.4,4.7,10.4,9.3v20.4c0,6.9-2.1,11.3-7.3,11.8v0.9c11,0.1,20,0.1,30.8,0v-0.7
			c-5.7,0-7.7-3.8-7.7-11.8v-22.5c0-7.4-4.1-16.3-15.4-16.3c-7.7,0-13.4,3.8-16.6,4.8c-2.2,0.9-3.8,2-4.3,2c-1,0-2.2-0.7-3.6-2.2
			c-2.8-2.9-7.7-4.6-12.9-4.6c-6.7,0-13.3,3.8-16.5,4.8c-0.4,0.1-2.7,1.3-3,1.3c-0.5,0-2.6,0-2.6-0.3c0-6.3,0.4-3.1,0.2-7.6h-4.3
			c-1.3,0-3.5,2.4-6.2,3.4c-3.1,1.3-9.4,1.2-12,1.9v4.4l6.8,1.3v8.6L222.6,158.4z"/>
		<path class="st4" d="M193.1,172.4c11.5-0.5,22.6-3,22.6-14.1c0-8.1-8.9-13.2-18.3-17.3c-6-2.5-14.8-6.1-14.8-9
			c0-3.4,6.7-10,13.1-4.7l11.1,9.3l5.1-1l-2.9-13.8c-2.6,0.1-4.5,0.3-14-1.3c-11.8-1.7-25.8,4.2-25.8,15.2c0,7.3,10.6,12.4,19,15.8
			c4.6,2,12.7,4.8,12.7,9.3c0,4.3-7.6,5.5-11.9,5.5c-7.3,0-15.5-9.8-15.5-9.8h-4.8l2.6,14.7c0.9-0.8,4.2-0.7,4.8-0.4
			C178.6,171.4,187.1,172.8,193.1,172.4z"/>
		<path class="st4" d="M165.4,127.9v-6.8l-14.3,0.1c-1.8,0-1.7-0.4-1.7-2.8l0.2-9.3l-7.2-0.1c-2.2,5-5,8.2-6.5,8.9l-13.3,5.9v4.2
			l5,0.1c2.2,0,3.1-0.1,3.1,2.5v27.6c0,8.4,4.6,14.5,16.4,14.8c8.9,0.3,14.3-3.7,18-7.3l-1-3.5c-1.6,1-2.9,2-5,2
			c-10.1,0-9.8-7.8-9.8-14.8v-18.7c0-2.8,0.2-2.8,2.1-2.8H165.4z"/>
	</g>
	<g class="st5">
		<path class="st6" d="M266.5,142.6l-1.3-4.7l5.3-0.3c4.4-4.6,8.5-9.8,12.3-15.5l4.2,2.6c-2.2,3.5-5.4,7.6-9.5,12.4l30.1-1.6
			l-7.4-6.4l3.8-3.3c7.2,6,12.9,11.4,17.3,16.2l-4.1,3l-5.1-5.3L266.5,142.6z M314.1,171.4h-42.2c-0.9,0-1.4-0.4-1.4-1.3v-21.4
			c0-0.9,0.5-1.3,1.4-1.3h42.2c1,0,1.5,0.4,1.5,1.3v21.4C315.6,170.9,315.1,171.4,314.1,171.4L314.1,171.4z M276.1,152
			c-0.2,0-0.3,0.1-0.2,0.2v14.2l0.2,0.3H310c0.2,0,0.3-0.1,0.3-0.3v-14.2L310,152H276.1z"/>
		<path class="st6" d="M340,173.1h-4.9v-20.3c-1.1,2.6-2.2,4.7-3.2,6.5l-4.7-1.1c3.7-5.6,6.1-11.3,7.3-17.1h-6.8V137h7.5v-7.3
			l-5.4,1.2l-1.7-4.4c6.6-1.3,11.7-2.7,15.4-4.2l1.8,4.4l-5.3,1.7v8.6h4.8v4.2h-4.4c2.5,3.5,4.8,7.1,6.9,10.8l-4.3,2.2l-3-5.6
			L340,173.1L340,173.1z M358.3,170.1c-5.1,2.1-9.8,3.2-14.1,3.3c0.2-1.8,0.1-3.3-0.1-4.4c4.2-0.1,8.2-1.2,12.2-3.2L358.3,170.1z
			 M361.7,135.1h-13v-3.6h13V129h-13.9v-3.6h13.9v-2.6h5.1v2.6h14.7v3.6h-14.7v2.6h13.3v3.6h-13.3v2.6h16.1v3.6h-36.5v-3.6h15.3
			L361.7,135.1L361.7,135.1z M380.5,164.9h-31.7c-0.4,0-0.6-0.2-0.6-0.6v-20.7c0-0.4,0.2-0.5,0.6-0.5h31.7c0.4,0,0.6,0.2,0.6,0.5
			v20.7C381.1,164.7,380.9,164.9,380.5,164.9L380.5,164.9z M376.3,149.3v-2.5l-0.2-0.2h-22.8c-0.1,0-0.2,0.1-0.2,0.2v2.5H376.3z
			 M376.3,155.3v-2.6h-23.2v2.6H376.3z M353.1,158.6v2.5l0.2,0.2h22.8l0.2-0.2v-2.5H353.1z M370.1,165.8c3.8,0.6,8.2,1.7,13.2,3.5
			l-1.5,4.2c-5.3-1.8-9.5-2.9-12.9-3.4L370.1,165.8z"/>
		<path class="st6" d="M396.3,134.6c-0.3,0-0.4,0.1-0.4,0.4v7.4h-4.9v-10.7c0-0.5,0.3-0.8,0.9-0.8h23.2V128h-19.9v-3.8H440v3.8h-20
			v2.8h21.9l3.8,1.7c0,2.9-0.7,6.2-2,10.1l-4.7-1.4c1.1-3.1,1.6-5.1,1.8-6.1c0-0.4-0.2-0.6-0.6-0.6H420v11.1h-4.9v-11.1H396.3z
			 M394.9,165.1c-0.4,0-0.6-0.2-0.6-0.6v-16.1c0-0.4,0.2-0.5,0.6-0.5h44.5c0.4,0,0.6,0.2,0.6,0.5v16.1c0,0.4-0.3,0.6-0.6,0.6h-19.6
			v0.2c0,0.7,0.3,1.3,0.8,1.8s1.1,0.7,1.9,0.7h16.6c0.4,0,0.9-0.2,1.4-0.5c0.2-0.1,0.4-1.4,0.5-3.8l4.6,0.9
			c-0.5,3.6-0.9,5.5-1.2,5.8c-1.2,1.1-2.3,1.7-3.3,1.7h-21.5c-1.2,0-2.4-0.6-3.5-1.5c-0.9-1-1.4-1.9-1.4-2.9v-2.4L394.9,165.1
			L394.9,165.1z M412.6,142.4v3.6h-14.8v-3.6H412.6z M412.6,136.9v3.6h-14.6v-3.6H412.6z M414.8,151.5h-15.4c-0.1,0-0.2,0.1-0.2,0.2
			v3.1h15.6L414.8,151.5L414.8,151.5z M414.8,158.3h-15.6v3l0.2,0.2h15.4L414.8,158.3L414.8,158.3z M419.9,154.8h15.4v-3.1l-0.2-0.2
			h-15.2V154.8z M419.9,161.5H435l0.2-0.2v-3h-15.4V161.5z M437.4,136.9v3.6h-14.6v-3.6H437.4z M437.9,142.4v3.6h-14.8v-3.6H437.9z"
			/>
	</g>
</g>
</svg>
