<?xml version="1.0" encoding="utf-8"?>
<!-- Generator: Adobe Illustrator 25.1.0, SVG Export Plug-In . SVG Version: 6.00 Build 0)  -->
<svg version="1.1" id="Layer_1" xmlns="http://www.w3.org/2000/svg" xmlns:xlink="http://www.w3.org/1999/xlink" x="0px" y="0px"
	 viewBox="0 0 500 300" style="enable-background:new 0 0 500 300;" xml:space="preserve">
<path d="M42.8,204.2c1.2-2,2-4.4,3.6-5.9c13.2-11.9,17.2-28.4,22.3-44.3c3.1-9.7,3.1-19-1.5-28.5c-3.4-7.1-3.9-14.7,1.2-22.3
	c0.5,1.1,1.2,1.9,1.1,2.4c-2,6.4,1.6,10.8,5.9,14.2c12.2,9.8,12.7,22.5,10,36.2c-0.2,1.9-0.3,3.9-0.3,5.9c2.8-1.6,4.8-2.2,6-3.5
	c7.7-8.8,15.1-17.7,22.7-26.6c0.6-0.6,1-1.3,1.2-2.1c0.3-1.7,1.2-4,0.4-5s-3.2-1.3-4.9-1.1c-3.1,0.4-6.1,1.6-9.2,2.1
	c-2.6,0.4-5.4,0.9-7.9,0.4c-2-0.4-3.6-2.3-5.4-3.5c1.3-1.4,2.4-3.3,4-4.2c4.6-2.7,9.4-5,14-7.5c4.1-2.2,6.3-5.7,4.9-10.3
	c-2.8-9-5.8-17.9-8.9-26.8c-0.9-2.6-2.6-5-3.4-7.7c-0.9-3.1,0.7-4.8,3.7-3.4c4.5,2,9.2,4.1,13.2,7c2.1,1.5,3.3,4.7,4.3,7.4
	c1.3,3.7,1.8,7.7,2.9,11.5c1.8,5.7,5.1,9.1,12,8.9c8.1-0.2,12.5,5.8,10.8,13.6c-0.7,4.2-1.9,8.4-3.5,12.4c-2.2,5.1-0.6,8.6,3.4,11.7
	c3.1,2.2,6.1,4.6,9,7.1c3.1,2.9,4.3,6.4,2.7,10.8c-1.7,4.7,0,11.2,3.6,15.1c1.3-1.7,3-3.2,3.7-5c4.1-10.5,8.1-21,11.6-31.7
	c0.9-2.7-0.2-6.4-1.2-9.3c-1.5-4.5-0.6-6.1,3.9-5.9c9.7,0.5,17.1,11.5,13,20.1c-4.7,9.7-10.2,19-15.6,28.3c-1.5,2.6-3.4,4.9-5.8,6.8
	c-4,3-3.3,6.1-0.8,9.3c7.9,9.9,17.3,18.5,28,25.3c3,2,4.7-0.3,5.7-2.8c1.4-3.3,2.4-6.7,3.6-10.1c0.8,0.4,1.3,0.5,1.3,0.7
	c1.6,12.7,11.8,21.6,15,33.7c0.7,2.8,3,5.4,0.4,8.3s-5.6,2.1-8.7,1c-2-0.7-4.3-0.6-6.4-1.1c-10.5-2.4-18.9-8.7-26.7-15.5
	c-11.1-9.8-20.8-21.1-28.8-33.6c-6.2-9.6-7-9.1-14.5-0.6c-6.7,7.6-14,14.6-21.2,21.7c-4.2,4.1-8.8,3.8-14.2,1.8
	c-11-4.2-16.2-12.3-17.8-24.4c3,1.9,5.5,3.5,7.9,5c5.8,3.5,11.4,3.8,16-1c6.8-7.2,12.8-15.2,18.7-23.2c1.2-1.6,0.5-4.6,0.7-6.9
	c-2.2,0.4-4.7,0.4-6.5,1.4c-9.1,5.4-17.9,11.4-27.2,16.6c-3.9,2.2-8.8,2.8-13,4.6c-1.9,0.8-4.1,2.2-4.9,3.9
	c-4.4,9-10.3,17.1-17.5,24.1c-6.1,6-12.1,5-15.6-3.2c-0.2-0.4-0.5-0.9-0.8-1.3L42.8,204.2z"/>
<path d="M356.4,196c6.8-4.8,8.6-12.1,10.8-19.2c1.8-6,0.9-8.1-4.8-10.7c-15.8-7.3-12-8.9-23.2,5.8c-10.3,13.7-22,26.3-35.1,37.4
	c-5.1,4.4-10.4,8.9-18.2,7.1s-13.6-10.1-11.4-17.7c1.5-5,4.1-9.6,6.5-14.3c0.8-1.1,2.2-1.8,3.6-1.8c0.8,0.1,1.4,2,2,3.1
	c0.1,0.1,0,0.3,0.1,0.5c2.6,10.7,4.3,11.3,13,4.5c2.6-2,5-4.4,7.5-6.6c3.6-3.1,3.1-6.1,0.1-9.4c-1-1.1-1.5-2.5-1.3-4
	c1.2-4.9,3.3-9.6,4.1-14.6s0.6-10,0.7-14.9c-0.1-1.5-0.2-3-0.5-4.5c-3.8-0.4-7.6-0.2-11-1.3c-3.1-1-5.9-3.2-8.8-5.7
	c14.3,1.6,23-7.6,32.4-15.3c4.3-3.5,8.8-5.5,14.2-2.8c1.6,0.8,3.8,1.8,4.1,3.2c0.3,1.2-1.5,3.2-2.8,4.2c-4.5,3.1-9.3,5.8-14,8.7
	c-7.9,4.9-7.5,5.3-4.6,13.9c2.3,6.7,3.2,13.8,4.7,20.7c0.3,1.5,0.4,3.1,0.8,5.9c2.8-2,4.8-3.4,6.6-4.9c4.9-4,9.7-8.1,14.7-12
	c2.5-2,4.6-2.1,5,1.9c0.3,3.7,2.6,3.2,5,2.4c12.8-4.4,22.7-11.7,25.6-25.8c1.7-8.6,3.7-17.3,4.2-26c0.4-6-1.6-12.1-2.3-18.1
	c-0.5-4.5-2.7-10.5,2.1-12.6c2.4-1.1,7.7,2.7,10.8,5.3c4.2,3.3,7.8,7.3,10.8,11.7c4.4,6.6,3.5,13.9,1.1,21.1
	c-1.9,5.8-3.9,11.6-5.7,17.5c-0.5,2.1-0.8,4.3-1,6.5c6.2-1.6,11.7-2.3,16.4-4.5c18.1-8.5,31.3,5.7,37.8,18.1
	c0.9,2.1,0.8,4.5-0.1,6.5c-7.4,14.8-14.9,29.6-22.7,44.2c-2.2,4-5.6,7.4-8.6,11c-5.1,6.1-10.3,12.1-15.3,18.4s-11.9,7.1-18.7,2.6
	c-10.5-7-13.1-17.8-15.4-28.9c-0.1-0.5-0.1-1-0.2-1.5c-1.6-7.9-2.5-8.4-8.8-3.4C363,200.6,359.9,201.1,356.4,196z M376.8,187.6
	c2.4,4.1,4.5,8.6,7.3,12.6c6.8,9.6,13.5,9.7,19.6-0.2c6.1-9.8,11.6-20,16.5-30.4c3.1-6.7,4.6-14.1,6.2-21.3c1.2-5.6-1.3-7.9-6.5-6.1
	c-9.1,3.1-18.1,6.8-24.1,14.9c-5.4,7.3-10.5,14.9-15.5,22.5C378.8,181.7,378.1,184.3,376.8,187.6L376.8,187.6z"/>
<path d="M153.8,74.1c9.9-6.4,21.5-6.8,28.7-0.3c2.7,2.5,4.3,6.8,5.1,10.6c0.3,1.4-3.4,5.1-5.1,5c-4-0.3-7.9-1.4-11.4-3.4
	c-5.5-3.1-10.5-7.1-15.8-10.7C154.7,75,154.3,74.6,153.8,74.1z"/>
</svg>
